<svg version="1.1" id="Layer_1" xmlns="http://www.w3.org/2000/svg" xmlns:xlink="http://www.w3.org/1999/xlink" x="0px" y="0px"
	 width="100%" viewBox="0 0 1920 1080" enable-background="new 0 0 1920 1080" xml:space="preserve">
<path fill="#04345C" opacity="1.000000" stroke="none" 
	d="
M1921.000000,973.000000 
	C1921.000000,1008.986877 1921.000000,1044.973755 1921.000000,1081.000000 
	C1572.639771,1081.000000 1224.279663,1081.000000 875.442871,1080.554199 
	C875.054626,1078.280273 874.980469,1076.427368 875.255554,1074.627808 
	C879.659058,1045.818970 879.805908,1016.993896 876.122864,988.085693 
	C869.421204,935.484192 851.368286,887.402588 819.372009,844.875488 
	C802.093384,821.909973 782.042053,801.555908 760.369568,782.703430 
	C733.758057,759.554626 706.884277,736.665222 681.117737,712.599487 
	C657.774597,690.797180 635.775879,667.555969 613.164246,644.969360 
	C606.468201,638.280762 599.703918,631.660583 592.888550,624.546387 
	C593.066467,616.824097 593.326721,609.564453 593.581116,602.469299 
	C601.235046,601.216492 601.227173,601.220825 604.393311,606.992004 
	C609.330627,615.991455 614.279907,624.984375 619.233032,633.996216 
	C626.186401,632.210754 632.619446,630.562561 639.050537,628.906677 
	C646.177185,627.071716 647.508850,624.109741 644.255981,617.396545 
	C641.405640,611.514160 638.572327,605.623413 635.634949,599.536194 
	C645.101074,597.992798 649.972961,592.112000 649.965942,583.078125 
	C649.950195,562.759827 649.920715,542.441589 649.889343,522.123291 
	C649.878784,515.252502 646.122498,510.968475 639.226624,510.520538 
	C619.621277,509.247009 600.005554,508.133881 580.393494,506.963593 
	C573.663269,506.561981 566.931946,506.178192 559.592041,505.750824 
	C559.592041,533.376221 559.592041,560.160278 559.299316,586.820740 
	C557.466919,585.451904 555.782959,584.347107 554.410889,582.938538 
	C545.578369,573.871521 536.957336,564.594604 528.000854,555.652954 
	C500.299316,527.997253 472.097534,500.886108 441.725220,476.110107 
	C402.279663,443.932678 360.090546,416.154694 313.128113,396.165894 
	C258.117188,372.751343 201.084503,361.113495 141.055725,367.981873 
	C102.514816,372.391663 66.773712,384.970184 33.820076,405.253510 
	C22.501307,412.220337 11.918843,420.383423 1.000001,428.000000 
	C1.000000,285.707275 1.000000,143.414520 1.000000,1.000000 
	C348.693512,1.000000 696.387024,1.000000 1044.523438,1.405281 
	C1044.657837,3.445180 1044.455688,5.108334 1044.025635,6.710284 
	C1032.216553,50.706612 1027.613403,95.299599 1031.838013,140.807632 
	C1034.816284,172.890671 1041.837036,203.954514 1053.070312,234.090149 
	C1066.115845,269.087555 1084.394531,301.406982 1103.969116,333.063812 
	C1107.885376,339.397400 1111.260132,346.065979 1114.454834,352.453857 
	C1088.526001,350.225250 1063.026978,348.122894 1036.740967,345.955658 
	C1036.740967,388.891785 1036.740967,431.255859 1036.740967,474.017487 
	C1038.226440,474.017487 1039.855347,474.046326 1041.483032,474.013062 
	C1061.300781,473.608093 1081.120483,472.836853 1100.934814,472.961670 
	C1108.644165,473.010254 1113.924561,470.815674 1118.616089,464.585327 
	C1122.179688,459.852936 1124.350830,455.509460 1124.486938,449.423004 
	C1125.078125,422.951691 1126.183716,396.491882 1127.315796,370.278534 
	C1131.016357,375.954010 1134.411499,381.440918 1138.016846,386.785980 
	C1141.499512,391.949097 1145.199219,396.965973 1148.875610,402.508148 
	C1148.947754,426.376556 1148.947754,449.783936 1148.947754,474.110443 
	C1162.793457,474.110443 1175.881836,474.110443 1189.022705,474.464691 
	C1189.739380,476.324677 1190.342163,477.861053 1191.077271,479.331146 
	C1195.732666,488.639740 1200.417358,497.933716 1204.692139,507.366577 
	C1193.812378,507.993683 1183.334717,508.536926 1172.852295,508.962158 
	C1165.759399,509.249908 1161.270508,513.855225 1160.962158,521.141846 
	C1159.454956,556.750366 1157.897705,592.356812 1156.374878,627.964661 
	C1156.292847,629.885315 1156.364258,631.812500 1156.364258,633.521118 
	C1166.855835,633.521118 1176.769531,633.521118 1187.030029,633.521118 
	C1187.958618,620.803894 1188.850586,608.588379 1189.760864,596.120667 
	C1198.372681,595.613770 1206.429932,595.139465 1215.650391,594.596680 
	C1215.650391,608.190613 1215.650391,621.077087 1215.650391,633.724365 
	C1227.384644,633.724365 1237.985229,633.724365 1248.883057,633.724365 
	C1248.883057,620.487976 1248.883057,607.724426 1249.096191,595.238831 
	C1249.842529,596.359009 1250.448975,597.164062 1250.898071,598.048950 
	C1264.314819,624.483765 1277.575439,650.998901 1291.151001,677.351807 
	C1314.207886,722.109680 1339.255615,765.718994 1368.058228,807.058838 
	C1400.063843,852.995422 1436.112305,895.355713 1478.997559,931.676697 
	C1518.500366,965.132874 1561.786255,992.090881 1610.435547,1010.179688 
	C1657.984863,1027.859741 1706.967163,1035.446411 1757.590942,1030.799683 
	C1800.545654,1026.856812 1841.197266,1014.483398 1879.808350,995.512390 
	C1893.838745,988.618774 1907.286499,980.538757 1921.000000,973.000000 
M699.066650,346.768585 
	C681.925720,347.507751 664.786011,348.276520 647.643250,348.971283 
	C640.890381,349.244995 636.264587,353.948517 635.971313,360.854462 
	C634.783997,388.813049 633.446167,416.765686 632.391296,444.729126 
	C632.029785,454.313446 632.333923,463.922852 632.333923,473.619629 
	C641.680115,473.619629 651.598267,473.619629 662.018677,473.619629 
	C662.936523,460.992126 663.825989,448.754700 664.743530,436.131348 
	C673.270081,435.630768 681.452637,435.150391 690.647400,434.610596 
	C690.647400,448.260162 690.647400,461.013733 690.647400,473.643311 
	C702.347168,473.643311 713.068176,473.643311 724.132568,473.643311 
	C724.132568,471.113190 724.168091,469.136078 724.127258,467.160553 
	C723.432068,433.517120 722.809509,399.871674 721.899170,366.234009 
	C721.807007,362.829803 720.214111,359.371704 718.887512,356.113770 
	C715.391296,347.527557 709.104065,344.198120 699.066650,346.768585 
M859.339355,378.499756 
	C859.339355,410.275452 859.339355,442.051147 859.339355,474.477356 
	C870.570435,473.548859 881.096558,472.678650 891.932434,471.782806 
	C892.336670,463.327759 892.946533,455.365662 893.004700,447.399536 
	C893.035217,443.215820 894.605103,442.081573 898.595459,442.030304 
	C911.924438,441.859131 925.248535,441.324249 938.574890,440.942505 
	C944.138916,440.783081 949.790955,435.096802 949.787659,429.412109 
	C949.774475,406.579376 949.719238,383.746521 949.622864,360.913971 
	C949.602966,356.191620 944.940430,351.321014 940.304260,351.058167 
	C914.851562,349.615265 889.397583,348.195709 863.942139,346.802979 
	C862.521301,346.725281 861.083435,346.958344 859.339355,347.066193 
	C859.339355,357.534729 859.339355,367.517242 859.339355,378.499756 
M752.977112,346.882904 
	C751.036987,346.882904 749.096802,346.882904 747.104248,346.882904 
	C747.104248,389.494659 747.104248,431.716858 747.104248,474.443207 
	C757.901855,473.544769 768.297424,472.679779 779.113708,471.779785 
	C779.670532,461.879639 780.208923,452.306641 780.764099,442.434967 
	C783.104980,442.297821 784.904480,442.148529 786.706848,442.093811 
	C799.863403,441.694702 813.020630,441.316864 826.177429,440.927185 
	C831.223206,440.777740 836.939026,435.143951 836.945374,430.024597 
	C836.974121,406.863007 836.935852,383.701294 836.864685,360.539764 
	C836.851624,356.288513 832.007629,351.313873 827.734009,351.070160 
	C803.118591,349.666656 778.500916,348.302734 752.977112,346.882904 
M862.493408,530.119690 
	C862.695007,526.626709 862.921448,523.135010 863.092163,519.640503 
	C863.334961,514.669006 856.587097,507.077271 851.488098,506.990906 
	C827.661316,506.587311 803.832336,506.303833 780.003296,506.059814 
	C778.828186,506.047760 776.924561,506.493988 776.587158,507.264313 
	C774.874878,511.173279 772.319824,515.258179 772.314392,519.284424 
	C772.266907,554.612061 772.689636,589.940430 773.030579,625.268005 
	C773.042358,626.485352 773.304565,628.429688 774.050598,628.789307 
	C778.168457,630.774231 782.445679,633.782043 786.718201,633.864929 
	C808.538940,634.288452 830.376099,633.998657 852.203735,633.691895 
	C853.995056,633.666748 856.289246,632.043335 857.449036,630.489929 
	C865.338989,619.923523 860.067566,608.129700 861.108337,596.497009 
	C850.710815,595.818237 841.131226,595.192871 831.297852,594.550903 
	C830.274536,600.541016 829.333923,606.047485 828.339966,611.866028 
	C821.165955,611.297607 814.418945,610.763000 806.826904,610.161438 
	C806.826904,583.652832 806.826904,557.580994 806.826904,530.992859 
	C813.584412,531.339539 820.664856,531.702759 828.022766,532.080200 
	C829.054077,538.154785 830.043457,543.982422 831.017822,549.721619 
	C841.297913,549.721619 851.066284,549.721619 861.169006,549.721619 
	C861.588196,543.325256 861.990540,537.186218 862.493408,530.119690 
M739.150940,604.494995 
	C727.890930,603.859314 716.630920,603.223633 705.367615,602.587769 
	C705.367615,595.114746 705.367615,588.203430 705.367615,580.882507 
	C714.292725,581.332092 722.842163,581.762817 731.539673,582.200989 
	C731.539673,572.589355 731.539673,563.707642 731.539673,554.520996 
	C722.664795,553.905884 714.119995,553.313660 705.557007,552.720154 
	C705.557007,547.228210 705.557007,542.318909 705.557007,536.967468 
	C719.293213,536.967468 732.689148,536.967468 746.629456,536.967468 
	C746.629456,527.114502 746.629456,517.705750 746.629456,508.020538 
	C722.038818,507.246918 697.483398,506.474426 672.755493,505.696472 
	C672.567688,507.599243 672.358032,508.736084 672.357544,509.872955 
	C672.340088,549.692261 672.377380,589.511597 672.280273,629.330688 
	C672.271851,632.808655 673.343750,633.903259 676.846863,633.882812 
	C699.837952,633.748779 722.830261,633.820251 745.822144,633.793274 
	C747.091187,633.791809 748.359924,633.510742 749.942566,633.322571 
	C749.310791,623.726685 748.703674,614.504395 748.089539,605.176270 
	C745.018738,604.949341 742.542969,604.766357 739.150940,604.494995 
M945.276917,571.445984 
	C945.276917,565.845581 945.276917,560.245117 945.276917,554.516296 
	C936.083069,553.896362 927.670837,553.329102 919.142212,552.754028 
	C919.142212,547.353760 919.142212,542.435791 919.142212,537.077698 
	C932.821228,537.077698 946.230530,537.077698 960.232422,537.077698 
	C960.232422,527.237732 960.232422,517.834045 960.232422,508.040100 
	C935.635620,507.257996 911.077576,506.477081 886.387268,505.691986 
	C886.387268,548.740295 886.387268,591.090454 886.387268,633.332275 
	C912.170471,633.332275 937.529663,633.332275 963.340088,633.332275 
	C962.768677,623.737061 962.227356,614.646484 961.672424,605.328735 
	C959.858521,605.137085 958.407654,604.923340 956.949280,604.839233 
	C945.640198,604.187073 934.322937,603.651733 923.027588,602.817688 
	C921.487183,602.703918 918.831421,601.214661 918.770020,600.232361 
	C918.378967,593.980896 918.571106,587.692993 918.571106,580.862061 
	C927.777832,581.335022 936.185547,581.766968 945.276855,582.234070 
	C945.276855,578.648560 945.276855,575.533875 945.276917,571.445984 
M1043.850098,527.440369 
	C1043.850098,530.564270 1043.850098,533.688110 1043.850098,537.244263 
	C1051.230713,537.570618 1058.038330,538.125305 1064.842651,538.084656 
	C1069.485718,538.056946 1070.615845,539.846130 1070.553589,544.310669 
	C1070.163208,572.302002 1070.062744,600.297363 1069.869263,628.291382 
	C1069.856079,630.207458 1069.867554,632.123718 1069.867554,634.429871 
	C1079.755737,633.533569 1088.848633,632.520935 1097.969482,631.971069 
	C1101.868530,631.736023 1103.388184,630.556641 1103.510132,626.426819 
	C1104.183838,603.611206 1105.132446,580.803650 1106.014648,557.994446 
	C1106.257568,551.714111 1106.595947,545.437500 1106.909424,538.756287 
	C1115.521606,538.326172 1123.604736,537.922424 1132.606445,537.472900 
	C1132.606445,526.923767 1132.606445,516.736877 1132.606445,506.401855 
	C1103.291504,506.401855 1073.849731,506.401855 1043.845581,506.401855 
	C1043.845581,513.222839 1043.845581,519.841553 1043.850098,527.440369 
M1019.785828,506.801758 
	C1008.853943,507.096802 997.921997,507.391846 986.398193,507.702850 
	C986.398193,550.177612 986.398193,591.900574 986.398193,634.112915 
	C996.546143,633.015198 1006.563232,631.931580 1016.665710,630.838745 
	C1016.846802,629.859741 1017.046753,629.229431 1017.069092,628.592896 
	C1018.462097,588.971069 1019.846008,549.348877 1021.186951,509.725281 
	C1021.217773,508.814178 1020.747864,507.886108 1019.785828,506.801758 
z"/>
<path fill="#195473" opacity="1.000000" stroke="none" 
	d="
M1921.000000,972.531372 
	C1907.286499,980.538757 1893.838745,988.618774 1879.808350,995.512390 
	C1841.197266,1014.483398 1800.545654,1026.856812 1757.590942,1030.799683 
	C1706.967163,1035.446411 1657.984863,1027.859741 1610.435547,1010.179688 
	C1561.786255,992.090881 1518.500366,965.132874 1478.997559,931.676697 
	C1436.112305,895.355713 1400.063843,852.995422 1368.058228,807.058838 
	C1339.255615,765.718994 1314.207886,722.109680 1291.151001,677.351807 
	C1277.575439,650.998901 1264.314819,624.483765 1250.898071,598.048950 
	C1250.448975,597.164062 1249.842529,596.359009 1248.953369,594.806519 
	C1248.110840,573.647644 1247.163818,553.194885 1247.348755,532.752380 
	C1247.430542,523.715942 1245.125000,516.315186 1239.572388,509.442932 
	C1237.704712,507.131500 1236.033203,505.982208 1232.992554,506.151672 
	C1223.701294,506.669647 1214.393555,506.893982 1205.092285,507.232483 
	C1200.417358,497.933716 1195.732666,488.639740 1191.077271,479.331146 
	C1190.342163,477.861053 1189.739380,476.324677 1189.484375,474.364990 
	C1200.724731,473.877441 1211.557983,473.926544 1222.385620,473.707397 
	C1223.768066,473.679443 1226.327759,472.216339 1226.305664,471.479218 
	C1226.043091,462.725586 1225.393555,453.983551 1224.831177,445.009705 
	C1211.678833,444.295685 1199.201294,443.714172 1186.745361,442.828400 
	C1185.069092,442.709198 1182.176514,441.150757 1182.102051,440.099121 
	C1181.660645,433.865204 1181.884277,427.584198 1181.884277,420.884796 
	C1191.152954,421.343567 1199.553955,421.759369 1208.682007,422.211151 
	C1208.682007,414.052673 1208.533936,406.592224 1208.745483,399.142029 
	C1208.848755,395.503601 1207.593384,394.131561 1203.916626,394.034943 
	C1196.802124,393.847900 1189.698364,393.243896 1182.456299,392.804565 
	C1182.456299,387.314423 1182.456299,382.293030 1182.456299,376.938354 
	C1196.168701,376.938354 1209.434204,376.938354 1223.339233,376.938354 
	C1223.339233,367.209351 1223.339233,357.819885 1223.339233,348.015564 
	C1198.705444,347.246185 1174.171875,346.479950 1149.100220,345.696930 
	C1149.100220,348.812469 1149.110840,350.944946 1149.098267,353.077271 
	C1149.002563,369.400543 1148.902344,385.723846 1148.803467,402.047119 
	C1145.199219,396.965973 1141.499512,391.949097 1138.016846,386.785980 
	C1134.411499,381.440918 1131.016357,375.954010 1127.201904,369.944092 
	C1122.878052,363.766022 1118.881348,358.173065 1114.884644,352.580078 
	C1111.260132,346.065979 1107.885376,339.397400 1103.969116,333.063812 
	C1084.394531,301.406982 1066.115845,269.087555 1053.070312,234.090149 
	C1041.837036,203.954514 1034.816284,172.890671 1031.838013,140.807632 
	C1027.613403,95.299599 1032.216553,50.706612 1044.025635,6.710284 
	C1044.455688,5.108334 1044.657837,3.445180 1044.983154,1.405281 
	C1268.687622,1.000000 1492.375122,1.000000 1716.594360,1.391159 
	C1709.362427,25.434782 1712.002441,47.478577 1726.070312,68.413399 
	C1740.079468,89.261024 1753.393799,110.581604 1766.754883,131.856781 
	C1777.081299,148.299805 1788.133301,164.121277 1803.592407,176.197449 
	C1819.050415,188.272690 1836.274292,195.480728 1856.394897,192.961777 
	C1874.494507,190.695862 1889.149170,181.558136 1900.577637,167.965866 
	C1908.317261,158.761002 1914.255859,148.041840 1921.000000,137.999969 
	C1921.000000,416.020905 1921.000000,694.041809 1921.000000,972.531372 
M1306.728149,545.320984 
	C1307.508545,536.887329 1305.983765,537.291809 1315.147827,536.819275 
	C1316.476807,536.750793 1317.799194,536.551758 1319.123657,536.404236 
	C1328.340576,535.377502 1328.221313,535.419373 1331.408691,544.343323 
	C1331.989014,545.968201 1333.949219,548.199097 1335.336060,548.245605 
	C1341.145508,548.440369 1346.995239,548.093445 1352.799316,547.589539 
	C1357.689453,547.165039 1361.067383,543.021973 1360.873535,538.134766 
	C1360.576538,530.644348 1360.277710,523.151001 1359.745972,515.675537 
	C1359.646484,514.275330 1358.694092,511.992340 1357.722412,511.746338 
	C1349.720459,509.720398 1341.629639,506.666595 1333.549438,506.617523 
	C1317.087646,506.517548 1300.616211,508.111237 1284.147461,508.983337 
	C1279.313354,509.239349 1274.073242,514.277466 1273.960571,519.235352 
	C1273.597778,535.226013 1273.328369,551.219299 1273.123291,567.212830 
	C1273.063232,571.899292 1278.973511,578.393799 1283.542969,578.914246 
	C1290.161011,579.667969 1296.789429,580.330383 1303.406006,581.096191 
	C1312.104492,582.103088 1320.795532,583.172546 1329.735229,584.244507 
	C1329.399414,591.166992 1329.096436,597.414429 1328.757080,604.412048 
	C1323.964111,604.412048 1319.664429,604.322632 1315.369507,604.429688 
	C1304.810303,604.692688 1304.714966,604.744995 1302.981201,594.258606 
	C1302.505615,591.381470 1301.321777,590.277893 1298.434814,590.315369 
	C1291.772095,590.401978 1285.104004,590.352112 1278.442993,590.177063 
	C1275.717896,590.105469 1274.495483,591.155029 1274.266602,593.834534 
	C1273.543213,602.296753 1271.973145,610.774658 1272.240967,619.198547 
	C1272.388306,623.834656 1275.467041,628.418274 1277.479736,632.911072 
	C1277.784546,633.591614 1279.484985,633.954529 1280.536499,633.947876 
	C1303.195679,633.805664 1325.855225,633.651978 1348.512573,633.341248 
	C1353.729004,633.269714 1361.057861,625.365356 1361.192139,620.109863 
	C1361.519775,607.285156 1361.640747,594.452576 1362.175903,581.636963 
	C1362.505615,573.739807 1357.572021,567.933350 1354.802002,561.274475 
	C1354.465210,560.464661 1352.591553,560.021790 1351.379028,559.893799 
	C1344.589233,559.177246 1337.782959,558.617432 1330.983765,557.989075 
	C1322.742065,557.227478 1314.501831,556.450745 1305.824341,555.639771 
	C1306.121216,552.132080 1306.371582,549.174194 1306.728149,545.320984 
M1816.812622,261.415192 
	C1810.780640,272.955750 1811.910645,285.050903 1820.200317,294.973907 
	C1828.464233,304.866180 1839.256958,307.439697 1851.310791,304.377441 
	C1864.026611,301.147034 1872.911377,289.000763 1872.971558,275.840027 
	C1873.032593,262.483521 1864.185303,250.823074 1851.045288,246.941589 
	C1838.147095,243.131577 1824.840454,248.549194 1816.812622,261.415192 
z"/>
<path fill="#195473" opacity="1.000000" stroke="none" 
	d="
M1.000001,428.468658 
	C11.918843,420.383423 22.501307,412.220337 33.820076,405.253510 
	C66.773712,384.970184 102.514816,372.391663 141.055725,367.981873 
	C201.084503,361.113495 258.117188,372.751343 313.128113,396.165894 
	C360.090546,416.154694 402.279663,443.932678 441.725220,476.110107 
	C472.097534,500.886108 500.299316,527.997253 528.000854,555.652954 
	C536.957336,564.594604 545.578369,573.871521 554.410889,582.938538 
	C555.782959,584.347107 557.466919,585.451904 559.385010,587.285889 
	C559.763306,602.912781 559.763306,617.951050 559.763306,633.511963 
	C571.051758,632.565002 581.414612,631.695618 591.664856,630.835754 
	C592.177734,628.547485 592.574341,626.778259 592.970886,625.009033 
	C599.703918,631.660583 606.468201,638.280762 613.164246,644.969360 
	C635.775879,667.555969 657.774597,690.797180 681.117737,712.599487 
	C706.884277,736.665222 733.758057,759.554626 760.369568,782.703430 
	C782.042053,801.555908 802.093384,821.909973 819.372009,844.875488 
	C851.368286,887.402588 869.421204,935.484192 876.122864,988.085693 
	C879.805908,1016.993896 879.659058,1045.818970 875.255554,1074.627808 
	C874.980469,1076.427368 875.054626,1078.280273 874.983154,1080.554199 
	C689.979126,1081.000000 504.958221,1081.000000 319.473572,1080.654907 
	C319.984222,1079.178833 320.924561,1078.016113 321.938293,1076.921509 
	C335.266632,1062.530518 340.055908,1045.332397 337.716431,1026.221069 
	C334.622528,1000.946777 315.242645,980.513794 289.426025,974.479248 
	C265.395996,968.862244 239.246735,979.430420 224.939697,1000.541321 
	C210.833405,1021.356018 211.122299,1050.132812 225.731461,1070.510864 
	C228.322723,1074.125488 231.235596,1077.509521 234.000000,1081.000000 
	C156.451874,1081.000000 78.903732,1081.000000 1.000000,1081.000000 
	C1.000000,1063.313965 1.000000,1045.625610 1.353093,1027.500488 
	C4.033817,1028.354004 6.331944,1029.701050 8.693560,1030.925781 
	C43.114998,1048.777588 78.727127,1060.444336 118.452797,1055.202881 
	C157.139603,1050.098511 185.100403,1016.225647 181.313019,977.388062 
	C178.519180,948.739258 175.473602,920.114929 172.678452,891.466187 
	C170.730469,871.500366 167.704346,851.837036 159.048553,833.442627 
	C143.766953,800.967773 116.069016,786.007568 80.934418,792.060364 
	C59.997593,795.667236 42.069618,805.931580 26.725676,820.265015 
	C17.534658,828.850830 9.535088,838.712036 1.000000,848.000000 
	C1.000000,708.312439 1.000000,568.624878 1.000001,428.468658 
z"/>
<path fill="#6BD4CD" opacity="1.000000" stroke="none" 
	d="
M1.000000,848.468628 
	C9.535088,838.712036 17.534658,828.850830 26.725676,820.265015 
	C42.069618,805.931580 59.997593,795.667236 80.934418,792.060364 
	C116.069016,786.007568 143.766953,800.967773 159.048553,833.442627 
	C167.704346,851.837036 170.730469,871.500366 172.678452,891.466187 
	C175.473602,920.114929 178.519180,948.739258 181.313019,977.388062 
	C185.100403,1016.225647 157.139603,1050.098511 118.452797,1055.202881 
	C78.727127,1060.444336 43.114998,1048.777588 8.693560,1030.925781 
	C6.331944,1029.701050 4.033817,1028.354004 1.353093,1027.031860 
	C1.000000,967.645752 1.000000,908.291565 1.000000,848.468628 
z"/>
<path fill="#6BD4CD" opacity="1.000000" stroke="none" 
	d="
M1921.000000,137.531311 
	C1914.255859,148.041840 1908.317261,158.761002 1900.577637,167.965866 
	C1889.149170,181.558136 1874.494507,190.695862 1856.394897,192.961777 
	C1836.274292,195.480728 1819.050415,188.272690 1803.592407,176.197449 
	C1788.133301,164.121277 1777.081299,148.299805 1766.754883,131.856781 
	C1753.393799,110.581604 1740.079468,89.261024 1726.070312,68.413399 
	C1712.002441,47.478577 1709.362427,25.434782 1717.062988,1.391159 
	C1784.912720,1.000000 1852.825317,1.000000 1921.000000,1.000000 
	C1921.000000,46.353893 1921.000000,91.708290 1921.000000,137.531311 
z"/>
<path fill="#6BD4CD" opacity="1.000000" stroke="none" 
	d="
M234.468658,1081.000000 
	C231.235596,1077.509521 228.322723,1074.125488 225.731461,1070.510864 
	C211.122299,1050.132812 210.833405,1021.356018 224.939697,1000.541321 
	C239.246735,979.430420 265.395996,968.862244 289.426025,974.479248 
	C315.242645,980.513794 334.622528,1000.946777 337.716431,1026.221069 
	C340.055908,1045.332397 335.266632,1062.530518 321.938293,1076.921509 
	C320.924561,1078.016113 319.984222,1079.178833 319.004883,1080.654907 
	C290.979095,1081.000000 262.958221,1081.000000 234.468658,1081.000000 
z"/>
<path fill="#6AD3CC" opacity="1.000000" stroke="none" 
	d="
M699.531372,346.744080 
	C709.104065,344.198120 715.391296,347.527557 718.887512,356.113770 
	C720.214111,359.371704 721.807007,362.829803 721.899170,366.234009 
	C722.809509,399.871674 723.432068,433.517120 724.127258,467.160553 
	C724.168091,469.136078 724.132568,471.113190 724.132568,473.643311 
	C713.068176,473.643311 702.347168,473.643311 690.647400,473.643311 
	C690.647400,461.013733 690.647400,448.260162 690.647400,434.610596 
	C681.452637,435.150391 673.270081,435.630768 664.743530,436.131348 
	C663.825989,448.754700 662.936523,460.992126 662.018677,473.619629 
	C651.598267,473.619629 641.680115,473.619629 632.333923,473.619629 
	C632.333923,463.922852 632.029785,454.313446 632.391296,444.729126 
	C633.446167,416.765686 634.783997,388.813049 635.971313,360.854462 
	C636.264587,353.948517 640.890381,349.244995 647.643250,348.971283 
	C664.786011,348.276520 681.925720,347.507751 699.531372,346.744080 
M670.518494,379.940918 
	C669.712769,380.351074 668.234802,380.712006 668.200562,381.178589 
	C667.540344,390.199280 667.049011,399.232269 666.505249,408.566956 
	C674.760193,409.092590 682.111145,409.560669 689.081665,410.004547 
	C689.081665,399.124756 689.081665,388.936554 689.081665,378.402832 
	C682.645813,378.942047 677.030701,379.412506 670.518494,379.940918 
z"/>
<path fill="#6AD3CC" opacity="1.000000" stroke="none" 
	d="
M1204.692139,507.366608 
	C1214.393555,506.893982 1223.701294,506.669647 1232.992554,506.151672 
	C1236.033203,505.982208 1237.704712,507.131500 1239.572388,509.442932 
	C1245.125000,516.315186 1247.430542,523.715942 1247.348755,532.752380 
	C1247.163818,553.194885 1248.110840,573.647644 1248.740234,594.528564 
	C1248.883057,607.724426 1248.883057,620.487976 1248.883057,633.724365 
	C1237.985229,633.724365 1227.384644,633.724365 1215.650391,633.724365 
	C1215.650391,621.077087 1215.650391,608.190613 1215.650391,594.596680 
	C1206.429932,595.139465 1198.372681,595.613770 1189.760864,596.120667 
	C1188.850586,608.588379 1187.958618,620.803894 1187.030029,633.521118 
	C1176.769531,633.521118 1166.855835,633.521118 1156.364258,633.521118 
	C1156.364258,631.812500 1156.292847,629.885315 1156.374878,627.964661 
	C1157.897705,592.356812 1159.454956,556.750366 1160.962158,521.141846 
	C1161.270508,513.855225 1165.759399,509.249908 1172.852295,508.962158 
	C1183.334717,508.536926 1193.812378,507.993683 1204.692139,507.366608 
M1214.345215,551.041382 
	C1214.345215,546.961304 1214.345215,542.881226 1214.345215,538.372131 
	C1206.602661,539.030701 1199.907104,539.600159 1193.011719,540.186646 
	C1192.509155,549.914001 1192.034790,559.095032 1191.545044,568.573181 
	C1199.773438,569.094604 1207.121216,569.560242 1214.380493,570.020264 
	C1214.380493,563.535339 1214.380493,557.754517 1214.345215,551.041382 
z"/>
<path fill="#6AD3CC" opacity="1.000000" stroke="none" 
	d="
M592.888550,624.546387 
	C592.574341,626.778259 592.177734,628.547485 591.664856,630.835754 
	C581.414612,631.695618 571.051758,632.565002 559.763306,633.511963 
	C559.763306,617.951050 559.763306,602.912781 559.677673,587.409424 
	C559.592041,560.160278 559.592041,533.376221 559.592041,505.750824 
	C566.931946,506.178192 573.663269,506.561981 580.393494,506.963593 
	C600.005554,508.133881 619.621277,509.247009 639.226624,510.520538 
	C646.122498,510.968475 649.878784,515.252502 649.889343,522.123291 
	C649.920715,542.441589 649.950195,562.759827 649.965942,583.078125 
	C649.972961,592.112000 645.101074,597.992798 635.634949,599.536194 
	C638.572327,605.623413 641.405640,611.514160 644.255981,617.396545 
	C647.508850,624.109741 646.177185,627.071716 639.050537,628.906677 
	C632.619446,630.562561 626.186401,632.210754 619.233032,633.996216 
	C614.279907,624.984375 609.330627,615.991455 604.393311,606.992004 
	C601.227173,601.220825 601.235046,601.216492 593.581116,602.469299 
	C593.326721,609.564453 593.066467,616.824097 592.888550,624.546387 
M594.615417,567.729797 
	C594.615417,569.346252 594.615417,570.962646 594.615417,573.023926 
	C602.030640,572.438171 608.893799,571.895996 616.194214,571.319336 
	C616.194214,559.970032 616.245178,549.182800 616.109009,538.397949 
	C616.096497,537.408264 614.986450,535.670959 614.220398,535.572693 
	C608.053040,534.781494 601.845947,534.300476 594.642700,533.630920 
	C594.642700,545.303955 594.642700,556.076721 594.615417,567.729797 
z"/>
<path fill="#6AD3CC" opacity="1.000000" stroke="none" 
	d="
M1114.454834,352.453857 
	C1118.881348,358.173065 1122.878052,363.766022 1126.988525,369.693420 
	C1126.183716,396.491882 1125.078125,422.951691 1124.486938,449.423004 
	C1124.350830,455.509460 1122.179688,459.852936 1118.616089,464.585327 
	C1113.924561,470.815674 1108.644165,473.010254 1100.934814,472.961670 
	C1081.120483,472.836853 1061.300781,473.608093 1041.483032,474.013062 
	C1039.855347,474.046326 1038.226440,474.017487 1036.740967,474.017487 
	C1036.740967,431.255859 1036.740967,388.891785 1036.740967,345.955658 
	C1063.026978,348.122894 1088.526001,350.225250 1114.454834,352.453857 
M1088.968750,382.607513 
	C1082.810669,380.857971 1076.652588,379.108429 1070.829590,377.454071 
	C1070.829590,401.315979 1070.829590,424.486115 1070.829590,448.061432 
	C1077.498413,446.580170 1083.140991,445.123322 1088.864258,444.134918 
	C1092.092529,443.577454 1093.236328,442.281464 1093.267578,438.940338 
	C1093.424805,422.115204 1093.721191,405.288971 1094.240845,388.471527 
	C1094.351929,384.873474 1093.159302,383.209015 1088.968750,382.607513 
z"/>
<path fill="#6AD2CB" opacity="1.000000" stroke="none" 
	d="
M859.339355,377.999756 
	C859.339355,367.517242 859.339355,357.534729 859.339355,347.066193 
	C861.083435,346.958344 862.521301,346.725281 863.942139,346.802979 
	C889.397583,348.195709 914.851562,349.615265 940.304260,351.058167 
	C944.940430,351.321014 949.602966,356.191620 949.622864,360.913971 
	C949.719238,383.746521 949.774475,406.579376 949.787659,429.412109 
	C949.790955,435.096802 944.138916,440.783081 938.574890,440.942505 
	C925.248535,441.324249 911.924438,441.859131 898.595459,442.030304 
	C894.605103,442.081573 893.035217,443.215820 893.004700,447.399536 
	C892.946533,455.365662 892.336670,463.327759 891.932434,471.782806 
	C881.096558,472.678650 870.570435,473.548859 859.339355,474.477356 
	C859.339355,442.051147 859.339355,410.275452 859.339355,377.999756 
M894.738220,391.441162 
	C894.738220,398.531982 894.738220,405.622803 894.738220,413.330994 
	C901.725586,412.846375 908.593140,412.370087 915.659912,411.879944 
	C915.659912,399.931335 915.659912,388.425049 915.659912,376.543152 
	C908.772339,375.902039 902.218933,375.291992 894.758606,374.597565 
	C894.758606,380.257782 894.758606,385.358215 894.738220,391.441162 
z"/>
<path fill="#6AD3CC" opacity="1.000000" stroke="none" 
	d="
M753.430542,346.904144 
	C778.500916,348.302734 803.118591,349.666656 827.734009,351.070160 
	C832.007629,351.313873 836.851624,356.288513 836.864685,360.539764 
	C836.935852,383.701294 836.974121,406.863007 836.945374,430.024597 
	C836.939026,435.143951 831.223206,440.777740 826.177429,440.927185 
	C813.020630,441.316864 799.863403,441.694702 786.706848,442.093811 
	C784.904480,442.148529 783.104980,442.297821 780.764099,442.434967 
	C780.208923,452.306641 779.670532,461.879639 779.113708,471.779785 
	C768.297424,472.679779 757.901855,473.544769 747.104248,474.443207 
	C747.104248,431.716858 747.104248,389.494659 747.104248,346.882904 
	C749.096802,346.882904 751.036987,346.882904 753.430542,346.904144 
M789.255676,375.133301 
	C787.012451,375.133301 784.769287,375.133301 781.900635,375.133301 
	C781.900635,381.731171 781.900635,387.866669 781.900635,394.002167 
	C781.900635,400.256989 781.900635,406.511780 781.900635,413.391022 
	C789.212341,412.847229 796.055847,412.338257 803.184448,411.808105 
	C803.184448,403.012726 803.170044,394.863068 803.188232,386.713440 
	C803.210327,376.772430 803.221741,376.775482 793.630554,375.700043 
	C792.472656,375.570221 791.320740,375.385803 789.255676,375.133301 
z"/>
<path fill="#6AD3CC" opacity="1.000000" stroke="none" 
	d="
M862.443115,530.583496 
	C861.990540,537.186218 861.588196,543.325256 861.169006,549.721619 
	C851.066284,549.721619 841.297913,549.721619 831.017822,549.721619 
	C830.043457,543.982422 829.054077,538.154785 828.022766,532.080200 
	C820.664856,531.702759 813.584412,531.339539 806.826904,530.992859 
	C806.826904,557.580994 806.826904,583.652832 806.826904,610.161438 
	C814.418945,610.763000 821.165955,611.297607 828.339966,611.866028 
	C829.333923,606.047485 830.274536,600.541016 831.297852,594.550903 
	C841.131226,595.192871 850.710815,595.818237 861.108337,596.497009 
	C860.067566,608.129700 865.338989,619.923523 857.449036,630.489929 
	C856.289246,632.043335 853.995056,633.666748 852.203735,633.691895 
	C830.376099,633.998657 808.538940,634.288452 786.718201,633.864929 
	C782.445679,633.782043 778.168457,630.774231 774.050598,628.789307 
	C773.304565,628.429688 773.042358,626.485352 773.030579,625.268005 
	C772.689636,589.940430 772.266907,554.612061 772.314392,519.284424 
	C772.319824,515.258179 774.874878,511.173279 776.587158,507.264313 
	C776.924561,506.493988 778.828186,506.047760 780.003296,506.059814 
	C803.832336,506.303833 827.661316,506.587311 851.488098,506.990906 
	C856.587097,507.077271 863.334961,514.669006 863.092163,519.640503 
	C862.921448,523.135010 862.695007,526.626709 862.443115,530.583496 
z"/>
<path fill="#6AD2CB" opacity="1.000000" stroke="none" 
	d="
M739.609009,604.539185 
	C742.542969,604.766357 745.018738,604.949341 748.089539,605.176270 
	C748.703674,614.504395 749.310791,623.726685 749.942566,633.322571 
	C748.359924,633.510742 747.091187,633.791809 745.822144,633.793274 
	C722.830261,633.820251 699.837952,633.748779 676.846863,633.882812 
	C673.343750,633.903259 672.271851,632.808655 672.280273,629.330688 
	C672.377380,589.511597 672.340088,549.692261 672.357544,509.872955 
	C672.358032,508.736084 672.567688,507.599243 672.755493,505.696472 
	C697.483398,506.474426 722.038818,507.246918 746.629456,508.020538 
	C746.629456,517.705750 746.629456,527.114502 746.629456,536.967468 
	C732.689148,536.967468 719.293213,536.967468 705.557007,536.967468 
	C705.557007,542.318909 705.557007,547.228210 705.557007,552.720154 
	C714.119995,553.313660 722.664795,553.905884 731.539673,554.520996 
	C731.539673,563.707642 731.539673,572.589355 731.539673,582.200989 
	C722.842163,581.762817 714.292725,581.332092 705.367615,580.882507 
	C705.367615,588.203430 705.367615,595.114746 705.367615,602.587769 
	C716.630920,603.223633 727.890930,603.859314 739.609009,604.539185 
z"/>
<path fill="#6AD2CC" opacity="1.000000" stroke="none" 
	d="
M1148.875488,402.508148 
	C1148.902344,385.723846 1149.002563,369.400543 1149.098267,353.077271 
	C1149.110840,350.944946 1149.100220,348.812469 1149.100220,345.696930 
	C1174.171875,346.479950 1198.705444,347.246185 1223.339233,348.015564 
	C1223.339233,357.819885 1223.339233,367.209351 1223.339233,376.938354 
	C1209.434204,376.938354 1196.168701,376.938354 1182.456299,376.938354 
	C1182.456299,382.293030 1182.456299,387.314423 1182.456299,392.804565 
	C1189.698364,393.243896 1196.802124,393.847900 1203.916626,394.034943 
	C1207.593384,394.131561 1208.848755,395.503601 1208.745483,399.142029 
	C1208.533936,406.592224 1208.682007,414.052673 1208.682007,422.211151 
	C1199.553955,421.759369 1191.152954,421.343567 1181.884277,420.884796 
	C1181.884277,427.584198 1181.660645,433.865204 1182.102051,440.099121 
	C1182.176514,441.150757 1185.069092,442.709198 1186.745361,442.828400 
	C1199.201294,443.714172 1211.678833,444.295685 1224.831177,445.009705 
	C1225.393555,453.983551 1226.043091,462.725586 1226.305664,471.479218 
	C1226.327759,472.216339 1223.768066,473.679443 1222.385620,473.707397 
	C1211.557983,473.926544 1200.724731,473.877441 1189.431641,474.010742 
	C1175.881836,474.110443 1162.793457,474.110443 1148.947754,474.110443 
	C1148.947754,449.783936 1148.947754,426.376556 1148.875488,402.508148 
z"/>
<path fill="#6AD3CC" opacity="1.000000" stroke="none" 
	d="
M945.276855,571.932617 
	C945.276855,575.533875 945.276855,578.648560 945.276855,582.234070 
	C936.185547,581.766968 927.777832,581.335022 918.571106,580.862061 
	C918.571106,587.692993 918.378967,593.980896 918.770020,600.232361 
	C918.831421,601.214661 921.487183,602.703918 923.027588,602.817688 
	C934.322937,603.651733 945.640198,604.187073 956.949280,604.839233 
	C958.407654,604.923340 959.858521,605.137085 961.672424,605.328735 
	C962.227356,614.646484 962.768677,623.737061 963.340088,633.332275 
	C937.529663,633.332275 912.170471,633.332275 886.387268,633.332275 
	C886.387268,591.090454 886.387268,548.740295 886.387268,505.691986 
	C911.077576,506.477081 935.635620,507.257996 960.232422,508.040100 
	C960.232422,517.834045 960.232422,527.237732 960.232422,537.077698 
	C946.230530,537.077698 932.821228,537.077698 919.142212,537.077698 
	C919.142212,542.435791 919.142212,547.353760 919.142212,552.754028 
	C927.670837,553.329102 936.083069,553.896362 945.276917,554.516296 
	C945.276917,560.245117 945.276917,565.845581 945.276855,571.932617 
z"/>
<path fill="#6AD2CC" opacity="1.000000" stroke="none" 
	d="
M1043.847900,526.950317 
	C1043.845581,519.841553 1043.845581,513.222839 1043.845581,506.401855 
	C1073.849731,506.401855 1103.291504,506.401855 1132.606445,506.401855 
	C1132.606445,516.736877 1132.606445,526.923767 1132.606445,537.472900 
	C1123.604736,537.922424 1115.521606,538.326172 1106.909424,538.756287 
	C1106.595947,545.437500 1106.257568,551.714111 1106.014648,557.994446 
	C1105.132446,580.803650 1104.183838,603.611206 1103.510132,626.426819 
	C1103.388184,630.556641 1101.868530,631.736023 1097.969482,631.971069 
	C1088.848633,632.520935 1079.755737,633.533569 1069.867554,634.429871 
	C1069.867554,632.123718 1069.856079,630.207458 1069.869263,628.291382 
	C1070.062744,600.297363 1070.163208,572.302002 1070.553589,544.310669 
	C1070.615845,539.846130 1069.485718,538.056946 1064.842651,538.084656 
	C1058.038330,538.125305 1051.230713,537.570618 1043.850098,537.244263 
	C1043.850098,533.688110 1043.850098,530.564270 1043.847900,526.950317 
z"/>
<path fill="#6AD2CC" opacity="1.000000" stroke="none" 
	d="
M1020.148682,506.883850 
	C1020.747864,507.886108 1021.217773,508.814178 1021.186951,509.725281 
	C1019.846008,549.348877 1018.462097,588.971069 1017.069092,628.592896 
	C1017.046753,629.229431 1016.846802,629.859741 1016.665710,630.838745 
	C1006.563232,631.931580 996.546143,633.015198 986.398193,634.112915 
	C986.398193,591.900574 986.398193,550.177612 986.398193,507.702850 
	C997.921997,507.391846 1008.853943,507.096802 1020.148682,506.883850 
z"/>
<path fill="#6AD3CC" opacity="1.000000" stroke="none" 
	d="
M1306.675049,545.768677 
	C1306.371582,549.174194 1306.121216,552.132080 1305.824341,555.639771 
	C1314.501831,556.450745 1322.742065,557.227478 1330.983765,557.989075 
	C1337.782959,558.617432 1344.589233,559.177246 1351.379028,559.893799 
	C1352.591553,560.021790 1354.465210,560.464661 1354.802002,561.274475 
	C1357.572021,567.933350 1362.505615,573.739807 1362.175903,581.636963 
	C1361.640747,594.452576 1361.519775,607.285156 1361.192139,620.109863 
	C1361.057861,625.365356 1353.729004,633.269714 1348.512573,633.341248 
	C1325.855225,633.651978 1303.195679,633.805664 1280.536499,633.947876 
	C1279.484985,633.954529 1277.784546,633.591614 1277.479736,632.911072 
	C1275.467041,628.418274 1272.388306,623.834656 1272.240967,619.198547 
	C1271.973145,610.774658 1273.543213,602.296753 1274.266602,593.834534 
	C1274.495483,591.155029 1275.717896,590.105469 1278.442993,590.177063 
	C1285.104004,590.352112 1291.772095,590.401978 1298.434814,590.315369 
	C1301.321777,590.277893 1302.505615,591.381470 1302.981201,594.258606 
	C1304.714966,604.744995 1304.810303,604.692688 1315.369507,604.429688 
	C1319.664429,604.322632 1323.964111,604.412048 1328.757080,604.412048 
	C1329.096436,597.414429 1329.399414,591.166992 1329.735229,584.244507 
	C1320.795532,583.172546 1312.104492,582.103088 1303.406006,581.096191 
	C1296.789429,580.330383 1290.161011,579.667969 1283.542969,578.914246 
	C1278.973511,578.393799 1273.063232,571.899292 1273.123291,567.212830 
	C1273.328369,551.219299 1273.597778,535.226013 1273.960571,519.235352 
	C1274.073242,514.277466 1279.313354,509.239349 1284.147461,508.983337 
	C1300.616211,508.111237 1317.087646,506.517548 1333.549438,506.617523 
	C1341.629639,506.666595 1349.720459,509.720398 1357.722412,511.746338 
	C1358.694092,511.992340 1359.646484,514.275330 1359.745972,515.675537 
	C1360.277710,523.151001 1360.576538,530.644348 1360.873535,538.134766 
	C1361.067383,543.021973 1357.689453,547.165039 1352.799316,547.589539 
	C1346.995239,548.093445 1341.145508,548.440369 1335.336060,548.245605 
	C1333.949219,548.199097 1331.989014,545.968201 1331.408691,544.343323 
	C1328.221313,535.419373 1328.340576,535.377502 1319.123657,536.404236 
	C1317.799194,536.551758 1316.476807,536.750793 1315.147827,536.819275 
	C1305.983765,537.291809 1307.508545,536.887329 1306.675049,545.768677 
z"/>
<path fill="#6AD3CC" opacity="1.000000" stroke="none" 
	d="
M1816.973267,261.081726 
	C1824.840454,248.549194 1838.147095,243.131577 1851.045288,246.941589 
	C1864.185303,250.823074 1873.032593,262.483521 1872.971558,275.840027 
	C1872.911377,289.000763 1864.026611,301.147034 1851.310791,304.377441 
	C1839.256958,307.439697 1828.464233,304.866180 1820.200317,294.973907 
	C1811.910645,285.050903 1810.780640,272.955750 1816.973267,261.081726 
z"/>
<path fill="#06375E" opacity="1.000000" stroke="none" 
	d="
M670.967041,379.911926 
	C677.030701,379.412506 682.645813,378.942047 689.081665,378.402832 
	C689.081665,388.936554 689.081665,399.124756 689.081665,410.004547 
	C682.111145,409.560669 674.760193,409.092590 666.505249,408.566956 
	C667.049011,399.232269 667.540344,390.199280 668.200562,381.178589 
	C668.234802,380.712006 669.712769,380.351074 670.967041,379.911926 
z"/>
<path fill="#06375E" opacity="1.000000" stroke="none" 
	d="
M1214.362793,551.507568 
	C1214.380493,557.754517 1214.380493,563.535339 1214.380493,570.020264 
	C1207.121216,569.560242 1199.773438,569.094604 1191.545044,568.573181 
	C1192.034790,559.095032 1192.509155,549.914001 1193.011719,540.186646 
	C1199.907104,539.600159 1206.602661,539.030701 1214.345215,538.372131 
	C1214.345215,542.881226 1214.345215,546.961304 1214.362793,551.507568 
z"/>
<path fill="#05365D" opacity="1.000000" stroke="none" 
	d="
M594.629028,567.289673 
	C594.642700,556.076721 594.642700,545.303955 594.642700,533.630920 
	C601.845947,534.300476 608.053040,534.781494 614.220398,535.572693 
	C614.986450,535.670959 616.096497,537.408264 616.109009,538.397949 
	C616.245178,549.182800 616.194214,559.970032 616.194214,571.319336 
	C608.893799,571.895996 602.030640,572.438171 594.615417,573.023926 
	C594.615417,570.962646 594.615417,569.346252 594.629028,567.289673 
z"/>
<path fill="#05365D" opacity="1.000000" stroke="none" 
	d="
M1089.364746,382.726379 
	C1093.159302,383.209015 1094.351929,384.873474 1094.240845,388.471527 
	C1093.721191,405.288971 1093.424805,422.115204 1093.267578,438.940338 
	C1093.236328,442.281464 1092.092529,443.577454 1088.864258,444.134918 
	C1083.140991,445.123322 1077.498413,446.580170 1070.829590,448.061432 
	C1070.829590,424.486115 1070.829590,401.315979 1070.829590,377.454071 
	C1076.652588,379.108429 1082.810669,380.857971 1089.364746,382.726379 
z"/>
<path fill="#05365D" opacity="1.000000" stroke="none" 
	d="
M894.748413,390.949921 
	C894.758606,385.358215 894.758606,380.257782 894.758606,374.597565 
	C902.218933,375.291992 908.772339,375.902039 915.659912,376.543152 
	C915.659912,388.425049 915.659912,399.931335 915.659912,411.879944 
	C908.593140,412.370087 901.725586,412.846375 894.738220,413.330994 
	C894.738220,405.622803 894.738220,398.531982 894.748413,390.949921 
z"/>
<path fill="#05365D" opacity="1.000000" stroke="none" 
	d="
M789.710876,375.179993 
	C791.320740,375.385803 792.472656,375.570221 793.630554,375.700043 
	C803.221741,376.775482 803.210327,376.772430 803.188232,386.713440 
	C803.170044,394.863068 803.184448,403.012726 803.184448,411.808105 
	C796.055847,412.338257 789.212341,412.847229 781.900635,413.391022 
	C781.900635,406.511780 781.900635,400.256989 781.900635,394.002167 
	C781.900635,387.866669 781.900635,381.731171 781.900635,375.133301 
	C784.769287,375.133301 787.012451,375.133301 789.710876,375.179993 
z"/>
</svg>