<svg version="1.1" id="Layer_1" xmlns="http://www.w3.org/2000/svg" xmlns:xlink="http://www.w3.org/1999/xlink" x="0px" y="0px"
	 width="100%" viewBox="0 0 1920 1080" enable-background="new 0 0 1920 1080" xml:space="preserve">
<path fill="#191919" opacity="1.000000" stroke="none" 
	d="
M1117.000000,1081.000000 
	C744.666748,1081.000000 372.833466,1081.000000 1.000150,1081.000000 
	C1.000100,721.000122 1.000100,361.000275 1.000050,1.000295 
	C640.999756,1.000196 1280.999512,1.000196 1920.999512,1.000098 
	C1920.999634,360.999664 1920.999634,720.999329 1920.999756,1080.999512 
	C1653.166626,1081.000000 1385.333374,1081.000000 1117.000000,1081.000000 
M1273.081299,663.863342 
	C1264.165527,680.921082 1260.824829,699.206726 1263.303101,718.094971 
	C1269.280029,763.648438 1309.818848,801.008484 1363.196289,794.738586 
	C1412.919556,788.897949 1447.856567,740.748108 1439.119019,691.301636 
	C1427.507690,625.591248 1351.053955,595.327148 1297.873535,635.863770 
	C1289.669434,642.117371 1283.288696,650.763123 1275.439819,657.880798 
	C1274.722534,657.484070 1273.984497,656.724487 1273.291992,656.763733 
	C1271.697388,656.854370 1270.124878,657.333313 1268.543335,657.654663 
	C1269.342163,659.164551 1270.018921,660.760925 1270.998413,662.142822 
	C1271.402344,662.712708 1272.456543,662.821777 1273.081299,663.863342 
M649.854370,663.519653 
	C652.193298,662.561829 654.532227,661.604004 656.871155,660.646179 
	C656.162170,659.491760 655.558533,657.441528 654.725403,657.343567 
	C651.714722,656.989624 649.204346,658.091675 648.614380,661.588684 
	C648.588867,661.739502 648.441956,661.869873 647.835327,662.712891 
	C646.941772,661.765015 645.971924,660.877502 645.165649,659.860413 
	C622.038940,630.687866 591.897217,618.583862 555.496643,625.786621 
	C509.802643,634.828369 480.325714,676.541931 485.120850,723.013306 
	C490.234131,772.568298 538.446777,809.031433 587.820007,800.684692 
	C649.473694,790.261841 681.572632,722.447571 650.630737,668.044678 
	C649.893738,666.748901 649.578918,665.213013 649.854370,663.519653 
M1159.788696,438.872437 
	C1160.406006,438.642456 1161.271729,438.593506 1161.595337,438.149536 
	C1162.686401,436.652283 1163.584717,435.014618 1164.556641,433.430634 
	C1162.666382,433.246643 1160.773193,432.919464 1158.887207,432.956390 
	C1158.227905,432.969299 1157.586060,433.878845 1156.291870,434.057587 
	C1110.366699,351.866882 1016.623413,305.024689 919.951111,324.245667 
	C851.086060,337.937866 799.953308,376.853149 765.949341,438.307434 
	C764.358215,441.183105 761.755798,443.487427 759.761719,446.160278 
	C759.261414,446.830872 759.256348,447.891998 759.089661,448.785980 
	C758.706604,450.839813 758.741394,453.060425 757.949524,454.935913 
	C742.718018,491.010742 737.308228,528.601257 742.100403,567.335449 
	C744.047974,583.077393 748.656067,598.490234 751.406189,614.342407 
	C749.172791,615.970215 744.004822,615.786011 745.756775,619.986572 
	C747.753357,624.773682 751.206970,620.246826 754.564575,620.366455 
	C793.717468,719.364929 889.486877,776.731384 994.402771,761.431458 
	C1068.105347,750.683411 1122.802246,710.536194 1158.760254,645.239319 
	C1163.302124,636.991455 1166.852295,628.197388 1171.554321,619.962646 
	C1172.464478,620.337769 1173.404053,621.079773 1174.278442,621.009460 
	C1175.945435,620.875549 1177.574951,620.278076 1179.220093,619.873108 
	C1178.285156,618.394775 1177.554443,616.711670 1176.346191,615.507568 
	C1175.488647,614.652771 1173.987061,614.444214 1172.736450,613.158691 
	C1173.013550,612.203308 1173.264771,611.239563 1173.571533,610.293762 
	C1182.834717,581.743042 1185.776001,552.487061 1183.364502,522.632446 
	C1180.978149,493.087097 1172.515991,465.305664 1159.788696,438.872437 
M659.439026,392.875305 
	C662.956360,380.984314 663.290649,368.731110 661.567932,356.703064 
	C654.825134,309.624878 613.147522,279.927643 572.677979,280.615997 
	C518.359558,281.539917 476.899017,330.222656 485.744751,383.867676 
	C492.576233,425.297150 527.120605,454.647186 564.546326,457.979279 
	C614.254517,462.404877 649.636414,429.155762 659.439026,392.875305 
M1306.406494,446.113953 
	C1326.540283,458.193665 1348.347168,461.285522 1370.909546,456.244324 
	C1418.217041,445.674255 1447.830811,401.077606 1438.746216,352.972931 
	C1432.119751,317.884766 1410.550049,294.210602 1376.351562,284.311707 
	C1342.659912,274.559570 1312.249512,282.661713 1287.443604,307.911346 
	C1248.473633,347.578735 1255.762207,415.830505 1306.406494,446.113953 
M1197.552002,419.125397 
	C1194.626831,417.288177 1189.147827,418.132416 1187.968628,421.047180 
	C1187.551392,422.078522 1189.481079,425.274963 1189.796631,425.199951 
	C1193.071533,424.421692 1197.343384,424.754028 1197.552002,419.125397 
M698.635925,637.249634 
	C697.819336,638.801819 695.910522,640.972046 696.377808,641.797791 
	C698.266602,645.135925 701.116577,643.025635 703.195068,641.803223 
	C704.543091,641.010559 705.167480,638.987427 706.116089,637.515625 
	C705.086304,636.890137 704.078613,635.810547 703.020935,635.759155 
	C701.813538,635.700500 700.561707,636.557495 698.635925,637.249634 
M717.947937,426.648346 
	C716.155884,425.795380 714.404358,424.409363 712.558044,424.268738 
	C711.231812,424.167755 709.778870,425.730164 708.382446,426.550507 
	C709.057129,427.620422 709.497742,429.243927 710.453918,429.648254 
	C712.633057,430.569733 715.053162,430.994904 717.416321,431.270203 
	C717.608521,431.292603 718.113525,428.629822 717.947937,426.648346 
M1179.578613,424.961945 
	C1177.116333,425.713287 1174.452393,426.127258 1172.306763,427.408752 
	C1171.606934,427.826752 1172.257568,430.505890 1172.290527,432.150848 
	C1174.740356,431.519653 1177.416992,431.281708 1179.529053,430.064392 
	C1180.377319,429.575470 1179.986084,426.935547 1179.578613,424.961945 
M688.655396,643.212952 
	C685.917847,643.965576 683.069702,644.480103 680.530640,645.659912 
	C679.985229,645.913391 680.557068,648.571350 680.614258,650.121704 
	C683.038208,649.608582 685.689087,649.519409 687.786621,648.396484 
	C688.778381,647.865540 688.710510,645.355286 688.655396,643.212952 
M1235.100708,645.269165 
	C1237.495239,646.822449 1239.803345,648.568359 1242.376343,649.724365 
	C1242.768921,649.900757 1244.387573,647.348145 1245.439087,646.057739 
	C1243.397461,644.766602 1241.486694,643.033264 1239.258179,642.373962 
	C1238.170410,642.052185 1236.490479,643.732117 1235.100708,645.269165 
M1214.172974,412.716888 
	C1212.798340,412.030670 1211.154175,410.499023 1210.104980,410.833466 
	C1207.891724,411.538971 1205.990112,413.221375 1203.960571,414.502960 
	C1204.907837,415.722076 1206.429810,418.115723 1206.712891,417.977234 
	C1209.324951,416.699402 1211.722900,414.983948 1214.172974,412.716888 
M1220.457153,407.053131 
	C1219.824463,409.857178 1221.347168,411.678741 1223.750732,410.832123 
	C1226.370972,409.909149 1228.508057,407.615082 1230.855835,405.918732 
	C1229.382935,405.094391 1227.808960,403.466736 1226.461182,403.636414 
	C1224.504028,403.882751 1222.710205,405.426239 1220.457153,407.053131 
M722.599426,630.053101 
	C719.712402,628.261536 714.173218,629.099304 713.005371,631.933899 
	C712.595886,632.927795 714.399170,636.038147 714.788757,635.967224 
	C718.117004,635.361328 722.276855,635.616333 722.599426,630.053101 
M1212.344849,631.943970 
	C1210.130127,630.644043 1208.028564,628.950867 1205.637817,628.262817 
	C1204.828979,628.030029 1203.288208,630.339966 1202.081909,631.487854 
	C1204.382568,632.915344 1206.566284,634.665466 1209.057007,635.568909 
	C1209.780762,635.831360 1211.382935,633.672058 1212.344849,631.943970 
M725.126160,432.691040 
	C725.625061,436.059631 730.692993,439.975494 733.287720,438.569611 
	C734.307251,438.017242 735.075439,434.487640 734.648438,434.189545 
	C732.012146,432.348877 729.350830,429.407227 725.126160,432.691040 
M1253.753418,392.244232 
	C1254.113281,393.632599 1254.473145,395.020966 1254.833008,396.409302 
	C1257.395996,395.655212 1260.058838,395.119598 1262.463135,394.018860 
	C1263.220703,393.672058 1263.937744,391.364197 1263.514893,390.744904 
	C1262.858643,389.783997 1261.072266,388.847412 1260.010986,389.070587 
	C1257.991211,389.495453 1256.145386,390.747192 1253.753418,392.244232 
M1239.756836,403.954803 
	C1241.745850,403.161377 1244.062744,402.749695 1245.599854,401.429871 
	C1246.507935,400.650238 1246.182007,398.433502 1246.411133,396.863007 
	C1243.554443,397.489960 1240.315674,397.488068 1237.950562,398.924438 
	C1235.678833,400.304077 1236.531250,402.654602 1239.756836,403.954803 
M667.583923,410.369904 
	C668.076660,409.134766 669.229187,407.007935 668.957031,406.806580 
	C666.910645,405.292358 664.671082,403.922668 662.294678,403.037048 
	C661.512695,402.745575 659.587036,403.769379 659.210632,404.637024 
	C658.835449,405.501831 659.392273,407.539001 660.163574,407.985138 
	C662.245728,409.189545 664.659424,409.820801 667.583923,410.369904 
M1256.098877,649.340332 
	C1254.672729,650.001343 1253.246704,650.662415 1251.820557,651.323486 
	C1252.634033,652.588501 1253.299805,653.993469 1254.315674,655.067017 
	C1254.941772,655.728821 1256.134399,656.262756 1257.015747,656.187500 
	C1258.700073,656.043762 1260.343872,655.424011 1262.004395,655.001892 
	C1261.165771,653.626465 1260.476440,652.120178 1259.430420,650.926453 
	C1258.838501,650.251038 1257.660767,650.088989 1256.098877,649.340332 
M737.927979,626.761902 
	C738.197998,625.284851 738.467957,623.807739 738.737915,622.330688 
	C737.393799,622.119141 735.833984,621.369385 734.748962,621.804260 
	C732.224854,622.815918 727.653564,623.156311 729.249573,627.190247 
	C730.915283,631.400024 734.219666,628.075623 736.804504,627.246460 
	C736.962158,627.195862 737.115234,627.131104 737.927979,626.761902 
M693.706482,422.649658 
	C694.927124,423.158752 696.134155,424.038086 697.371765,424.083313 
	C698.924072,424.140076 700.501465,423.512848 702.067993,423.180817 
	C701.237183,421.654846 700.559326,420.010986 699.511963,418.651947 
	C698.976013,417.956512 697.800781,417.495148 696.874634,417.420105 
	C695.503784,417.309082 693.293091,417.180603 692.895264,417.883362 
	C692.301636,418.932098 692.975098,420.698059 693.706482,422.649658 
M751.439758,444.852448 
	C751.093811,443.300323 751.226685,440.877808 750.305603,440.371033 
	C748.159119,439.190002 745.505432,438.930908 743.057190,438.298340 
	C742.820679,439.845886 742.068054,442.593689 742.430054,442.749268 
	C745.096924,443.895935 747.986206,444.525146 751.439758,444.852448 
M1195.352905,627.726807 
	C1194.999634,626.185669 1195.105957,623.743225 1194.201904,623.282349 
	C1192.009277,622.164246 1189.346436,621.968323 1186.873047,621.400818 
	C1186.776367,622.964905 1186.170410,625.679016 1186.668579,625.899658 
	C1189.207397,627.024170 1192.031982,627.503906 1195.352905,627.726807 
M680.471069,417.037048 
	C682.246704,416.578552 685.341675,416.469849 685.571960,415.601562 
	C686.626221,411.625793 682.760498,411.333954 680.400330,410.569946 
	C679.042786,410.130554 677.114502,411.279144 675.549316,411.957916 
	C675.410156,412.018250 675.764771,414.166443 676.411682,414.854797 
	C677.258850,415.756317 678.625061,416.170013 680.471069,417.037048 
M671.177368,655.926270 
	C671.694702,654.291321 672.212036,652.656433 672.729370,651.021484 
	C670.154541,651.342896 667.458618,651.317139 665.063416,652.153198 
	C664.077942,652.497131 663.739990,654.695984 663.107483,656.051086 
	C664.349182,656.602295 665.584106,657.565918 666.834595,657.586670 
	C668.038391,657.606689 669.258423,656.651794 671.177368,655.926270 
M1219.120239,636.166382 
	C1217.403320,641.764526 1222.547119,641.184692 1225.209106,642.528687 
	C1225.955444,642.905579 1227.702026,641.301208 1228.989868,640.605652 
	C1227.119751,638.875854 1225.390869,636.938477 1223.308716,635.520020 
	C1222.495239,634.965820 1220.887329,635.577576 1219.120239,636.166382 
z"/>
<path fill="#86EAE9" opacity="1.000000" stroke="none" 
	d="
M1170.862061,619.656372 
	C1166.852295,628.197388 1163.302124,636.991455 1158.760254,645.239319 
	C1122.802246,710.536194 1068.105347,750.683411 994.402771,761.431458 
	C889.486877,776.731384 793.717468,719.364929 754.270630,619.764465 
	C753.335693,617.459229 752.694641,615.756042 752.053650,614.052795 
	C748.656067,598.490234 744.047974,583.077393 742.100403,567.335449 
	C737.308228,528.601257 742.718018,491.010742 757.949524,454.935913 
	C758.741394,453.060425 758.706604,450.839813 759.089661,448.785980 
	C759.256348,447.891998 759.261414,446.830872 759.761719,446.160278 
	C761.755798,443.487427 764.358215,441.183105 765.949341,438.307434 
	C799.953308,376.853149 851.086060,337.937866 919.951111,324.245667 
	C1016.623413,305.024689 1110.366699,351.866882 1156.697998,434.523376 
	C1157.762573,436.315399 1158.421143,437.641632 1159.079712,438.967896 
	C1172.515991,465.305664 1180.978149,493.087097 1183.364502,522.632446 
	C1185.776001,552.487061 1182.834717,581.743042 1173.571533,610.293762 
	C1173.264771,611.239563 1173.013550,612.203308 1172.517822,613.793030 
	C1171.820068,616.170349 1171.341064,617.913330 1170.862061,619.656372 
M995.903015,449.057983 
	C985.746582,449.105804 975.590149,449.148987 965.433716,449.203033 
	C958.367798,449.240631 957.220581,450.419617 957.287659,457.737213 
	C957.429626,473.221161 957.605103,488.704773 957.764221,504.188538 
	C957.824341,510.037384 959.801147,512.008789 965.906616,512.023438 
	C974.730896,512.044617 983.555481,511.966339 992.379944,511.927765 
	C999.197449,511.897980 1001.000732,510.106842 1001.102783,503.113983 
	C1001.326416,487.797638 1001.437134,472.479065 1001.772339,457.165283 
	C1001.859497,453.180725 1000.540161,450.471832 995.903015,449.057983 
M942.682068,568.589600 
	C942.600220,566.093445 942.627808,563.587891 942.412354,561.103271 
	C942.034790,556.749512 938.072876,552.099792 934.804016,552.228821 
	C925.322205,552.602905 915.845520,553.105591 906.364563,553.504028 
	C902.001038,553.687439 900.259094,556.197632 900.091553,560.234070 
	C899.394470,577.034302 898.688171,593.834229 898.015259,610.635437 
	C897.958679,612.047913 898.125000,613.469299 898.180786,614.728882 
	C903.293762,614.728882 907.916077,614.728882 912.863464,614.728882 
	C913.376526,608.587158 913.869263,602.688721 914.405457,596.269226 
	C918.498840,596.088989 922.400269,595.917175 927.071045,595.711548 
	C927.071045,602.387024 927.071045,608.607178 927.071045,614.729248 
	C932.916382,614.729248 938.008423,614.729248 942.714966,614.729248 
	C942.714966,599.448059 942.714966,584.506287 942.682068,568.589600 
M1048.220459,479.008148 
	C1042.127686,479.008148 1036.034912,479.008148 1030.117310,479.008148 
	C1030.117310,483.416107 1030.117310,487.171143 1030.117310,490.863739 
	C1031.858765,491.289612 1033.282349,491.637756 1034.556885,491.949463 
	C1034.556885,494.413269 1034.556885,496.636261 1034.556885,499.162445 
	C1030.849487,498.888794 1027.582520,498.647644 1024.032349,498.385590 
	C1024.032349,486.374054 1024.032349,474.797180 1024.032349,462.853210 
	C1027.648071,462.652679 1031.017212,462.465790 1034.538574,462.270477 
	C1034.837402,464.528229 1034.708130,466.323029 1035.376465,467.742188 
	C1035.932251,468.922607 1037.361450,470.361969 1038.515137,470.467468 
	C1042.274536,470.811127 1046.084839,470.596191 1050.409424,470.596191 
	C1050.689697,465.701141 1050.956421,461.259277 1051.195312,456.815887 
	C1051.477295,451.572693 1048.993408,448.938873 1043.580811,449.004242 
	C1033.756348,449.122925 1023.932617,449.329285 1014.110107,449.563904 
	C1008.156982,449.706146 1007.032715,450.923981 1007.064453,457.114502 
	C1007.143799,472.602264 1007.257568,488.089874 1007.371033,503.577423 
	C1007.418152,510.010376 1009.418579,511.964478 1016.114014,511.915405 
	C1025.106567,511.849487 1034.120239,511.248444 1043.082764,511.704956 
	C1049.306152,512.021912 1050.942383,508.016998 1051.019287,503.458160 
	C1051.137085,496.466675 1051.038574,489.467865 1050.831665,482.478088 
	C1050.797241,481.313843 1049.746826,480.179657 1048.220459,479.008148 
M874.520264,511.910248 
	C882.170776,511.677185 889.875244,511.894440 897.444763,510.986359 
	C900.414124,510.630127 905.522949,507.677002 905.471680,506.037323 
	C905.222290,498.053284 909.179016,489.529663 903.392456,482.035736 
	C903.033997,481.571625 902.887634,480.818176 902.906616,480.207520 
	C903.119995,473.339783 904.006836,466.413483 903.351196,459.634613 
	C903.061462,456.639130 899.934814,451.755188 897.647034,451.481476 
	C886.339233,450.128448 874.881226,450.030823 863.056946,449.470581 
	C863.056946,470.584351 863.056946,491.145569 863.056946,511.928406 
	C866.599487,511.928406 870.065796,511.928406 874.520264,511.910248 
M949.045898,555.876465 
	C949.045898,575.491333 949.045898,595.106201 949.045898,615.220764 
	C954.658875,614.732361 959.707336,614.293030 964.828674,613.847351 
	C965.217712,608.869873 965.576233,604.282837 966.001953,598.835571 
	C973.014221,598.835571 979.651550,598.913025 986.286011,598.810608 
	C991.416931,598.731323 993.370605,596.654358 993.375061,591.444336 
	C993.383728,581.445618 993.194580,571.444946 993.346375,561.449036 
	C993.415894,556.874512 991.584839,554.682861 987.017822,554.449036 
	C975.370544,553.852722 963.731750,553.077148 952.080627,552.590027 
	C951.104614,552.549255 950.060547,554.136475 949.045898,555.876465 
M928.642639,483.492889 
	C928.642639,472.390076 928.642639,461.287231 928.642639,449.975403 
	C923.336304,449.631653 918.087708,449.291626 912.359497,448.920532 
	C912.359497,470.138092 912.359497,490.848358 912.359497,511.770294 
	C925.384033,511.770294 938.436401,511.770294 951.740540,511.770294 
	C951.101318,506.751556 950.501526,502.042053 949.847534,496.906952 
	C942.549561,496.906952 935.605408,496.906952 928.620422,496.906952 
	C928.620422,492.448242 928.620422,488.470093 928.642639,483.492889 
M999.114624,568.504578 
	C999.114624,583.929321 999.114624,599.354126 999.114624,615.063538 
	C1004.293274,614.486084 1009.035339,613.957275 1014.232239,613.377747 
	C1014.930115,593.025208 1015.617676,572.973450 1016.301575,553.029419 
	C1010.298279,553.029419 1004.923889,553.029419 999.119873,553.029419 
	C999.119873,558.232361 999.119873,562.869629 999.114624,568.504578 
z"/>
<path fill="#3EDAD8" opacity="1.000000" stroke="none" 
	d="
M659.311890,393.261414 
	C649.636414,429.155762 614.254517,462.404877 564.546326,457.979279 
	C527.120605,454.647186 492.576233,425.297150 485.744751,383.867676 
	C476.899017,330.222656 518.359558,281.539917 572.677979,280.615997 
	C613.147522,279.927643 654.825134,309.624878 661.567932,356.703064 
	C663.290649,368.731110 662.956360,380.984314 659.311890,393.261414 
M550.511169,377.089661 
	C549.657715,374.192688 548.079834,371.263885 548.205200,368.409882 
	C548.289124,366.501923 550.462830,363.868439 552.325928,363.124969 
	C553.716980,362.569946 556.110596,364.507935 558.049988,365.353516 
	C559.450989,365.964294 560.839233,366.604156 562.898071,367.530090 
	C561.389221,360.704163 557.480286,358.148895 551.716064,359.167542 
	C545.631104,360.242859 542.072571,365.897980 543.125000,372.820129 
	C543.994690,378.540314 548.636780,382.268311 553.973267,381.502106 
	C556.788940,381.097809 559.597168,380.641541 562.525146,380.190796 
	C562.525146,377.134003 562.525146,373.738861 562.525146,370.269836 
	C559.539795,370.269836 556.942932,370.269836 554.346008,370.269836 
	C554.103882,370.652893 553.861755,371.035980 553.619629,371.419037 
	C554.945007,372.557373 556.270447,373.695709 557.874268,375.073212 
	C556.627502,378.019165 554.254150,378.581482 550.511169,377.089661 
M581.067322,371.993958 
	C581.665161,371.226624 582.263000,370.459290 582.860901,369.691956 
	C581.902405,369.238647 580.970886,368.481506 579.979980,368.393738 
	C577.755066,368.196686 575.500793,368.332031 572.842163,368.332031 
	C573.082886,366.009064 573.226318,364.624573 573.397095,362.976837 
	C576.452698,362.976837 579.122681,363.157257 581.737305,362.856293 
	C582.434570,362.776031 582.962219,361.222015 583.567749,360.344574 
	C580.368530,359.998138 577.172974,359.442383 573.968689,359.386658 
	C572.154053,359.355072 570.320068,360.124664 568.512695,360.601257 
	C568.372498,360.638214 568.318359,361.212128 568.317810,361.536621 
	C568.306763,367.942749 568.309570,374.348907 568.309570,381.028748 
	C573.147705,381.028748 577.136841,381.143738 581.110352,380.946136 
	C582.078186,380.898010 582.994934,379.822937 583.935181,379.219971 
	C582.970032,378.601959 582.063416,377.608185 581.027100,377.446808 
	C579.073425,377.142517 577.042847,377.362122 575.048950,377.266968 
	C574.440491,377.237946 573.847229,376.891174 572.962341,376.594421 
	C573.093872,375.071960 573.213501,373.686462 573.357422,372.020752 
	C575.893372,372.020752 578.041016,372.020752 581.067322,371.993958 
M598.326294,379.788849 
	C598.326294,374.367767 598.326294,368.946655 598.326294,363.337280 
	C600.154175,363.178711 601.169312,363.257294 602.069275,362.972137 
	C603.309021,362.579346 604.461792,361.911804 605.651794,361.361938 
	C604.406616,360.676758 603.192444,359.478302 601.910583,359.400940 
	C597.768555,359.150970 593.591980,359.159882 589.450867,359.420624 
	C588.367493,359.488831 587.364563,360.833435 586.324646,361.591827 
	C586.614380,361.991028 586.904053,362.390198 587.193787,362.789398 
	C589.288330,362.950714 591.382874,363.112030 593.961853,363.310638 
	C593.961853,368.152893 594.064819,372.774963 593.925842,377.389709 
	C593.832642,380.483704 594.735596,381.885223 598.326294,379.788849 
z"/>
<path fill="#2C92D5" opacity="1.000000" stroke="none" 
	d="
M1306.085938,445.941040 
	C1255.762207,415.830505 1248.473633,347.578735 1287.443604,307.911346 
	C1312.249512,282.661713 1342.659912,274.559570 1376.351562,284.311707 
	C1410.550049,294.210602 1432.119751,317.884766 1438.746216,352.972931 
	C1447.830811,401.077606 1418.217041,445.674255 1370.909546,456.244324 
	C1348.347168,461.285522 1326.540283,458.193665 1306.085938,445.941040 
M1360.314087,378.407074 
	C1360.490601,373.780701 1360.804688,369.152344 1360.739380,364.529388 
	C1360.724609,363.481415 1359.393433,362.452057 1358.668335,361.414154 
	C1357.846191,362.523926 1356.433228,363.574341 1356.314819,364.754761 
	C1355.984741,368.041382 1356.185303,371.381989 1356.189331,374.701263 
	C1356.192871,377.683136 1355.403442,380.004425 1351.817261,380.029999 
	C1348.176880,380.055969 1347.470703,377.544739 1347.375122,374.692566 
	C1347.263916,371.376740 1347.253540,368.052612 1347.347656,364.736298 
	C1347.445679,361.282440 1345.930542,360.807678 1342.961548,362.087952 
	C1342.961548,366.050537 1343.057495,369.861084 1342.935547,373.664673 
	C1342.804688,377.742523 1343.355225,381.360474 1347.833252,382.939484 
	C1352.520508,384.592194 1356.940796,383.214111 1360.314087,378.407074 
M1338.930298,370.052612 
	C1339.006348,362.025513 1334.194824,359.583740 1322.680176,362.153992 
	C1322.680176,368.137909 1322.524536,374.242798 1322.824707,380.325195 
	C1322.878296,381.410370 1324.821045,382.402283 1325.891479,383.437256 
	C1326.328125,383.048340 1326.764771,382.659424 1327.201416,382.270477 
	C1327.201416,380.006622 1327.201416,377.742767 1327.201416,375.478912 
	C1327.519653,375.839874 1327.837891,376.200836 1328.156128,376.561798 
	C1331.674561,374.651123 1335.192993,372.740479 1338.930298,370.052612 
M1366.121338,361.335907 
	C1365.452271,362.073303 1364.783203,362.810730 1364.114136,363.548187 
	C1366.388672,364.350769 1368.663208,365.153381 1371.221436,366.056091 
	C1371.221436,370.338287 1371.328125,374.804382 1371.186401,379.262573 
	C1371.079712,382.617950 1372.243286,383.847168 1376.061035,382.391846 
	C1376.061035,376.784790 1376.061035,371.075897 1376.061035,365.296448 
	C1378.690674,365.083282 1380.777100,364.914154 1382.863647,364.745026 
	C1383.063354,364.238770 1383.263184,363.732513 1383.463013,363.226227 
	C1382.281616,362.585175 1381.126099,361.454956 1379.914307,361.391266 
	C1375.621094,361.165558 1371.308960,361.304169 1366.121338,361.335907 
z"/>
<path fill="#37C9EE" opacity="1.000000" stroke="none" 
	d="
M649.067139,663.789124 
	C649.578918,665.213013 649.893738,666.748901 650.630737,668.044678 
	C681.572632,722.447571 649.473694,790.261841 587.820007,800.684692 
	C538.446777,809.031433 490.234131,772.568298 485.120850,723.013306 
	C480.325714,676.541931 509.802643,634.828369 555.496643,625.786621 
	C591.897217,618.583862 622.038940,630.687866 645.165649,659.860413 
	C645.971924,660.877502 646.941772,661.765015 648.030151,662.377563 
	C648.224915,662.042175 648.129883,661.952454 647.735413,662.185974 
	C647.940063,662.934814 648.539246,663.450134 649.078613,663.938354 
	C649.018860,663.911255 649.067139,663.789124 649.067139,663.789124 
M557.174744,722.415894 
	C561.720276,725.380554 566.373840,725.505676 570.642822,722.174011 
	C574.684875,719.019470 574.898376,714.423523 573.891541,709.834290 
	C572.926697,705.436340 569.816040,702.988403 565.489685,702.377258 
	C561.033020,701.747681 557.209961,703.117188 554.773132,707.156128 
	C552.025940,711.709412 552.729065,717.000427 557.174744,722.415894 
M592.578369,704.997131 
	C589.535278,701.756775 585.775208,701.210144 582.188782,703.364502 
	C580.520569,704.366516 578.941467,706.917480 578.840332,708.846008 
	C578.605164,713.325500 582.580139,714.005310 585.872131,715.247131 
	C587.267883,715.773682 588.484070,717.030579 589.453125,718.222778 
	C589.650208,718.465210 588.304382,720.694275 587.786377,720.649841 
	C586.145813,720.508911 584.551086,719.751404 582.956543,719.182129 
	C581.440125,718.640564 579.946289,718.035767 577.516235,717.103394 
	C579.288330,723.779968 583.200684,724.789062 587.574158,724.453186 
	C591.107910,724.181946 594.198486,722.560425 594.435303,718.499207 
	C594.705811,713.861572 591.210266,712.388245 587.525818,711.310120 
	C587.206970,711.216797 586.796692,711.232544 586.578430,711.033630 
	C585.554565,710.100037 584.468628,709.190308 583.678345,708.077759 
	C583.496521,707.821777 584.428528,706.212891 584.786560,706.234619 
	C586.147644,706.317566 587.535767,706.682007 588.815613,707.188965 
	C590.363586,707.802185 591.812012,708.666748 593.303528,709.422546 
	C593.535767,709.065063 593.767944,708.707581 594.000183,708.350098 
	C593.669983,707.444519 593.339783,706.539001 592.578369,704.997131 
M548.445801,714.152710 
	C550.962219,711.485596 551.450012,708.178223 549.211487,705.569702 
	C545.129700,700.813293 539.541260,702.997498 534.363342,702.814636 
	C534.363342,710.129150 534.363342,716.868835 534.363342,723.769287 
	C541.628174,724.844177 537.075439,718.459290 539.862610,716.229553 
	C540.736145,716.176636 542.219788,716.226318 543.644958,715.961365 
	C545.077454,715.695007 546.451721,715.115479 548.445801,714.152710 
M604.184082,718.319275 
	C604.184082,720.094238 604.184082,721.869141 604.184082,723.617981 
	C608.707397,723.773499 608.778625,723.774597 608.832092,720.326294 
	C608.903198,715.742615 608.849609,711.156982 608.849609,706.400757 
	C610.482727,706.272522 611.502136,706.370300 612.394775,706.079102 
	C613.605103,705.684204 614.718262,704.991577 615.873047,704.426636 
	C614.752686,703.822144 613.655640,702.754150 612.507812,702.696411 
	C608.372253,702.488708 604.212646,702.491394 600.077942,702.711670 
	C598.959229,702.771240 597.896362,703.879211 596.807922,704.505920 
	C596.975281,704.893250 597.142639,705.280518 597.309998,705.667847 
	C599.511902,705.977844 601.713867,706.287903 604.184265,706.635681 
	C604.184265,710.430298 604.184265,713.901794 604.184082,718.319275 
z"/>
<path fill="#13538A" opacity="1.000000" stroke="none" 
	d="
M1276.064697,658.302612 
	C1283.288696,650.763123 1289.669434,642.117371 1297.873535,635.863770 
	C1351.053955,595.327148 1427.507690,625.591248 1439.119019,691.301636 
	C1447.856567,740.748108 1412.919556,788.897949 1363.196289,794.738586 
	C1309.818848,801.008484 1269.280029,763.648438 1263.303101,718.094971 
	C1260.824829,699.206726 1264.165527,680.921082 1273.437744,663.409485 
	C1274.551147,661.404602 1275.307861,659.853638 1276.064697,658.302612 
M1295.671143,696.432190 
	C1294.440430,697.269348 1292.187988,698.055603 1292.143555,698.951782 
	C1291.832642,705.199402 1291.979126,711.469788 1291.979126,717.954102 
	C1295.690796,717.954102 1298.847412,718.190857 1301.955078,717.902039 
	C1307.479980,717.388489 1310.916504,713.164734 1310.994751,707.238281 
	C1311.073120,701.301453 1308.209229,697.687744 1302.524658,696.792053 
	C1300.565674,696.483337 1298.548828,696.541565 1295.671143,696.432190 
M1360.968018,700.704041 
	C1363.724731,700.475159 1366.500854,700.370483 1369.226318,699.942932 
	C1370.063354,699.811646 1370.761597,698.796326 1371.523315,698.185791 
	C1370.878906,697.591187 1370.251465,696.504517 1369.587158,696.481384 
	C1365.173950,696.327759 1360.752808,696.401855 1356.446533,696.401855 
	C1356.446533,704.058838 1356.446533,710.944885 1356.446533,717.813477 
	C1361.759399,717.813477 1366.700317,717.813477 1372.757812,717.813477 
	C1369.735107,711.929932 1364.145020,716.286621 1361.041992,713.620972 
	C1361.041992,712.280701 1361.041992,710.869812 1361.041992,708.990234 
	C1364.374146,708.990234 1367.460205,708.990234 1370.674683,708.990234 
	C1371.126831,704.124756 1367.786011,705.608582 1365.743530,705.438293 
	C1363.183228,705.224854 1360.015015,706.092529 1360.968018,700.704041 
M1404.449707,705.384583 
	C1400.300659,705.286682 1402.171387,702.483521 1401.826904,700.019958 
	C1404.859863,700.019958 1407.489502,700.156189 1410.090332,699.942200 
	C1410.940918,699.872192 1411.716675,698.891052 1412.526611,698.326538 
	C1411.761841,697.681396 1411.019653,696.512817 1410.228271,696.478577 
	C1405.970215,696.293945 1401.699829,696.391235 1397.401367,696.391235 
	C1397.401367,703.955566 1397.401367,710.839966 1397.401367,717.843628 
	C1402.658203,717.843628 1407.590088,717.843628 1412.793945,717.843628 
	C1412.736450,716.853271 1412.800903,715.434875 1412.630859,715.406189 
	C1409.164795,714.821228 1405.671753,714.395325 1401.814697,713.889099 
	C1401.898438,712.245789 1401.975830,710.725464 1402.068359,708.908936 
	C1405.538208,708.908936 1408.487183,708.908936 1411.457764,708.908936 
	C1411.154907,705.407776 1411.154907,705.407776 1404.449707,705.384583 
M1315.975830,711.426392 
	C1315.975830,713.527893 1315.975830,715.629395 1315.975830,717.760010 
	C1321.496948,717.760010 1326.423462,717.760010 1332.152344,717.760010 
	C1329.363647,711.812256 1323.625977,716.511963 1320.384766,713.347534 
	C1320.444092,712.193542 1320.516602,710.781982 1320.612427,708.914185 
	C1324.035156,708.914185 1327.124634,708.914185 1331.305054,708.914185 
	C1328.685303,703.149414 1323.617065,706.997681 1320.724365,704.664429 
	C1320.724365,703.305847 1320.724365,701.797791 1320.724365,699.906494 
	C1324.353149,699.906494 1327.621704,699.906494 1330.917114,699.906494 
	C1330.458496,696.154419 1325.370972,695.280334 1315.975830,697.078979 
	C1315.975830,701.489319 1315.975830,705.966492 1315.975830,711.426392 
M1377.083130,699.992920 
	C1378.650635,700.078979 1380.218140,700.164978 1382.016357,700.263733 
	C1382.016357,706.321655 1382.016357,711.930969 1382.016357,717.773499 
	C1383.505493,717.773499 1384.735718,717.773499 1386.392090,717.773499 
	C1386.392090,711.878967 1386.392090,706.144104 1386.392090,700.205627 
	C1388.106445,700.121277 1389.458008,700.252258 1390.693604,699.933655 
	C1391.741577,699.663330 1392.655396,698.873535 1393.628662,698.313660 
	C1392.678345,697.687134 1391.749512,696.562012 1390.773926,696.519653 
	C1386.302979,696.325439 1381.817627,696.379578 1377.340576,696.483154 
	C1376.506470,696.502380 1375.687134,697.156677 1374.860962,697.517883 
	C1375.331177,698.339355 1375.801392,699.160828 1377.083130,699.992920 
M1336.077515,702.693848 
	C1336.077515,707.756775 1336.077515,712.819702 1336.077515,717.791260 
	C1341.786133,717.791260 1346.714722,717.791260 1352.274902,717.791260 
	C1350.132080,711.006592 1344.234985,716.231201 1340.758545,713.103882 
	C1340.758545,708.729736 1340.867798,703.793457 1340.654663,698.871094 
	C1340.617676,698.017395 1339.217163,697.222778 1338.446411,696.400879 
	C1337.659912,697.193542 1336.614746,697.864197 1336.165771,698.816101 
	C1335.781616,699.630737 1336.080688,700.767761 1336.077515,702.693848 
z"/>
<path fill="#E5ECF2" opacity="1.000000" stroke="none" 
	d="
M1197.694824,419.459656 
	C1197.343384,424.754028 1193.071533,424.421692 1189.796631,425.199951 
	C1189.481079,425.274963 1187.551392,422.078522 1187.968628,421.047180 
	C1189.147827,418.132416 1194.626831,417.288177 1197.694824,419.459656 
z"/>
<path fill="#F2F6F9" opacity="1.000000" stroke="none" 
	d="
M698.982544,637.133118 
	C700.561707,636.557495 701.813538,635.700500 703.020935,635.759155 
	C704.078613,635.810547 705.086304,636.890137 706.116089,637.515625 
	C705.167480,638.987427 704.543091,641.010559 703.195068,641.803223 
	C701.116577,643.025635 698.266602,645.135925 696.377808,641.797791 
	C695.910522,640.972046 697.819336,638.801819 698.982544,637.133118 
z"/>
<path fill="#E5ECF2" opacity="1.000000" stroke="none" 
	d="
M718.210571,426.931549 
	C718.113525,428.629822 717.608521,431.292603 717.416321,431.270203 
	C715.053162,430.994904 712.633057,430.569733 710.453918,429.648254 
	C709.497742,429.243927 709.057129,427.620422 708.382446,426.550507 
	C709.778870,425.730164 711.231812,424.167755 712.558044,424.268738 
	C714.404358,424.409363 716.155884,425.795380 718.210571,426.931549 
z"/>
<path fill="#F2F6F9" opacity="1.000000" stroke="none" 
	d="
M1179.868896,425.118286 
	C1179.986084,426.935547 1180.377319,429.575470 1179.529053,430.064392 
	C1177.416992,431.281708 1174.740356,431.519653 1172.290527,432.150879 
	C1172.257568,430.505890 1171.606934,427.826752 1172.306763,427.408752 
	C1174.452393,426.127258 1177.116333,425.713287 1179.868896,425.118286 
z"/>
<path fill="#E5ECF2" opacity="1.000000" stroke="none" 
	d="
M688.889099,643.477417 
	C688.710510,645.355286 688.778381,647.865540 687.786621,648.396484 
	C685.689087,649.519409 683.038208,649.608582 680.614258,650.121704 
	C680.557068,648.571350 679.985229,645.913391 680.530640,645.659912 
	C683.069702,644.480103 685.917847,643.965576 688.889099,643.477417 
z"/>
<path fill="#F2F6F9" opacity="1.000000" stroke="none" 
	d="
M1235.089600,644.887573 
	C1236.490479,643.732117 1238.170410,642.052185 1239.258179,642.373962 
	C1241.486694,643.033264 1243.397461,644.766602 1245.439087,646.057739 
	C1244.387573,647.348145 1242.768921,649.900757 1242.376343,649.724365 
	C1239.803345,648.568359 1237.495239,646.822449 1235.089600,644.887573 
z"/>
<path fill="#F2F6F9" opacity="1.000000" stroke="none" 
	d="
M1214.177979,413.056335 
	C1211.722900,414.983948 1209.324951,416.699402 1206.712891,417.977234 
	C1206.429810,418.115723 1204.907837,415.722076 1203.960571,414.502960 
	C1205.990112,413.221375 1207.891724,411.538971 1210.104980,410.833466 
	C1211.154175,410.499023 1212.798340,412.030670 1214.177979,413.056335 
z"/>
<path fill="#E5ECF2" opacity="1.000000" stroke="none" 
	d="
M1220.651855,406.734833 
	C1222.710205,405.426239 1224.504028,403.882751 1226.461182,403.636414 
	C1227.808960,403.466736 1229.382935,405.094391 1230.855835,405.918732 
	C1228.508057,407.615082 1226.370972,409.909149 1223.750732,410.832123 
	C1221.347168,411.678741 1219.824463,409.857178 1220.651855,406.734833 
z"/>
<path fill="#E5ECF2" opacity="1.000000" stroke="none" 
	d="
M722.746460,630.391479 
	C722.276855,635.616333 718.117004,635.361328 714.788757,635.967224 
	C714.399170,636.038147 712.595886,632.927795 713.005371,631.933899 
	C714.173218,629.099304 719.712402,628.261536 722.746460,630.391479 
z"/>
<path fill="#F2F6F9" opacity="1.000000" stroke="none" 
	d="
M1212.463623,632.283447 
	C1211.382935,633.672058 1209.780762,635.831360 1209.057007,635.568909 
	C1206.566284,634.665466 1204.382568,632.915344 1202.081909,631.487915 
	C1203.288208,630.339966 1204.828979,628.030029 1205.637817,628.262817 
	C1208.028564,628.950867 1210.130127,630.644043 1212.463623,632.283447 
z"/>
<path fill="#E5ECF2" opacity="1.000000" stroke="none" 
	d="
M725.355713,432.371399 
	C729.350830,429.407227 732.012146,432.348877 734.648438,434.189545 
	C735.075439,434.487640 734.307251,438.017242 733.287720,438.569611 
	C730.692993,439.975494 725.625061,436.059631 725.355713,432.371399 
z"/>
<path fill="#E5ECF2" opacity="1.000000" stroke="none" 
	d="
M1253.990356,391.949890 
	C1256.145386,390.747192 1257.991211,389.495453 1260.010986,389.070587 
	C1261.072266,388.847412 1262.858643,389.783997 1263.514893,390.744904 
	C1263.937744,391.364197 1263.220703,393.672058 1262.463135,394.018860 
	C1260.058838,395.119598 1257.395996,395.655212 1254.833008,396.409302 
	C1254.473145,395.020966 1254.113281,393.632599 1253.990356,391.949890 
z"/>
<path fill="#F2F6F9" opacity="1.000000" stroke="none" 
	d="
M1239.398438,403.912415 
	C1236.531250,402.654602 1235.678833,400.304077 1237.950562,398.924438 
	C1240.315674,397.488068 1243.554443,397.489960 1246.411133,396.863007 
	C1246.182007,398.433502 1246.507935,400.650238 1245.599854,401.429871 
	C1244.062744,402.749695 1241.745850,403.161377 1239.398438,403.912415 
z"/>
<path fill="#F2F6F9" opacity="1.000000" stroke="none" 
	d="
M667.262695,410.524689 
	C664.659424,409.820801 662.245728,409.189545 660.163574,407.985138 
	C659.392273,407.539001 658.835449,405.501831 659.210632,404.637024 
	C659.587036,403.769379 661.512695,402.745575 662.294678,403.037048 
	C664.671082,403.922668 666.910645,405.292358 668.957031,406.806580 
	C669.229187,407.007935 668.076660,409.134766 667.262695,410.524689 
z"/>
<path fill="#F2F6F9" opacity="1.000000" stroke="none" 
	d="
M1256.422852,649.518066 
	C1257.660767,650.088989 1258.838501,650.251038 1259.430420,650.926453 
	C1260.476440,652.120178 1261.165771,653.626465 1262.004395,655.001892 
	C1260.343872,655.424011 1258.700073,656.043762 1257.015747,656.187500 
	C1256.134399,656.262756 1254.941772,655.728821 1254.315674,655.067017 
	C1253.299805,653.993469 1252.634033,652.588501 1251.820557,651.323486 
	C1253.246704,650.662415 1254.672729,650.001343 1256.422852,649.518066 
z"/>
<path fill="#F2F6F9" opacity="1.000000" stroke="none" 
	d="
M737.599243,626.917358 
	C737.115234,627.131104 736.962158,627.195862 736.804504,627.246460 
	C734.219666,628.075623 730.915283,631.400024 729.249573,627.190247 
	C727.653564,623.156311 732.224854,622.815918 734.748962,621.804260 
	C735.833984,621.369385 737.393799,622.119141 738.737915,622.330688 
	C738.467957,623.807739 738.197998,625.284851 737.599243,626.917358 
z"/>
<path fill="#F2F6F9" opacity="1.000000" stroke="none" 
	d="
M693.407959,422.404297 
	C692.975098,420.698059 692.301636,418.932098 692.895264,417.883362 
	C693.293091,417.180603 695.503784,417.309082 696.874634,417.420105 
	C697.800781,417.495148 698.976013,417.956512 699.511963,418.651947 
	C700.559326,420.010986 701.237183,421.654846 702.067993,423.180817 
	C700.501465,423.512848 698.924072,424.140076 697.371765,424.083313 
	C696.134155,424.038086 694.927124,423.158752 693.407959,422.404297 
z"/>
<path fill="#E5ECF2" opacity="1.000000" stroke="none" 
	d="
M751.122681,445.084839 
	C747.986206,444.525146 745.096924,443.895935 742.430054,442.749268 
	C742.068054,442.593689 742.820679,439.845886 743.057190,438.298340 
	C745.505432,438.930908 748.159119,439.190002 750.305603,440.371033 
	C751.226685,440.877808 751.093811,443.300323 751.122681,445.084839 
z"/>
<path fill="#F2F6F9" opacity="1.000000" stroke="none" 
	d="
M1195.054688,627.968018 
	C1192.031982,627.503906 1189.207397,627.024170 1186.668579,625.899658 
	C1186.170410,625.679016 1186.776367,622.964905 1186.873047,621.400818 
	C1189.346436,621.968323 1192.009277,622.164246 1194.201904,623.282349 
	C1195.105957,623.743225 1194.999634,626.185669 1195.054688,627.968018 
z"/>
<path fill="#E5ECF2" opacity="1.000000" stroke="none" 
	d="
M680.119568,416.915283 
	C678.625061,416.170013 677.258850,415.756317 676.411682,414.854797 
	C675.764771,414.166443 675.410156,412.018250 675.549316,411.957916 
	C677.114502,411.279144 679.042786,410.130554 680.400330,410.569946 
	C682.760498,411.333954 686.626221,411.625793 685.571960,415.601562 
	C685.341675,416.469849 682.246704,416.578552 680.119568,416.915283 
z"/>
<path fill="#F2F6F9" opacity="1.000000" stroke="none" 
	d="
M670.824341,656.025757 
	C669.258423,656.651794 668.038391,657.606689 666.834595,657.586670 
	C665.584106,657.565918 664.349182,656.602295 663.107483,656.051086 
	C663.739990,654.695984 664.077942,652.497131 665.063416,652.153198 
	C667.458618,651.317139 670.154541,651.342896 672.729370,651.021484 
	C672.212036,652.656433 671.694702,654.291321 670.824341,656.025757 
z"/>
<path fill="#F2F6F9" opacity="1.000000" stroke="none" 
	d="
M1219.380859,635.912354 
	C1220.887329,635.577576 1222.495239,634.965820 1223.308716,635.520020 
	C1225.390869,636.938477 1227.119751,638.875854 1228.989868,640.605652 
	C1227.702026,641.301208 1225.955444,642.905579 1225.209106,642.528687 
	C1222.547119,641.184692 1217.403320,641.764526 1219.380859,635.912354 
z"/>
<path fill="#F2F6F9" opacity="1.000000" stroke="none" 
	d="
M751.729919,614.197632 
	C752.694641,615.756042 753.335693,617.459229 754.003296,619.515808 
	C751.206970,620.246826 747.753357,624.773682 745.756775,619.986572 
	C744.004822,615.786011 749.172791,615.970215 751.729919,614.197632 
z"/>
<path fill="#F2F6F9" opacity="1.000000" stroke="none" 
	d="
M1171.208252,619.809509 
	C1171.341064,617.913330 1171.820068,616.170349 1172.536011,614.187256 
	C1173.987061,614.444214 1175.488647,614.652771 1176.346191,615.507568 
	C1177.554443,616.711670 1178.285156,618.394775 1179.220093,619.873108 
	C1177.574951,620.278076 1175.945435,620.875549 1174.278442,621.009460 
	C1173.404053,621.079773 1172.464478,620.337769 1171.208252,619.809509 
z"/>
<path fill="#E5ECF2" opacity="1.000000" stroke="none" 
	d="
M648.288208,662.026001 
	C648.441956,661.869873 648.588867,661.739502 648.614380,661.588684 
	C649.204346,658.091675 651.714722,656.989624 654.725403,657.343567 
	C655.558533,657.441528 656.162170,659.491760 656.871155,660.646179 
	C654.532227,661.604004 652.193298,662.561829 649.460754,663.654419 
	C649.067139,663.789124 649.018860,663.911255 649.328796,663.650146 
	C649.135803,662.910156 648.632812,662.431274 648.129883,661.952454 
	C648.129883,661.952454 648.224915,662.042175 648.288208,662.026001 
z"/>
<path fill="#F2F6F9" opacity="1.000000" stroke="none" 
	d="
M1275.752197,658.091675 
	C1275.307861,659.853638 1274.551147,661.404602 1273.504639,663.048096 
	C1272.456543,662.821777 1271.402344,662.712708 1270.998413,662.142822 
	C1270.018921,660.760925 1269.342163,659.164551 1268.543335,657.654663 
	C1270.124878,657.333313 1271.697388,656.854370 1273.291992,656.763733 
	C1273.984497,656.724487 1274.722534,657.484070 1275.752197,658.091675 
z"/>
<path fill="#F2F6F9" opacity="1.000000" stroke="none" 
	d="
M1159.434204,438.920166 
	C1158.421143,437.641632 1157.762573,436.315399 1157.020020,434.684052 
	C1157.586060,433.878845 1158.227905,432.969299 1158.887207,432.956390 
	C1160.773193,432.919464 1162.666382,433.246643 1164.556641,433.430664 
	C1163.584717,435.014618 1162.686401,436.652283 1161.595337,438.149536 
	C1161.271729,438.593506 1160.406006,438.642456 1159.434204,438.920166 
z"/>
<path fill="#1B1C1C" opacity="1.000000" stroke="none" 
	d="
M996.337158,449.063477 
	C1000.540161,450.471832 1001.859497,453.180725 1001.772339,457.165283 
	C1001.437134,472.479065 1001.326416,487.797638 1001.102783,503.113983 
	C1001.000732,510.106842 999.197449,511.897980 992.379944,511.927765 
	C983.555481,511.966339 974.730896,512.044617 965.906616,512.023438 
	C959.801147,512.008789 957.824341,510.037384 957.764221,504.188538 
	C957.605103,488.704773 957.429626,473.221161 957.287659,457.737213 
	C957.220581,450.419617 958.367798,449.240631 965.433716,449.203033 
	C975.590149,449.148987 985.746582,449.105804 996.337158,449.063477 
M984.993835,484.495483 
	C984.993835,477.419708 984.993835,470.343933 984.993835,463.247192 
	C981.032959,462.938507 977.751831,462.682770 973.944580,462.386047 
	C973.944580,464.206604 973.944580,465.827911 973.944580,467.449219 
	C973.944580,477.705597 973.944580,487.962006 973.944580,498.620850 
	C977.967773,498.834717 981.199219,499.006500 984.993225,499.208191 
	C984.993225,494.383209 984.993225,489.937714 984.993835,484.495483 
z"/>
<path fill="#1B1C1C" opacity="1.000000" stroke="none" 
	d="
M942.698486,569.077026 
	C942.714966,584.506287 942.714966,599.448059 942.714966,614.729248 
	C938.008423,614.729248 932.916382,614.729248 927.071045,614.729248 
	C927.071045,608.607178 927.071045,602.387024 927.071045,595.711548 
	C922.400269,595.917175 918.498840,596.088989 914.405457,596.269226 
	C913.869263,602.688721 913.376526,608.587158 912.863464,614.728882 
	C907.916077,614.728882 903.293762,614.728882 898.180786,614.728882 
	C898.125000,613.469299 897.958679,612.047913 898.015259,610.635437 
	C898.688171,593.834229 899.394470,577.034302 900.091553,560.234070 
	C900.259094,556.197632 902.001038,553.687439 906.364563,553.504028 
	C915.845520,553.105591 925.322205,552.602905 934.804016,552.228821 
	C938.072876,552.099792 942.034790,556.749512 942.412354,561.103271 
	C942.627808,563.587891 942.600220,566.093445 942.698486,569.077026 
M926.687866,581.762878 
	C926.687866,577.309875 926.687866,572.856873 926.687866,567.906311 
	C922.652893,568.292236 919.434570,568.600098 916.089355,568.920105 
	C915.877380,571.433289 915.669373,573.558838 915.526245,575.688660 
	C915.374268,577.951233 915.283813,580.218018 915.127014,583.244873 
	C919.300537,583.007385 922.946411,582.799927 926.687866,581.762878 
z"/>
<path fill="#1C1E1E" opacity="1.000000" stroke="none" 
	d="
M1048.693115,479.019836 
	C1049.746826,480.179657 1050.797241,481.313843 1050.831665,482.478088 
	C1051.038574,489.467865 1051.137085,496.466675 1051.019287,503.458160 
	C1050.942383,508.016998 1049.306152,512.021912 1043.082764,511.704956 
	C1034.120239,511.248444 1025.106567,511.849487 1016.114014,511.915405 
	C1009.418579,511.964478 1007.418152,510.010376 1007.371033,503.577423 
	C1007.257568,488.089874 1007.143799,472.602264 1007.064453,457.114502 
	C1007.032715,450.923981 1008.156982,449.706146 1014.110107,449.563904 
	C1023.932617,449.329285 1033.756348,449.122925 1043.580811,449.004242 
	C1048.993408,448.938873 1051.477295,451.572693 1051.195312,456.815887 
	C1050.956421,461.259277 1050.689697,465.701141 1050.409424,470.596191 
	C1046.084839,470.596191 1042.274536,470.811127 1038.515137,470.467468 
	C1037.361450,470.361969 1035.932251,468.922607 1035.376465,467.742188 
	C1034.708130,466.323029 1034.837402,464.528229 1034.538574,462.270477 
	C1031.017212,462.465790 1027.648071,462.652679 1024.032349,462.853210 
	C1024.032349,474.797180 1024.032349,486.374054 1024.032349,498.385590 
	C1027.582520,498.647644 1030.849487,498.888794 1034.556885,499.162445 
	C1034.556885,496.636261 1034.556885,494.413269 1034.556885,491.949463 
	C1033.282349,491.637756 1031.858765,491.289612 1030.117310,490.863739 
	C1030.117310,487.171143 1030.117310,483.416107 1030.117310,479.008148 
	C1036.034912,479.008148 1042.127686,479.008148 1048.693115,479.019836 
z"/>
<path fill="#1B1C1C" opacity="1.000000" stroke="none" 
	d="
M874.026184,511.919312 
	C870.065796,511.928406 866.599487,511.928406 863.056946,511.928406 
	C863.056946,491.145569 863.056946,470.584351 863.056946,449.470581 
	C874.881226,450.030823 886.339233,450.128448 897.647034,451.481476 
	C899.934814,451.755188 903.061462,456.639130 903.351196,459.634613 
	C904.006836,466.413483 903.119995,473.339783 902.906616,480.207520 
	C902.887634,480.818176 903.033997,481.571625 903.392456,482.035736 
	C909.179016,489.529663 905.222290,498.053284 905.471680,506.037323 
	C905.522949,507.677002 900.414124,510.630127 897.444763,510.986359 
	C889.875244,511.894440 882.170776,511.677185 874.026184,511.919312 
M878.599731,494.278961 
	C878.599731,495.744385 878.599731,497.209808 878.599731,498.697296 
	C891.926636,497.865906 891.450928,499.028137 890.325684,486.315735 
	C886.593872,485.808197 882.806885,485.293182 878.606262,484.721893 
	C878.606262,488.102844 878.606262,490.732513 878.599731,494.278961 
M888.970093,465.839478 
	C887.069763,459.787933 882.085693,463.321167 878.539490,461.653473 
	C878.075439,474.932465 876.816101,473.572998 888.991882,474.146729 
	C888.991882,471.674225 888.991882,469.208832 888.970093,465.839478 
z"/>
<path fill="#1B1C1C" opacity="1.000000" stroke="none" 
	d="
M949.046997,555.421875 
	C950.060547,554.136475 951.104614,552.549255 952.080627,552.590027 
	C963.731750,553.077148 975.370544,553.852722 987.017822,554.449036 
	C991.584839,554.682861 993.415894,556.874512 993.346375,561.449036 
	C993.194580,571.444946 993.383728,581.445618 993.375061,591.444336 
	C993.370605,596.654358 991.416931,598.731323 986.286011,598.810608 
	C979.651550,598.913025 973.014221,598.835571 966.001953,598.835571 
	C965.576233,604.282837 965.217712,608.869873 964.828674,613.847351 
	C959.707336,614.293030 954.658875,614.732361 949.045898,615.220764 
	C949.045898,595.106201 949.045898,575.491333 949.046997,555.421875 
M970.492188,584.965637 
	C972.569519,584.784119 974.646912,584.602539 976.579956,584.433594 
	C976.579956,578.240723 976.579956,572.698181 976.579956,567.113586 
	C973.136536,566.773743 970.052612,566.469421 966.135193,566.082886 
	C966.135193,571.846191 966.263428,577.133240 966.084412,582.409973 
	C965.986145,585.304993 967.629333,585.189270 970.492188,584.965637 
z"/>
<path fill="#1B1C1C" opacity="1.000000" stroke="none" 
	d="
M928.631531,483.992401 
	C928.620422,488.470093 928.620422,492.448242 928.620422,496.906952 
	C935.605408,496.906952 942.549561,496.906952 949.847534,496.906952 
	C950.501526,502.042053 951.101318,506.751556 951.740540,511.770294 
	C938.436401,511.770294 925.384033,511.770294 912.359497,511.770294 
	C912.359497,490.848358 912.359497,470.138092 912.359497,448.920532 
	C918.087708,449.291626 923.336304,449.631653 928.642639,449.975403 
	C928.642639,461.287231 928.642639,472.390076 928.631531,483.992401 
z"/>
<path fill="#1B1C1C" opacity="1.000000" stroke="none" 
	d="
M999.117249,568.005737 
	C999.119873,562.869629 999.119873,558.232361 999.119873,553.029419 
	C1004.923889,553.029419 1010.298279,553.029419 1016.301575,553.029419 
	C1015.617676,572.973450 1014.930115,593.025208 1014.232239,613.377747 
	C1009.035339,613.957275 1004.293274,614.486084 999.114624,615.063538 
	C999.114624,599.354126 999.114624,583.929321 999.117249,568.005737 
z"/>
<path fill="#F2F6F9" opacity="1.000000" stroke="none" 
	d="
M550.841919,377.316437 
	C554.254150,378.581482 556.627502,378.019165 557.874268,375.073212 
	C556.270447,373.695709 554.945007,372.557373 553.619629,371.419037 
	C553.861755,371.035980 554.103882,370.652893 554.346008,370.269836 
	C556.942932,370.269836 559.539795,370.269836 562.525146,370.269836 
	C562.525146,373.738861 562.525146,377.134003 562.525146,380.190796 
	C559.597168,380.641541 556.788940,381.097809 553.973267,381.502106 
	C548.636780,382.268311 543.994690,378.540314 543.125000,372.820129 
	C542.072571,365.897980 545.631104,360.242859 551.716064,359.167542 
	C557.480286,358.148895 561.389221,360.704163 562.898071,367.530090 
	C560.839233,366.604156 559.450989,365.964294 558.049988,365.353516 
	C556.110596,364.507935 553.716980,362.569946 552.325928,363.124969 
	C550.462830,363.868439 548.289124,366.501923 548.205200,368.409882 
	C548.079834,371.263885 549.657715,374.192688 550.841919,377.316437 
z"/>
<path fill="#F2F6F9" opacity="1.000000" stroke="none" 
	d="
M580.627991,372.007355 
	C578.041016,372.020752 575.893372,372.020752 573.357422,372.020752 
	C573.213501,373.686462 573.093872,375.071960 572.962341,376.594421 
	C573.847229,376.891174 574.440491,377.237946 575.048950,377.266968 
	C577.042847,377.362122 579.073425,377.142517 581.027100,377.446808 
	C582.063416,377.608185 582.970032,378.601959 583.935181,379.219971 
	C582.994934,379.822937 582.078186,380.898010 581.110352,380.946136 
	C577.136841,381.143738 573.147705,381.028748 568.309570,381.028748 
	C568.309570,374.348907 568.306763,367.942749 568.317810,361.536621 
	C568.318359,361.212128 568.372498,360.638214 568.512695,360.601257 
	C570.320068,360.124664 572.154053,359.355072 573.968689,359.386658 
	C577.172974,359.442383 580.368530,359.998138 583.567749,360.344574 
	C582.962219,361.222015 582.434570,362.776031 581.737305,362.856293 
	C579.122681,363.157257 576.452698,362.976837 573.397095,362.976837 
	C573.226318,364.624573 573.082886,366.009064 572.842163,368.332031 
	C575.500793,368.332031 577.755066,368.196686 579.979980,368.393738 
	C580.970886,368.481506 581.902405,369.238647 582.860901,369.691956 
	C582.263000,370.459290 581.665161,371.226624 580.627991,372.007355 
z"/>
<path fill="#F2F6F9" opacity="1.000000" stroke="none" 
	d="
M598.141785,380.180359 
	C594.735596,381.885223 593.832642,380.483704 593.925842,377.389709 
	C594.064819,372.774963 593.961853,368.152893 593.961853,363.310638 
	C591.382874,363.112030 589.288330,362.950714 587.193787,362.789398 
	C586.904053,362.390198 586.614380,361.991028 586.324646,361.591827 
	C587.364563,360.833435 588.367493,359.488831 589.450867,359.420624 
	C593.591980,359.159882 597.768555,359.150970 601.910583,359.400940 
	C603.192444,359.478302 604.406616,360.676758 605.651794,361.361938 
	C604.461792,361.911804 603.309021,362.579346 602.069275,362.972137 
	C601.169312,363.257294 600.154175,363.178711 598.326294,363.337280 
	C598.326294,368.946655 598.326294,374.367767 598.141785,380.180359 
z"/>
<path fill="#F2F6F9" opacity="1.000000" stroke="none" 
	d="
M1360.177979,378.789154 
	C1356.940796,383.214111 1352.520508,384.592194 1347.833252,382.939484 
	C1343.355225,381.360474 1342.804688,377.742523 1342.935547,373.664673 
	C1343.057495,369.861084 1342.961548,366.050537 1342.961548,362.087952 
	C1345.930542,360.807678 1347.445679,361.282440 1347.347656,364.736298 
	C1347.253540,368.052612 1347.263916,371.376740 1347.375122,374.692566 
	C1347.470703,377.544739 1348.176880,380.055969 1351.817261,380.029999 
	C1355.403442,380.004425 1356.192871,377.683136 1356.189331,374.701263 
	C1356.185303,371.381989 1355.984741,368.041382 1356.314819,364.754761 
	C1356.433228,363.574341 1357.846191,362.523926 1358.668335,361.414124 
	C1359.393433,362.452057 1360.724609,363.481415 1360.739380,364.529388 
	C1360.804688,369.152344 1360.490601,373.780701 1360.177979,378.789154 
z"/>
<path fill="#F2F6F9" opacity="1.000000" stroke="none" 
	d="
M1338.820801,370.441223 
	C1335.192993,372.740479 1331.674561,374.651123 1328.156128,376.561798 
	C1327.837891,376.200836 1327.519653,375.839874 1327.201416,375.478912 
	C1327.201416,377.742767 1327.201416,380.006622 1327.201416,382.270477 
	C1326.764771,382.659424 1326.328125,383.048340 1325.891479,383.437256 
	C1324.821045,382.402283 1322.878296,381.410370 1322.824707,380.325195 
	C1322.524536,374.242798 1322.680176,368.137909 1322.680176,362.153992 
	C1334.194824,359.583740 1339.006348,362.025513 1338.820801,370.441223 
M1331.233154,365.062469 
	C1329.877563,365.163177 1328.521851,365.263855 1327.024048,365.375122 
	C1327.127075,367.566406 1327.201782,369.154297 1327.335327,371.992004 
	C1329.922607,371.051056 1331.972534,370.305542 1334.022461,369.559998 
	C1333.379639,368.107422 1332.736694,366.654816 1331.233154,365.062469 
z"/>
<path fill="#E5ECF2" opacity="1.000000" stroke="none" 
	d="
M1366.562622,361.320312 
	C1371.308960,361.304169 1375.621094,361.165558 1379.914307,361.391266 
	C1381.126099,361.454956 1382.281616,362.585175 1383.463013,363.226227 
	C1383.263184,363.732513 1383.063354,364.238770 1382.863647,364.745026 
	C1380.777100,364.914154 1378.690674,365.083282 1376.061035,365.296448 
	C1376.061035,371.075897 1376.061035,376.784790 1376.061035,382.391846 
	C1372.243286,383.847168 1371.079712,382.617950 1371.186401,379.262573 
	C1371.328125,374.804382 1371.221436,370.338287 1371.221436,366.056091 
	C1368.663208,365.153381 1366.388672,364.350769 1364.114136,363.548157 
	C1364.783203,362.810730 1365.452271,362.073303 1366.562622,361.320312 
z"/>
<path fill="#F2F6F9" opacity="1.000000" stroke="none" 
	d="
M556.885864,722.173828 
	C552.729065,717.000427 552.025940,711.709412 554.773132,707.156128 
	C557.209961,703.117188 561.033020,701.747681 565.489685,702.377258 
	C569.816040,702.988403 572.926697,705.436340 573.891541,709.834290 
	C574.898376,714.423523 574.684875,719.019470 570.642822,722.174011 
	C566.373840,725.505676 561.720276,725.380554 556.885864,722.173828 
M564.368713,705.833069 
	C560.955750,705.537292 558.526611,707.373962 558.384644,710.429749 
	C558.241821,713.502747 558.698120,717.230774 560.392578,719.597107 
	C562.339905,722.316528 565.818481,721.687012 568.088562,718.932129 
	C571.417664,714.892090 569.936768,708.609741 564.368713,705.833069 
z"/>
<path fill="#F2F6F9" opacity="1.000000" stroke="none" 
	d="
M592.793945,705.315308 
	C593.339783,706.539001 593.669983,707.444519 594.000183,708.350098 
	C593.767944,708.707581 593.535767,709.065063 593.303528,709.422546 
	C591.812012,708.666748 590.363586,707.802185 588.815613,707.188965 
	C587.535767,706.682007 586.147644,706.317566 584.786560,706.234619 
	C584.428528,706.212891 583.496521,707.821777 583.678345,708.077759 
	C584.468628,709.190308 585.554565,710.100037 586.578430,711.033630 
	C586.796692,711.232544 587.206970,711.216797 587.525818,711.310120 
	C591.210266,712.388245 594.705811,713.861572 594.435303,718.499207 
	C594.198486,722.560425 591.107910,724.181946 587.574158,724.453186 
	C583.200684,724.789062 579.288330,723.779968 577.516235,717.103394 
	C579.946289,718.035767 581.440125,718.640564 582.956543,719.182129 
	C584.551086,719.751404 586.145813,720.508911 587.786377,720.649841 
	C588.304382,720.694275 589.650208,718.465210 589.453125,718.222778 
	C588.484070,717.030579 587.267883,715.773682 585.872131,715.247131 
	C582.580139,714.005310 578.605164,713.325500 578.840332,708.846008 
	C578.941467,706.917480 580.520569,704.366516 582.188782,703.364502 
	C585.775208,701.210144 589.535278,701.756775 592.793945,705.315308 
z"/>
<path fill="#F2F6F9" opacity="1.000000" stroke="none" 
	d="
M548.148682,714.412964 
	C546.451721,715.115479 545.077454,715.695007 543.644958,715.961365 
	C542.219788,716.226318 540.736145,716.176636 539.862610,716.229553 
	C537.075439,718.459290 541.628174,724.844177 534.363342,723.769287 
	C534.363342,716.868835 534.363342,710.129150 534.363342,702.814636 
	C539.541260,702.997498 545.129700,700.813293 549.211487,705.569702 
	C551.450012,708.178223 550.962219,711.485596 548.148682,714.412964 
M539.149719,706.482117 
	C538.565002,708.883850 536.924133,711.942810 540.982788,712.449036 
	C542.440918,712.630981 545.483643,710.687622 545.542847,709.592041 
	C545.749451,705.771790 542.521179,706.164124 539.149719,706.482117 
z"/>
<path fill="#F2F6F9" opacity="1.000000" stroke="none" 
	d="
M604.184204,717.846252 
	C604.184265,713.901794 604.184265,710.430298 604.184265,706.635681 
	C601.713867,706.287903 599.511902,705.977844 597.309998,705.667847 
	C597.142639,705.280518 596.975281,704.893250 596.807922,704.505920 
	C597.896362,703.879211 598.959229,702.771240 600.077942,702.711670 
	C604.212646,702.491394 608.372253,702.488708 612.507812,702.696411 
	C613.655640,702.754150 614.752686,703.822144 615.873047,704.426636 
	C614.718262,704.991577 613.605103,705.684204 612.394775,706.079102 
	C611.502136,706.370300 610.482727,706.272522 608.849609,706.400757 
	C608.849609,711.156982 608.903198,715.742615 608.832092,720.326294 
	C608.778625,723.774597 608.707397,723.773499 604.184082,723.617981 
	C604.184082,721.869141 604.184082,720.094238 604.184204,717.846252 
z"/>
<path fill="#191919" opacity="1.000000" stroke="none" 
	d="
M647.735413,662.185974 
	C648.632812,662.431274 649.135803,662.910156 649.388550,663.677246 
	C648.539246,663.450134 647.940063,662.934814 647.735413,662.185974 
z"/>
<path fill="#F2F6F9" opacity="1.000000" stroke="none" 
	d="
M1296.114746,696.432251 
	C1298.548828,696.541565 1300.565674,696.483337 1302.524658,696.792053 
	C1308.209229,697.687744 1311.073120,701.301453 1310.994751,707.238281 
	C1310.916504,713.164734 1307.479980,717.388489 1301.955078,717.902039 
	C1298.847412,718.190857 1295.690796,717.954102 1291.979126,717.954102 
	C1291.979126,711.469788 1291.832642,705.199402 1292.143555,698.951782 
	C1292.187988,698.055603 1294.440430,697.269348 1296.114746,696.432251 
M1306.202881,706.596680 
	C1305.142700,700.694153 1303.616943,699.673401 1296.578857,700.354431 
	C1296.578857,704.877136 1296.578857,709.424500 1296.578857,713.928040 
	C1303.324463,715.056702 1305.251709,713.710938 1306.202881,706.596680 
z"/>
<path fill="#E5ECF2" opacity="1.000000" stroke="none" 
	d="
M1360.887695,701.169495 
	C1360.015015,706.092529 1363.183228,705.224854 1365.743530,705.438293 
	C1367.786011,705.608582 1371.126831,704.124756 1370.674683,708.990234 
	C1367.460205,708.990234 1364.374146,708.990234 1361.041992,708.990234 
	C1361.041992,710.869812 1361.041992,712.280701 1361.041992,713.620972 
	C1364.145020,716.286621 1369.735107,711.929932 1372.757812,717.813477 
	C1366.700317,717.813477 1361.759399,717.813477 1356.446533,717.813477 
	C1356.446533,710.944885 1356.446533,704.058838 1356.446533,696.401855 
	C1360.752808,696.401855 1365.173950,696.327759 1369.587158,696.481384 
	C1370.251465,696.504517 1370.878906,697.591187 1371.523315,698.185791 
	C1370.761597,698.796326 1370.063354,699.811646 1369.226318,699.942932 
	C1366.500854,700.370483 1363.724731,700.475159 1360.887695,701.169495 
z"/>
<path fill="#E5ECF2" opacity="1.000000" stroke="none" 
	d="
M1404.914551,705.388916 
	C1411.154907,705.407776 1411.154907,705.407776 1411.457764,708.908936 
	C1408.487183,708.908936 1405.538208,708.908936 1402.068359,708.908936 
	C1401.975830,710.725464 1401.898438,712.245789 1401.814697,713.889099 
	C1405.671753,714.395325 1409.164795,714.821228 1412.630859,715.406189 
	C1412.800903,715.434875 1412.736450,716.853271 1412.793945,717.843628 
	C1407.590088,717.843628 1402.658203,717.843628 1397.401367,717.843628 
	C1397.401367,710.839966 1397.401367,703.955566 1397.401367,696.391235 
	C1401.699829,696.391235 1405.970215,696.293945 1410.228271,696.478577 
	C1411.019653,696.512817 1411.761841,697.681396 1412.526611,698.326538 
	C1411.716675,698.891052 1410.940918,699.872192 1410.090332,699.942200 
	C1407.489502,700.156189 1404.859863,700.019958 1401.826904,700.019958 
	C1402.171387,702.483521 1400.300659,705.286682 1404.914551,705.388916 
z"/>
<path fill="#F2F6F9" opacity="1.000000" stroke="none" 
	d="
M1315.975830,710.935059 
	C1315.975830,705.966492 1315.975830,701.489319 1315.975830,697.078979 
	C1325.370972,695.280334 1330.458496,696.154419 1330.917114,699.906494 
	C1327.621704,699.906494 1324.353149,699.906494 1320.724365,699.906494 
	C1320.724365,701.797791 1320.724365,703.305847 1320.724365,704.664429 
	C1323.617065,706.997681 1328.685303,703.149414 1331.305054,708.914185 
	C1327.124634,708.914185 1324.035156,708.914185 1320.612427,708.914185 
	C1320.516602,710.781982 1320.444092,712.193542 1320.384766,713.347534 
	C1323.625977,716.511963 1329.363647,711.812256 1332.152344,717.760010 
	C1326.423462,717.760010 1321.496948,717.760010 1315.975830,717.760010 
	C1315.975830,715.629395 1315.975830,713.527893 1315.975830,710.935059 
z"/>
<path fill="#F2F6F9" opacity="1.000000" stroke="none" 
	d="
M1376.677368,699.987610 
	C1375.801392,699.160828 1375.331177,698.339355 1374.860962,697.517883 
	C1375.687134,697.156677 1376.506470,696.502380 1377.340576,696.483154 
	C1381.817627,696.379578 1386.302979,696.325439 1390.773926,696.519653 
	C1391.749512,696.562012 1392.678345,697.687134 1393.628662,698.313660 
	C1392.655396,698.873535 1391.741577,699.663330 1390.693604,699.933655 
	C1389.458008,700.252258 1388.106445,700.121277 1386.392090,700.205627 
	C1386.392090,706.144104 1386.392090,711.878967 1386.392090,717.773499 
	C1384.735718,717.773499 1383.505493,717.773499 1382.016357,717.773499 
	C1382.016357,711.930969 1382.016357,706.321655 1382.016357,700.263733 
	C1380.218140,700.164978 1378.650635,700.078979 1376.677368,699.987610 
z"/>
<path fill="#E5ECF2" opacity="1.000000" stroke="none" 
	d="
M1336.077515,702.228027 
	C1336.080688,700.767761 1335.781616,699.630737 1336.165771,698.816101 
	C1336.614746,697.864197 1337.659912,697.193542 1338.446411,696.400879 
	C1339.217163,697.222778 1340.617676,698.017395 1340.654663,698.871094 
	C1340.867798,703.793457 1340.758545,708.729736 1340.758545,713.103882 
	C1344.234985,716.231201 1350.132080,711.006592 1352.274902,717.791260 
	C1346.714722,717.791260 1341.786133,717.791260 1336.077515,717.791260 
	C1336.077515,712.819702 1336.077515,707.756775 1336.077515,702.228027 
z"/>
<path fill="#86EAE9" opacity="1.000000" stroke="none" 
	d="
M984.993530,484.993835 
	C984.993225,489.937714 984.993225,494.383209 984.993225,499.208191 
	C981.199219,499.006500 977.967773,498.834717 973.944580,498.620850 
	C973.944580,487.962006 973.944580,477.705597 973.944580,467.449219 
	C973.944580,465.827911 973.944580,464.206604 973.944580,462.386047 
	C977.751831,462.682770 981.032959,462.938507 984.993835,463.247192 
	C984.993835,470.343933 984.993835,477.419708 984.993530,484.993835 
z"/>
<path fill="#86EAE9" opacity="1.000000" stroke="none" 
	d="
M926.640015,582.177673 
	C922.946411,582.799927 919.300537,583.007385 915.127014,583.244873 
	C915.283813,580.218018 915.374268,577.951233 915.526245,575.688660 
	C915.669373,573.558838 915.877380,571.433289 916.089355,568.920105 
	C919.434570,568.600098 922.652893,568.292236 926.687866,567.906311 
	C926.687866,572.856873 926.687866,577.309875 926.640015,582.177673 
z"/>
<path fill="#86EAE9" opacity="1.000000" stroke="none" 
	d="
M878.603027,493.820557 
	C878.606262,490.732513 878.606262,488.102844 878.606262,484.721893 
	C882.806885,485.293182 886.593872,485.808197 890.325684,486.315735 
	C891.450928,499.028137 891.926636,497.865906 878.599731,498.697296 
	C878.599731,497.209808 878.599731,495.744385 878.603027,493.820557 
z"/>
<path fill="#86EAE9" opacity="1.000000" stroke="none" 
	d="
M888.980957,466.291443 
	C888.991882,469.208832 888.991882,471.674225 888.991882,474.146729 
	C876.816101,473.572998 878.075439,474.932465 878.539490,461.653473 
	C882.085693,463.321167 887.069763,459.787933 888.980957,466.291443 
z"/>
<path fill="#86EAE9" opacity="1.000000" stroke="none" 
	d="
M970.029236,584.983765 
	C967.629333,585.189270 965.986145,585.304993 966.084412,582.409973 
	C966.263428,577.133240 966.135193,571.846191 966.135193,566.082886 
	C970.052612,566.469421 973.136536,566.773743 976.579956,567.113586 
	C976.579956,572.698181 976.579956,578.240723 976.579956,584.433594 
	C974.646912,584.602539 972.569519,584.784119 970.029236,584.983765 
z"/>
<path fill="#2C92D5" opacity="1.000000" stroke="none" 
	d="
M1331.663452,365.132324 
	C1332.736694,366.654816 1333.379639,368.107422 1334.022461,369.559998 
	C1331.972534,370.305542 1329.922607,371.051056 1327.335327,371.992004 
	C1327.201782,369.154297 1327.127075,367.566406 1327.024048,365.375122 
	C1328.521851,365.263855 1329.877563,365.163177 1331.663452,365.132324 
z"/>
<path fill="#37C9EE" opacity="1.000000" stroke="none" 
	d="
M564.770264,705.880127 
	C569.936768,708.609741 571.417664,714.892090 568.088562,718.932129 
	C565.818481,721.687012 562.339905,722.316528 560.392578,719.597107 
	C558.698120,717.230774 558.241821,713.502747 558.384644,710.429749 
	C558.526611,707.373962 560.955750,705.537292 564.770264,705.880127 
z"/>
<path fill="#37C9EE" opacity="1.000000" stroke="none" 
	d="
M539.511902,706.350342 
	C542.521179,706.164124 545.749451,705.771790 545.542847,709.592041 
	C545.483643,710.687622 542.440918,712.630981 540.982788,712.449036 
	C536.924133,711.942810 538.565002,708.883850 539.511902,706.350342 
z"/>
<path fill="#13538A" opacity="1.000000" stroke="none" 
	d="
M1306.203857,707.014648 
	C1305.251709,713.710938 1303.324463,715.056702 1296.578857,713.928040 
	C1296.578857,709.424500 1296.578857,704.877136 1296.578857,700.354431 
	C1303.616943,699.673401 1305.142700,700.694153 1306.203857,707.014648 
z"/>
</svg>