<?xml version="1.0" encoding="iso-8859-1"?>
<!-- Generator: Adobe Illustrator 19.0.0, SVG Export Plug-In . SVG Version: 6.00 Build 0)  -->
<svg version="1.1" id="Layer_1" xmlns="http://www.w3.org/2000/svg" xmlns:xlink="http://www.w3.org/1999/xlink" x="0px" y="0px"
	 viewBox="0 0 511.999 511.999" style="enable-background:new 0 0 511.999 511.999;" xml:space="preserve">
<g>
	<g>
		<path d="M316.817,59.506c-12.168,0-23.785,2.308-34.464,6.464c-21.15-19.611-49.462-31.608-80.579-31.608
			c-59.03,0-107.975,43.149-117.032,99.626h324.435C400.346,91.476,362.352,59.506,316.817,59.506z"/>
	</g>
</g>
<g>
	<g>
		<path d="M476.149,388.243H360.276c10.317-9.826,19.35-20.988,26.83-33.204h41.12c46.192,0,83.773-37.58,83.773-83.773
			c0-46.191-37.58-83.771-83.773-83.771h-17.113v-15.673H83.232v97.825c0,46.664,19.519,88.769,50.837,118.597H18.916
			C8.469,388.244,0,396.714,0,407.16c0,10.447,8.469,18.916,18.916,18.916h51.712l6.597,12.43
			c12.775,24.077,37.802,39.129,65.058,39.129h210.5c27.256,0,52.283-15.052,65.058-39.129l6.597-12.43h51.712
			c10.447,0,18.916-8.469,18.916-18.916S486.595,388.243,476.149,388.243z M411.113,269.646v-44.318h17.114
			c25.331,0,45.94,20.609,45.94,45.939c0,25.331-20.609,45.94-45.94,45.94h-24.138C408.65,302.154,411.113,286.188,411.113,269.646z
			"/>
	</g>
</g>
<g>
</g>
<g>
</g>
<g>
</g>
<g>
</g>
<g>
</g>
<g>
</g>
<g>
</g>
<g>
</g>
<g>
</g>
<g>
</g>
<g>
</g>
<g>
</g>
<g>
</g>
<g>
</g>
<g>
</g>
</svg>
