<?xml version="1.0" standalone="no"?>
<!DOCTYPE svg PUBLIC "-//W3C//DTD SVG 20010904//EN"
 "http://www.w3.org/TR/2001/REC-SVG-20010904/DTD/svg10.dtd">
<svg version="1.0" xmlns="http://www.w3.org/2000/svg"
 width="1591.000000pt" height="823.000000pt" viewBox="0 0 1591.000000 823.000000"
 preserveAspectRatio="xMidYMid meet">

<g transform="translate(0.000000,823.000000) scale(0.100000,-0.100000)"
fill="#000000" stroke="none">
<path d="M0 5770 l0 -2459 40 -57 c58 -83 75 -141 74 -254 -1 -109 -23 -181
-80 -255 l-34 -45 0 -115 c0 -67 5 -125 12 -140 9 -21 9 -31 0 -46 -9 -14 -12
-304 -12 -1209 l0 -1190 3830 0 3830 0 0 60 c0 53 2 60 20 60 12 0 22 -9 26
-24 8 -32 -3 -66 -22 -66 -8 0 -14 -7 -14 -15 0 -12 17 -15 90 -15 94 0 97 1
91 47 -2 10 4 10 24 1 14 -6 25 -19 25 -30 0 -17 123 -18 4005 -18 l4005 0 0
905 c0 498 -2 905 -4 905 -9 0 -82 -45 -117 -72 -35 -27 -42 -28 -143 -28 -58
0 -106 2 -106 5 0 2 20 39 45 81 25 41 45 79 45 83 0 4 -23 27 -50 50 -28 24
-47 47 -44 53 4 6 2 8 -4 5 -11 -8 -77 67 -77 88 0 7 -4 17 -9 22 -5 4 -6 3
-2 -4 4 -7 5 -13 2 -13 -8 0 -61 107 -75 150 -31 96 -31 313 0 344 5 6 9 18 9
28 0 19 51 127 73 156 7 8 28 32 48 53 20 21 34 40 32 42 -5 6 134 109 171
128 23 11 30 11 33 2 3 -7 11 -13 18 -13 7 0 15 -3 17 -8 3 -7 121 -72 132
-72 3 0 6 646 6 1435 l0 1435 -57 -44 c-76 -57 -91 -75 -95 -111 -3 -30 -3
-30 -68 -30 l-65 0 4 45 c2 42 34 110 50 110 4 0 30 22 59 48 44 41 52 54 52
85 0 26 -6 39 -19 47 -31 16 -96 12 -158 -10 -32 -11 -59 -20 -60 -20 -1 0
-14 23 -29 51 -30 60 -31 59 65 89 39 12 91 20 136 20 61 0 82 -5 129 -29 l56
-30 0 410 0 409 -27 1 c-52 1 -108 9 -134 20 -21 8 -32 6 -56 -8 -17 -10 -84
-49 -149 -87 -66 -38 -132 -78 -147 -89 -37 -25 -76 -17 -73 15 5 36 48 118
59 111 6 -3 7 -1 3 5 -4 6 4 28 17 49 13 21 34 58 46 83 l22 45 -23 19 c-13
10 -22 23 -20 28 1 5 -2 7 -8 3 -5 -3 -10 -1 -10 4 0 6 -7 11 -16 11 -8 0 -13
4 -10 9 3 5 -1 12 -10 15 -8 3 -12 11 -8 17 4 8 3 9 -4 5 -14 -9 -104 113 -97
132 2 7 1 11 -4 8 -11 -7 -47 75 -61 140 -15 66 -15 219 0 274 19 69 52 140
63 133 6 -3 7 -1 3 6 -10 15 63 123 77 114 6 -3 7 -1 3 5 -3 6 2 17 12 24 11
7 20 18 21 23 0 6 5 10 10 10 5 0 19 12 31 28 12 15 25 25 30 22 4 -3 10 2 13
10 4 8 25 24 49 37 44 23 82 32 72 17 -3 -5 1 -9 9 -9 7 0 23 -9 35 -21 13
-11 31 -21 42 -22 11 -1 20 -5 20 -9 0 -4 6 -8 14 -8 8 0 16 -4 18 -8 7 -17
81 -52 109 -52 39 0 38 20 -6 106 -19 37 -35 74 -35 82 0 8 -6 12 -14 9 -8 -3
-16 0 -19 6 -2 7 5 13 17 13 11 1 47 5 79 9 l57 8 0 43 0 44 -3655 0 -3656 0
-67 -52 c-37 -28 -69 -53 -71 -54 -2 -2 -7 -21 -10 -41 l-6 -38 -63 -3 -62 -3
0 48 c0 51 21 93 62 125 22 17 -166 18 -4179 18 l-4203 0 0 -2460z m1890 2429
c76 -38 96 -74 88 -158 -6 -56 -28 -88 -90 -133 -57 -42 -77 -68 -78 -100 0
-27 -1 -28 -60 -28 l-60 0 0 40 c0 56 18 87 89 148 65 57 79 95 44 123 -23 19
-104 14 -158 -10 -25 -11 -45 -15 -45 -10 0 6 -5 7 -12 3 -6 -4 -8 -3 -5 3 3
5 -3 26 -13 46 -11 20 -20 39 -20 41 0 4 88 42 115 49 47 12 171 4 205 -14z
m9277 -4 c65 -33 87 -74 81 -153 -5 -59 1 -51 -135 -173 -23 -21 -33 -38 -33
-59 0 -30 0 -30 -60 -30 l-60 0 0 48 c0 26 5 53 12 60 7 7 9 12 4 12 -4 0 22
25 58 56 89 75 100 127 31 146 -31 8 -102 -6 -148 -29 -27 -13 -28 -13 -40 17
-8 17 -16 28 -19 25 -2 -3 -5 1 -5 8 0 6 -4 19 -7 28 -13 30 95 67 200 68 56
1 80 -4 121 -24z m-5812 -35 c33 -12 57 -67 49 -110 -12 -58 -84 -88 -147 -59
-54 24 -63 105 -18 150 31 31 68 37 116 19z m8610 0 c56 -21 67 -121 17 -160
-28 -23 -98 -27 -123 -7 -47 36 -52 105 -10 148 31 31 68 37 116 19z m-6495
-25 c61 -5 211 -56 203 -68 -3 -6 -1 -7 5 -3 7 4 29 -2 50 -14 30 -17 41 -31
51 -66 12 -41 59 -119 111 -186 l22 -28 -251 0 -251 0 0 -27 c0 -53 -12 -55
-70 -13 l-55 39 -313 1 -313 0 15 28 c31 60 124 154 211 212 68 46 74 48 88
32 9 -9 33 -26 54 -37 21 -10 45 -25 55 -33 9 -7 22 -14 30 -16 7 -1 28 -12
45 -24 30 -21 82 -30 84 -14 0 4 2 15 4 25 2 9 -3 24 -11 31 -8 8 -14 20 -14
26 0 6 -12 32 -27 58 -33 56 -36 70 -15 71 10 1 44 5 77 10 55 8 90 7 215 -4z
m-6986 -17 c24 -7 61 -32 88 -58 38 -37 47 -53 53 -93 14 -95 -15 -143 -162
-265 -43 -35 -52 -48 -55 -80 l-3 -37 -72 -3 -73 -3 0 48 c0 67 25 108 108
176 86 69 106 113 75 156 -18 23 -28 26 -86 29 -52 2 -80 -2 -127 -22 l-61
-24 -30 60 c-17 33 -29 61 -27 63 64 53 272 83 372 53z m9268 0 c55 -16 122
-78 136 -126 26 -87 2 -155 -78 -223 -130 -109 -130 -109 -130 -150 l0 -39
-59 0 c-52 0 -61 3 -76 26 -36 55 -3 123 97 200 86 67 107 125 59 168 -29 27
-126 23 -201 -7 l-61 -25 -30 60 c-17 33 -29 61 -27 63 12 10 62 31 108 46 65
21 204 25 262 7z m-3645 -93 c130 -31 283 -133 336 -224 l18 -31 -220 0 c-255
0 -223 15 -287 -133 l-38 -88 72 -72 72 -72 -67 -165 c-36 -91 -68 -167 -70
-169 -10 -12 -148 25 -219 59 -109 53 -188 130 -239 234 -35 70 -40 87 -43
170 -2 57 2 107 10 136 l14 45 85 21 c178 46 306 119 411 234 37 41 71 69 83
69 11 1 48 -6 82 -14z m8668 -17 c87 -29 165 -80 228 -148 176 -190 168 -448
-20 -633 -29 -29 -53 -55 -53 -58 0 -3 22 -46 50 -95 52 -93 62 -134 33 -134
-9 0 -73 34 -142 75 -121 71 -127 74 -166 65 -54 -13 -192 -12 -257 1 -29 6
-91 29 -137 52 -111 54 -185 126 -236 231 -35 70 -40 87 -43 170 -2 57 2 107
10 136 l14 45 85 21 c179 46 307 119 411 235 l63 69 50 -5 c27 -4 77 -15 110
-27z m-6322 -69 c23 -28 22 -81 -2 -110 -15 -19 -29 -24 -66 -24 -37 0 -51 5
-66 24 -34 41 -21 112 24 131 33 14 90 3 110 -21z m-4885 -135 c66 -33 92 -74
92 -145 -1 -71 -14 -92 -101 -165 -42 -35 -76 -71 -79 -85 -5 -20 -16 -26 -63
-38 -32 -7 -61 -11 -64 -7 -16 15 -2 92 23 128 15 21 30 38 34 38 4 0 28 19
54 43 50 47 61 91 30 121 -20 20 -95 20 -149 0 -75 -29 -72 -30 -99 25 -14 28
-26 52 -26 55 0 5 97 43 125 49 11 3 54 5 96 6 62 1 84 -3 127 -25z m9275 2
c89 -44 117 -162 58 -243 -16 -22 -44 -50 -63 -61 -50 -31 -86 -74 -90 -107
-3 -30 -3 -30 -68 -30 l-65 0 3 45 c4 56 30 99 83 135 22 16 49 40 60 53 25
33 25 88 0 102 -31 16 -96 12 -158 -10 -32 -11 -59 -20 -60 -20 -3 0 -53 97
-53 104 0 4 95 42 125 50 48 11 191 0 228 -18z m-6159 -102 c-4 -15 -14 -52
-23 -83 l-17 -56 -100 -3 -100 -3 -118 -357 c-65 -196 -121 -360 -125 -365 -4
-4 -80 -6 -168 -5 l-161 3 144 360 c79 198 144 361 144 362 0 2 -43 3 -95 3
-52 0 -95 4 -95 9 0 5 16 43 35 85 l34 76 326 0 325 0 -6 -26z m639 -30 c65
-54 68 -58 63 -93 -3 -20 -8 -60 -12 -89 l-6 -52 -89 -53 c-49 -28 -87 -56
-86 -62 2 -5 36 -32 75 -59 84 -58 80 -37 54 -276 l-18 -155 -172 -3 c-94 -1
-172 1 -172 5 0 5 12 73 25 153 l25 145 -58 52 c-47 44 -58 50 -63 35 -3 -9
-23 -101 -45 -204 l-38 -188 -163 0 c-124 0 -163 3 -163 13 0 6 55 209 122
450 l123 437 265 0 266 0 67 -56z m402 -51 c-5 -103 -25 -707 -25 -765 l0 -28
-165 0 c-164 0 -165 0 -165 23 0 12 14 153 30 312 17 160 35 337 40 395 6 58
13 120 16 138 l5 32 135 0 134 0 -5 -107z m306 32 c9 -38 31 -133 49 -210 61
-261 90 -378 94 -383 9 -8 15 38 35 248 11 113 26 253 32 313 l12 107 130 0
130 0 -6 -62 c-4 -35 -14 -117 -23 -183 -8 -66 -30 -239 -48 -385 l-32 -265
-218 0 -218 0 -109 435 c-60 239 -109 441 -109 448 0 10 30 12 132 10 l132 -3
17 -70z m896 -367 c56 -243 99 -446 97 -450 -3 -4 -77 -8 -164 -8 l-158 0 -6
28 c-4 15 -17 101 -31 192 -13 91 -36 244 -50 340 -15 96 -32 212 -39 258
l-13 82 131 0 131 0 102 -442z m790 5 c165 -241 303 -444 307 -450 6 -10 -32
-13 -172 -13 l-180 0 -49 83 -49 82 -93 3 -92 3 7 -86 7 -85 -182 0 -181 0 0
53 c0 28 7 225 15 437 8 212 15 391 15 398 0 9 42 12 174 12 l173 0 300 -437z
m-7907 409 c28 -22 30 -80 4 -115 -16 -21 -25 -24 -59 -19 -56 7 -71 17 -78
52 -8 36 5 75 30 89 28 16 78 13 103 -7z m9268 2 c28 -20 31 -93 5 -116 -47
-40 -126 -23 -136 31 -12 59 18 101 72 101 20 0 47 -7 59 -16z m-10693 -224
c33 -12 57 -67 49 -110 -12 -58 -84 -88 -147 -59 -54 24 -63 105 -18 150 31
31 68 37 116 19z m9300 -24 c7 -11 16 -34 20 -51 l6 -30 -23 27 c-13 15 -31
41 -41 57 -17 28 -17 29 4 24 11 -3 26 -15 34 -27z m-7185 -2 c25 -3 68 -12
95 -21 28 -10 53 -16 58 -15 4 1 7 -2 7 -6 0 -5 6 -9 14 -9 25 0 123 -52 123
-66 0 -30 57 -135 109 -199 l55 -69 -20 -33 c-12 -18 -35 -67 -53 -107 -29
-69 -31 -84 -34 -205 -3 -119 -1 -138 22 -203 14 -40 36 -93 50 -117 l25 -45
-28 -28 c-39 -38 -99 -83 -153 -114 l-45 -26 -40 20 c-154 76 -407 81 -567 12
-21 -9 -35 -20 -31 -26 3 -6 1 -7 -6 -3 -29 18 -204 -128 -231 -193 -13 -32
-69 -67 -93 -58 -9 3 -14 15 -13 29 4 28 37 98 47 98 4 0 10 11 13 25 4 14 11
25 17 25 6 0 8 4 5 9 -3 5 4 20 15 35 11 14 18 26 15 26 -3 0 4 17 15 37 l21
37 -28 24 c-16 13 -39 33 -52 43 -13 11 -20 24 -17 30 4 5 1 8 -7 7 -7 -2 -12
3 -11 9 2 7 -2 12 -8 10 -22 -4 -104 127 -134 215 -33 99 -36 260 -6 354 33
104 115 242 140 236 7 -1 10 1 7 6 -10 16 52 72 153 140 39 26 48 29 75 19 17
-6 39 -19 50 -28 10 -10 22 -16 26 -14 4 3 13 -2 20 -10 7 -8 19 -15 26 -15 8
0 14 -4 14 -10 0 -5 6 -10 13 -10 7 0 23 -9 35 -20 26 -24 80 -27 89 -4 5 13
-18 68 -73 176 l-14 27 57 6 c32 3 67 8 78 10 20 3 84 -1 175 -11z m9345 -16
c101 -25 225 -83 225 -105 0 -44 75 -165 144 -234 l72 -72 -63 -116 c-35 -64
-62 -125 -61 -136 4 -28 47 -31 89 -7 19 10 60 34 92 51 l57 33 0 -80 c0 -45
-5 -84 -10 -87 -6 -4 -8 -11 -4 -16 3 -5 1 -24 -5 -42 -10 -29 -22 -38 -89
-67 -152 -66 -281 -183 -358 -328 l-42 -77 -63 -17 c-82 -21 -283 -24 -359 -4
l-55 15 -68 -40 c-38 -21 -71 -39 -74 -39 -3 0 -17 -9 -31 -21 -22 -17 -35
-19 -72 -14 -87 13 -100 14 -100 5 0 -6 -4 -10 -9 -10 -15 0 -4 46 21 86 13
21 37 64 52 93 l28 55 -23 19 c-51 40 -98 90 -93 98 3 5 0 8 -7 7 -11 -3 -92
102 -84 110 2 3 -2 11 -10 18 -7 8 -25 49 -39 91 -21 64 -26 97 -26 183 0 160
38 263 147 397 60 74 142 143 169 143 8 0 13 4 10 9 -3 4 6 13 20 20 31 14 47
14 39 1 -3 -5 0 -10 7 -10 19 0 68 -23 68 -32 0 -5 5 -8 11 -8 6 0 31 -13 56
-30 24 -16 50 -30 57 -30 8 0 17 -7 20 -16 6 -17 45 -11 58 10 8 11 1 47 -11
56 -3 3 -8 14 -9 25 -2 11 -12 29 -23 41 -10 11 -19 26 -19 32 0 7 -4 12 -10
12 -13 0 -13 27 0 35 21 13 138 23 215 18 44 -2 116 -14 160 -25z m-10708 -93
c192 -45 354 -192 398 -360 41 -158 -6 -314 -131 -438 l-56 -56 51 -95 c85
-157 69 -166 -107 -63 -123 73 -130 75 -167 67 -62 -15 -204 -12 -270 5 -165
42 -292 141 -360 279 -35 70 -40 87 -43 170 -2 57 2 107 10 136 l14 45 85 21
c178 46 304 117 410 233 37 40 73 70 84 70 11 0 48 -6 82 -14z m9270 0 c192
-45 354 -192 398 -360 41 -158 -4 -310 -128 -434 l-60 -59 52 -96 c54 -101 62
-136 34 -136 -9 0 -73 33 -143 74 -121 72 -128 74 -165 66 -48 -11 -226 -13
-240 -2 -6 4 -28 28 -48 54 -48 59 -128 120 -218 168 l-71 37 131 77 c72 42
131 82 131 89 0 6 -38 66 -84 132 l-83 120 66 29 c99 43 191 108 262 185 37
40 73 70 84 70 11 0 48 -6 82 -14z m2346 -86 c23 -28 22 -81 -2 -110 -15 -19
-29 -24 -66 -24 -37 0 -51 5 -66 24 -34 41 -21 112 24 131 33 14 90 3 110 -21z
m-7598 -74 c74 -36 107 -103 91 -188 -7 -37 -28 -63 -90 -112 -62 -49 -77 -68
-74 -95 3 -24 1 -25 -57 -25 l-60 0 0 53 c1 53 1 54 73 121 73 68 84 91 59
125 -20 28 -116 22 -180 -10 -27 -15 -27 -15 -50 38 -22 48 -22 54 -7 65 56
40 233 57 295 28z m-1401 -87 c24 -7 61 -32 88 -58 38 -37 47 -53 53 -93 14
-95 -15 -143 -163 -265 -47 -39 -52 -47 -52 -83 l0 -39 -75 0 -75 0 0 48 c0
66 25 108 108 175 86 69 106 113 75 156 -18 23 -28 26 -86 29 -52 2 -80 -2
-127 -22 l-61 -24 -30 60 c-17 33 -29 61 -27 63 64 53 272 83 372 53z m1324
-414 c17 -12 22 -25 22 -58 0 -53 -29 -84 -77 -81 -51 4 -78 27 -81 69 -5 70
77 112 136 70z m-1395 -242 c15 -15 20 -34 20 -68 0 -39 -4 -51 -27 -71 -30
-26 -99 -31 -127 -10 -48 37 -52 105 -9 149 28 27 36 30 77 25 27 -3 54 -13
66 -25z m2052 -6 c11 -2 43 -7 70 -11 28 -4 55 -10 60 -15 6 -4 26 -11 45 -15
52 -11 157 -63 157 -79 0 -7 17 -48 39 -92 28 -58 57 -98 110 -150 40 -40 69
-76 64 -80 -17 -20 -120 -223 -120 -238 0 -19 37 -36 60 -28 8 3 34 18 57 34
23 15 45 28 50 28 4 0 19 9 33 20 14 11 28 20 31 20 3 0 7 -27 8 -60 1 -49 -1
-60 -14 -60 -9 0 -30 -13 -46 -29 -28 -29 -29 -32 -29 -131 0 -101 -1 -103
-34 -149 -35 -47 -126 -140 -126 -129 0 3 -13 -6 -29 -21 -58 -55 -295 -150
-341 -138 -11 3 -18 2 -15 -3 7 -12 -202 -12 -270 0 -91 17 -105 18 -105 10 0
-4 -10 -12 -22 -18 -13 -6 -45 -25 -73 -42 -27 -16 -61 -36 -75 -43 -14 -7
-44 -24 -67 -39 -23 -15 -48 -29 -55 -30 -7 -2 -19 -9 -26 -15 -18 -17 -37
-16 -53 3 -14 17 -11 23 91 214 51 94 51 95 31 111 -11 9 -17 19 -14 23 4 3 0
6 -8 6 -21 0 -71 49 -63 62 4 6 3 8 -4 5 -13 -9 -64 51 -56 65 4 6 2 8 -3 5
-13 -8 -65 88 -93 173 -28 85 -30 239 -6 325 33 114 83 193 182 292 67 66 99
91 113 88 12 -2 18 1 15 8 -2 7 9 20 26 29 16 9 30 13 30 8 0 -5 12 -15 28
-23 40 -20 106 -58 117 -67 6 -4 30 -19 55 -32 80 -43 106 -16 63 68 -15 30
-31 54 -35 54 -4 0 -8 11 -8 24 0 13 -6 26 -12 29 -10 3 -10 7 -1 17 22 23
182 33 268 16z m3936 2 c83 -28 119 -77 119 -161 0 -67 -31 -113 -114 -172
-31 -22 -59 -50 -62 -62 -6 -22 -17 -26 -101 -36 -32 -3 -33 -2 -33 32 0 47
24 81 96 139 50 40 59 53 62 84 2 23 -3 41 -13 52 -22 22 -89 20 -160 -4 -31
-11 -61 -18 -64 -15 -4 2 -16 22 -26 45 -17 37 -17 42 -3 57 45 44 220 69 299
41z m-1791 -30 c0 -5 -7 -8 -15 -8 -15 0 -20 21 -8 33 7 7 23 -11 23 -25z
m6285 2 c74 -35 95 -66 95 -140 0 -61 -14 -84 -89 -147 -57 -47 -71 -65 -77
-95 l-7 -38 -58 0 -59 0 0 40 c0 56 18 87 89 148 65 57 79 95 45 123 -23 19
-102 14 -157 -10 l-48 -21 -21 48 c-12 26 -24 50 -25 53 -4 6 76 43 112 52 53
13 161 6 200 -13z m-9700 -102 c166 -55 300 -191 339 -343 29 -108 14 -226
-40 -324 -25 -45 -82 -116 -89 -109 -2 1 -26 38 -54 80 -82 122 -183 196 -340
250 -91 31 -103 33 -236 32 -138 0 -193 -11 -307 -59 -16 -6 -18 -1 -17 46 0
30 6 72 12 94 l12 39 100 27 c169 44 296 117 398 230 l62 69 50 -5 c27 -4 77
-15 110 -27z m3475 7 c28 -30 29 -78 3 -107 -17 -18 -87 -25 -109 -10 -37 24
-40 88 -7 125 25 27 84 22 113 -8z m4824 13 c24 -7 61 -32 88 -58 38 -37 47
-53 53 -93 14 -95 -15 -143 -163 -265 -47 -39 -52 -47 -52 -83 l0 -39 -75 0
-75 0 0 48 c0 66 25 108 108 175 82 67 105 111 78 152 -31 47 -131 50 -231 6
l-45 -20 -31 61 c-17 33 -29 61 -27 63 64 53 272 83 372 53z m-6011 -89 c23
-28 22 -81 -2 -110 -15 -19 -29 -24 -66 -24 -37 0 -51 5 -66 24 -32 39 -19
113 23 131 34 14 91 4 111 -21z m1857 -161 c20 0 144 -32 198 -52 64 -23 122
-58 122 -73 0 -20 59 -139 75 -153 20 -16 19 -26 -6 -61 l-20 -29 -580 0
c-318 0 -579 3 -579 6 0 17 87 122 98 119 7 -3 11 -1 8 4 -8 12 84 93 166 144
27 17 29 16 48 -3 11 -11 20 -18 20 -15 0 3 10 -3 22 -15 12 -11 37 -25 55
-32 18 -7 33 -15 33 -19 0 -4 14 -12 30 -19 17 -7 30 -16 30 -20 0 -15 61 -23
73 -10 9 10 9 11 -3 5 -13 -8 -13 -6 -2 7 11 14 8 26 -17 80 -16 35 -39 74
-50 87 -20 23 -20 26 -5 34 9 5 42 12 73 14 31 3 58 7 61 10 3 2 34 1 70 -2
36 -4 72 -8 80 -7z m-6122 -44 c20 -8 52 -29 70 -46 30 -30 32 -37 32 -96 0
-64 0 -65 -48 -111 -26 -25 -65 -61 -86 -79 -29 -25 -37 -39 -34 -60 3 -27 2
-27 -59 -30 l-63 -3 0 43 c0 51 18 89 58 123 72 60 92 84 92 108 0 13 -7 30
-16 37 -22 19 -106 14 -159 -9 l-46 -20 -15 34 c-8 19 -18 35 -22 35 -4 0 -8
8 -9 19 -4 53 214 93 305 55z m4779 -69 c130 -31 283 -133 336 -224 l18 -31
-403 0 -403 1 70 35 c91 46 160 99 226 173 32 36 62 61 74 61 11 0 48 -7 82
-15z m-6173 -17 c24 -7 61 -32 88 -58 38 -37 47 -53 53 -93 14 -95 -15 -143
-163 -265 -47 -39 -52 -47 -52 -83 l0 -39 -75 0 -75 0 0 48 c0 66 25 108 107
174 82 67 104 107 82 147 -23 41 -73 53 -152 36 -36 -7 -79 -21 -96 -29 l-31
-16 -30 61 c-17 34 -30 62 -28 64 64 53 272 83 372 53z m13001 -29 c11 -2 13
-12 16 -70 4 -51 -31 -75 -104 -71 -51 3 -70 90 -30 134 17 19 46 20 118 7z
m-2928 -124 c65 -33 87 -74 81 -153 -5 -59 1 -51 -135 -173 -23 -21 -33 -38
-33 -59 0 -30 0 -30 -60 -30 l-60 0 0 48 c0 26 5 53 12 60 7 7 9 12 4 12 -4 0
22 25 58 56 89 75 100 127 31 146 -31 8 -102 -6 -148 -29 -27 -13 -28 -13 -40
17 -8 17 -16 28 -19 25 -2 -3 -5 1 -5 8 0 6 -4 19 -7 28 -13 30 95 67 200 68
56 1 80 -4 121 -24z m-1415 -77 c55 -16 122 -78 136 -126 26 -87 2 -155 -78
-223 -130 -109 -130 -109 -130 -150 0 -38 -1 -39 -35 -39 l-35 0 0 103 1 102
45 34 c96 70 91 166 -9 173 -31 2 -37 6 -37 24 0 32 -45 81 -83 90 -32 7 -32
7 -7 15 41 12 189 10 232 -3z m2913 -28 c33 -12 57 -67 49 -110 -12 -58 -84
-88 -147 -59 -54 24 -63 105 -18 150 31 31 68 37 116 19z m2165 -36 c76 -16
110 -28 189 -67 48 -24 48 -24 87 -112 30 -69 77 -132 143 -192 l46 -42 -62
-119 c-35 -66 -63 -127 -63 -135 0 -9 9 -21 19 -26 20 -11 31 -6 168 70 l56
31 -5 -93 c-6 -110 -38 -214 -92 -294 -51 -77 -162 -189 -178 -179 -7 4 -10 4
-6 -1 10 -11 -53 -57 -70 -50 -7 2 -11 1 -8 -4 8 -13 -121 -69 -214 -92 -70
-18 -101 -20 -213 -15 -73 3 -151 8 -175 12 -37 5 -50 2 -110 -34 -111 -66
-142 -82 -142 -74 0 4 -5 -1 -11 -10 -5 -10 -15 -18 -20 -18 -6 0 -23 -8 -37
-18 -29 -20 -31 -20 -79 -8 l-33 7 31 60 c18 37 34 57 41 53 7 -4 8 -3 4 5 -4
6 11 45 34 87 23 42 40 77 38 79 -111 91 -172 165 -219 263 -48 100 -61 155
-61 266 0 106 18 179 64 270 24 48 107 166 116 166 4 0 30 21 57 45 64 58 129
97 149 89 9 -3 16 -10 16 -15 0 -5 7 -9 16 -9 9 0 28 -9 43 -19 15 -11 34 -21
41 -23 8 -2 22 -10 32 -19 10 -9 31 -22 46 -30 15 -8 30 -18 33 -23 11 -15 59
3 59 22 0 22 -22 72 -32 72 -5 0 -8 9 -8 20 0 11 -4 20 -10 20 -5 0 -10 9 -10
20 0 11 -4 20 -10 20 -5 0 -10 10 -10 23 0 18 -2 19 -10 7 -6 -9 -10 -10 -10
-3 0 19 17 25 93 32 96 8 186 3 277 -15z m-10651 -20 c68 -34 91 -71 91 -144
-1 -72 -14 -93 -101 -166 -60 -49 -75 -67 -79 -95 l-5 -34 -62 -3 -63 -3 0 47
c0 57 25 101 81 139 52 37 79 71 79 103 0 63 -67 79 -175 42 -32 -11 -60 -20
-61 -20 -8 0 -55 103 -50 108 4 3 37 16 74 29 97 33 201 32 271 -3z m9296 -96
c166 -55 300 -191 339 -343 42 -158 -5 -313 -130 -438 l-56 -55 51 -96 c54
-101 62 -136 34 -136 -9 0 -74 34 -145 76 -123 72 -129 75 -165 65 -55 -16
-198 -13 -272 4 -78 19 -186 74 -245 127 -52 45 -122 145 -131 187 -6 29 -8
30 -73 33 l-67 3 3 45 c4 55 30 100 77 131 22 15 40 38 48 64 13 39 14 40 100
62 173 44 282 105 392 219 l80 83 50 -5 c27 -3 77 -14 110 -26z m-11055 -8
c13 -13 20 -33 20 -58 0 -58 -31 -79 -108 -74 -28 2 -55 60 -46 97 13 53 95
74 134 35z m13343 -61 c23 -28 22 -81 -2 -110 -15 -19 -29 -24 -66 -24 -37 0
-51 5 -66 24 -34 41 -21 112 24 131 33 14 90 3 110 -21z m-14740 -177 c15 -15
20 -34 20 -68 0 -39 -4 -51 -27 -71 -46 -39 -132 -26 -155 24 -22 49 -7 112
33 132 32 16 105 7 129 -17z m10055 12 c28 -20 31 -93 5 -116 -47 -40 -126
-23 -136 31 -12 59 18 101 72 101 20 0 47 -7 59 -16z m-7975 -19 c93 -9 277
-77 277 -102 0 -7 7 -10 15 -7 8 4 15 2 16 -2 6 -65 66 -169 143 -246 l70 -71
-62 -118 c-66 -125 -71 -143 -46 -153 30 -11 46 -6 131 44 47 28 87 50 89 50
8 0 4 -165 -5 -178 -6 -10 -24 -7 -87 14 -167 56 -428 50 -574 -14 -152 -66
-227 -117 -317 -216 -59 -66 -125 -190 -144 -271 -21 -93 -19 -92 -77 -25 -46
51 -51 62 -42 80 10 18 2 29 -67 95 -43 41 -78 79 -78 83 0 5 -8 17 -19 27
-22 22 -71 126 -92 193 -17 58 -20 225 -3 284 15 56 16 62 18 71 2 16 55 114
82 152 60 85 191 201 213 188 6 -3 8 -3 4 2 -5 5 6 17 22 27 31 18 57 26 30 8
-12 -8 -10 -10 8 -10 13 0 20 -4 17 -10 -3 -5 1 -10 9 -10 8 0 38 -13 66 -30
28 -16 55 -30 60 -30 6 0 10 -4 10 -10 0 -5 7 -10 15 -10 8 0 15 -3 15 -8 0
-4 14 -13 31 -21 34 -15 49 -7 52 27 1 23 -60 150 -83 170 -8 8 -10 11 -3 8 6
-4 13 -1 15 6 2 6 36 14 79 18 73 6 99 6 212 -5z m1614 -37 c-3 -7 -5 -2 -5
12 0 14 2 19 5 13 2 -7 2 -19 0 -25z m-2912 -90 c166 -55 300 -191 339 -343
42 -158 -5 -313 -132 -440 l-53 -53 30 -60 30 -59 -81 -6 c-75 -6 -85 -5 -123
18 -35 20 -47 22 -81 15 -60 -14 -213 -11 -274 5 -157 41 -290 146 -355 279
-35 70 -40 87 -43 170 -2 57 2 107 10 136 l14 45 85 21 c178 46 304 118 410
234 l64 70 50 -6 c27 -3 77 -14 110 -26z m7380 -148 l0 -175 -1225 0 -1225 0
-3 165 c-1 90 0 170 2 177 4 11 236 13 1228 11 l1223 -3 0 -175z m-5092 79
c21 -26 22 -77 2 -106 -20 -29 -75 -39 -112 -21 -55 26 -55 125 -1 148 34 14
91 4 111 -21z m5562 -9 c33 -12 57 -67 49 -110 -7 -34 -46 -70 -75 -70 -17 0
-19 9 -19 95 0 52 4 95 9 95 5 0 21 -4 36 -10z m2190 -42 c101 -25 225 -83
225 -105 0 -44 75 -165 145 -235 72 -71 72 -72 56 -99 -14 -26 -19 -27 -91
-27 -99 0 -102 -1 -97 -9 3 -5 -14 -8 -36 -8 -56 -1 -137 -33 -147 -59 -8 -19
-9 -19 -9 -2 -1 15 -4 16 -16 6 -8 -7 -12 -16 -9 -21 3 -5 -3 -12 -13 -16 -19
-6 -82 -55 -135 -104 -19 -17 -27 -32 -23 -40 5 -7 4 -10 -3 -5 -9 5 -29 -32
-23 -42 1 -2 -10 -13 -24 -24 -17 -13 -25 -27 -22 -39 3 -11 2 -17 -1 -15 -4
2 -13 -2 -19 -10 -9 -9 -9 -15 -2 -19 6 -4 7 -19 4 -36 -4 -16 -7 -58 -7 -94
0 -36 -4 -68 -9 -70 -11 -8 18 -100 55 -170 17 -33 32 -63 34 -67 2 -5 -21 -8
-51 -8 l-54 0 4 122 c2 67 -1 124 -5 127 -11 7 -52 128 -52 151 0 49 -146 222
-245 290 -88 60 -257 130 -317 130 -15 0 -28 4 -28 10 0 5 -7 7 -16 3 -41 -16
30 131 113 234 60 74 142 143 169 143 8 0 13 4 10 9 -3 4 6 13 20 20 31 14 47
14 39 1 -3 -5 0 -10 7 -10 19 0 68 -23 68 -32 0 -5 5 -8 11 -8 6 0 31 -13 56
-30 24 -16 50 -30 57 -30 8 0 17 -7 20 -16 6 -17 45 -11 58 10 8 11 1 47 -11
56 -3 3 -8 14 -9 25 -2 11 -12 29 -23 41 -10 11 -19 26 -19 32 0 7 -4 12 -10
12 -13 0 -13 27 0 35 21 13 138 23 215 18 44 -2 116 -14 160 -25z m-1438 -93
c189 -44 369 -207 399 -361 l6 -31 -89 -6 c-160 -11 -307 -65 -431 -157 -122
-92 -195 -181 -241 -297 -15 -37 -24 -47 -40 -46 -34 4 -125 69 -174 123 l-47
52 0 -31 c0 -50 -24 -85 -105 -150 l-75 -61 0 77 c1 53 5 84 15 97 19 25 19
70 0 90 -10 10 -15 35 -15 75 0 72 8 75 84 37 38 -19 46 -21 40 -7 -14 31 -15
194 -2 241 l14 44 99 27 c174 45 298 118 405 237 31 35 64 61 75 61 11 0 48
-6 82 -14z m2346 -86 c23 -28 22 -81 -2 -110 -15 -19 -29 -24 -66 -24 -37 0
-51 5 -66 24 -34 41 -21 112 24 131 33 14 90 3 110 -21z m-6445 -331 l-3 -43
-33 64 c-18 34 -32 64 -30 66 2 1 17 9 33 18 l30 15 3 -39 c2 -21 2 -58 0 -81z
m2877 -218 l0 -175 -1225 0 -1225 0 -3 165 c-1 90 0 170 2 177 4 11 236 13
1228 11 l1223 -3 0 -175z m-8718 15 c64 -32 87 -74 81 -150 -5 -56 -25 -91
-73 -124 -66 -45 -95 -79 -95 -110 l0 -31 -60 0 -60 0 0 40 c0 56 18 87 89
148 49 43 61 59 61 83 0 24 -6 33 -33 44 -37 15 -106 7 -156 -20 l-30 -15 -25
52 c-14 29 -22 56 -18 60 4 3 34 16 67 27 88 30 187 28 252 -4z m4428 5 c81
-38 90 -53 90 -139 0 -85 2 -81 -80 -146 -71 -56 -85 -74 -85 -107 0 -28 -1
-28 -58 -28 -32 0 -61 2 -64 5 -3 3 -1 29 3 58 8 48 14 57 79 117 74 68 88
102 54 130 -22 19 -106 14 -159 -9 l-46 -20 -24 52 -24 52 27 14 c83 44 218
54 287 21z m7410 1 c22 -10 51 -31 65 -45 22 -24 25 -37 25 -97 l0 -70 -45
-42 c-25 -23 -62 -57 -83 -75 -27 -24 -37 -40 -37 -62 0 -30 0 -30 -58 -30
-32 0 -61 2 -64 5 -3 3 -1 29 3 58 8 48 14 57 79 117 55 51 70 71 70 93 0 55
-84 66 -183 24 l-38 -16 -19 45 c-11 25 -20 52 -20 59 0 22 115 54 195 54 48
0 83 -5 110 -18z m-8811 -83 c24 -7 61 -32 88 -58 38 -37 47 -53 53 -93 14
-95 -15 -143 -163 -265 -47 -39 -52 -47 -52 -83 l0 -39 -75 0 -75 0 0 48 c0
66 25 108 107 174 82 67 104 107 82 147 -23 41 -73 53 -152 36 -36 -7 -79 -21
-96 -29 l-31 -16 -30 61 c-17 34 -30 62 -28 64 64 53 272 83 372 53z m7419 -4
c65 -22 123 -87 133 -149 13 -93 -17 -141 -164 -263 -47 -39 -52 -47 -52 -83
l0 -39 -75 0 -75 0 0 48 c0 66 25 107 104 172 75 61 101 100 92 136 -15 60
-119 74 -226 30 l-61 -24 -30 60 c-17 33 -29 61 -27 63 67 56 280 84 381 49z
m-8773 -311 c63 -33 90 -77 90 -143 -1 -68 -19 -99 -101 -165 -65 -54 -74 -66
-77 -98 l-3 -37 -65 0 -64 0 0 41 c0 59 23 97 96 157 57 47 64 57 64 89 0 22
-7 41 -17 49 -24 18 -99 17 -148 -2 -75 -29 -72 -30 -100 26 -14 29 -24 55
-21 58 4 3 37 16 74 29 99 33 203 32 272 -4z m4166 -119 c-3 -8 -10 -14 -16
-14 -10 0 -64 99 -58 106 2 2 19 10 38 18 l35 14 3 -55 c2 -31 1 -62 -2 -69z
m-5915 15 c16 -26 10 -95 -10 -113 -20 -18 -62 -23 -98 -12 -46 15 -51 108 -6
135 23 15 103 7 114 -10z m4429 3 c28 -23 31 -83 6 -110 -22 -25 -61 -33 -97
-20 -52 18 -60 109 -12 137 28 16 78 13 103 -7z m7408 2 c33 -23 31 -95 -3
-122 -14 -11 -33 -19 -43 -17 -65 13 -70 16 -80 43 -13 38 -4 79 21 97 28 19
77 19 105 -1z m3397 -13 c64 -29 95 -73 95 -133 0 -66 -21 -106 -78 -148 -69
-51 -92 -79 -92 -111 0 -29 -1 -29 -58 -29 -32 0 -61 2 -64 5 -3 3 -1 29 3 58
8 48 14 57 79 117 73 69 88 103 54 131 -23 19 -104 14 -158 -9 l-47 -21 -19
44 c-11 25 -24 45 -30 45 -27 0 26 34 78 51 76 24 185 24 237 0z m-5995 -66
c0 -16 -5 -37 -10 -45 -7 -11 -10 3 -10 45 0 42 3 56 10 45 5 -8 10 -28 10
-45z m4594 -17 c24 -7 61 -32 88 -58 38 -37 47 -53 53 -93 14 -95 -15 -143
-163 -265 -47 -39 -52 -47 -52 -83 l0 -39 -75 0 -75 0 0 48 c0 66 25 108 108
175 86 69 106 113 75 156 -18 23 -28 26 -86 29 -52 2 -80 -2 -127 -22 l-61
-24 -30 60 c-17 33 -29 61 -27 63 64 53 272 83 372 53z m-10829 -128 c56 -21
67 -121 17 -160 -45 -36 -129 -21 -151 27 -42 92 36 170 134 133z m7410 0 c56
-21 67 -121 17 -160 -45 -36 -129 -21 -151 27 -42 92 36 170 134 133z m-9663
-40 c42 -10 109 -34 150 -53 69 -32 74 -36 85 -78 16 -61 85 -164 152 -227
l56 -53 -62 -119 c-35 -66 -63 -126 -63 -134 0 -9 9 -20 20 -26 17 -9 35 -3
109 39 49 28 94 51 101 51 10 0 11 -21 7 -87 -6 -96 -24 -160 -68 -240 l-29
-52 33 -16 c98 -46 141 -156 98 -250 -17 -38 -37 -59 -149 -153 -42 -35 -51
-48 -54 -80 l-3 -37 -72 -3 -73 -3 0 48 c0 67 25 108 104 173 96 78 113 115
76 162 -21 28 -66 42 -73 24 -8 -21 -146 -109 -199 -127 -29 -10 -48 -19 -43
-19 16 -1 -64 -28 -135 -44 -72 -17 -270 -16 -350 2 -39 9 -51 7 -85 -11 -22
-12 -48 -28 -57 -35 -9 -8 -22 -11 -29 -6 -7 4 -10 3 -6 -2 6 -10 -224 -144
-248 -144 -26 0 -27 38 -2 84 13 25 28 42 32 38 5 -4 5 -2 2 4 -6 11 21 71 62
134 8 14 16 27 16 30 0 3 7 16 14 29 8 14 9 21 2 17 -18 -11 -163 142 -203
214 -60 108 -79 180 -79 301 0 82 5 120 21 170 24 70 67 154 108 209 33 45
129 135 162 152 14 7 41 24 59 38 19 14 32 19 27 13 -4 -8 -2 -13 7 -13 8 0
24 -9 37 -20 13 -11 27 -20 32 -20 4 0 38 -18 74 -40 36 -22 70 -40 75 -40 5
0 9 -4 9 -10 0 -5 10 -10 23 -10 24 0 53 35 37 45 -6 3 -10 15 -10 25 0 10 -3
20 -7 22 -11 4 -74 130 -69 136 10 9 155 19 226 15 41 -3 109 -13 152 -23z
m4438 2 c62 -15 188 -67 209 -86 10 -9 23 -33 29 -54 18 -58 87 -160 153 -223
l58 -56 -22 -34 c-48 -73 -110 -206 -104 -222 11 -29 53 -19 144 33 l88 51 3
-70 c3 -74 -14 -157 -48 -234 -12 -26 -25 -47 -31 -47 -6 0 -8 -4 -5 -9 11
-16 -71 -115 -90 -109 -5 1 -43 -1 -84 -6 -145 -14 -317 -93 -433 -197 -60
-54 -69 -59 -112 -59 -25 0 -77 5 -115 11 -38 7 -77 9 -87 5 -10 -4 -20 -7
-22 -6 -2 1 -7 -2 -10 -8 -3 -5 -28 -21 -56 -37 -27 -15 -93 -54 -146 -87 -98
-59 -123 -68 -133 -45 -3 6 -3 2 0 -11 6 -24 -24 -59 -118 -134 -36 -29 -47
-46 -50 -70 l-3 -33 -65 0 -65 0 4 45 c3 54 31 102 74 131 65 45 87 71 87 105
0 18 -7 40 -16 48 -22 22 -92 20 -161 -4 -32 -11 -59 -20 -60 -20 -5 0 -54
102 -51 105 2 2 26 14 53 26 36 15 77 23 145 26 90 5 98 3 149 -24 36 -18 60
-39 70 -60 9 -18 18 -33 22 -33 3 0 31 48 62 106 l56 106 -41 37 c-40 35 -60
56 -113 116 -30 35 -89 153 -109 218 -8 26 -14 95 -15 159 -1 96 3 123 23 181
14 38 32 79 40 92 9 14 17 28 17 32 5 38 171 209 190 197 7 -4 9 -3 6 3 -9 14
19 37 34 27 7 -4 9 -3 6 3 -3 5 8 17 25 27 23 14 32 16 38 6 4 -7 13 -9 19 -6
6 4 11 3 11 -1 0 -5 24 -21 53 -36 28 -16 66 -37 82 -47 57 -37 65 -41 65 -34
0 3 7 1 15 -6 33 -27 58 41 26 73 -6 6 -11 19 -11 29 0 10 -4 18 -10 18 -5 0
-10 6 -10 14 0 8 -4 16 -10 18 -5 2 -12 17 -16 34 -6 29 -4 32 22 37 16 3 54
6 84 7 30 1 55 2 57 3 5 5 162 -11 203 -21z m7335 12 c28 -4 53 -7 58 -6 4 1
7 -2 7 -8 0 -5 6 -7 13 -4 16 6 131 -35 187 -67 28 -16 40 -31 50 -63 6 -22
29 -70 51 -107 21 -36 47 -96 58 -135 10 -38 24 -84 32 -101 13 -31 11 -37
-24 -102 -42 -79 -45 -96 -16 -111 16 -9 30 -6 76 20 l56 32 42 -42 42 -41 -9
-55 c-13 -85 -107 -262 -130 -248 -7 4 -8 2 -4 -5 10 -15 -84 -113 -102 -106
-7 2 -10 0 -7 -5 14 -23 -140 -108 -270 -150 -88 -29 -295 -39 -386 -20 -58
12 -62 15 -96 69 -19 31 -49 71 -67 90 -74 79 -208 156 -314 181 -45 10 -55
17 -71 49 -113 222 -76 487 95 681 51 58 194 171 194 153 0 -4 7 2 15 13 8 11
15 14 15 7 0 -7 7 -13 15 -13 8 0 15 -3 15 -8 0 -4 14 -13 31 -21 17 -7 42
-24 56 -37 14 -13 28 -22 32 -21 3 1 27 -11 54 -27 26 -15 54 -25 62 -22 36
13 28 41 -51 186 -7 14 -9 29 -5 33 5 5 47 11 92 14 46 2 85 6 87 8 4 3 27 1
117 -11z m-8766 -109 c192 -46 352 -191 396 -360 19 -75 19 -145 0 -218 -22
-86 -51 -135 -121 -208 -35 -36 -64 -68 -64 -71 0 -3 22 -45 50 -94 80 -142
66 -165 -55 -93 -184 109 -181 108 -222 98 -53 -12 -191 -11 -255 2 -29 6 -91
29 -137 52 -111 54 -185 126 -236 231 -35 70 -40 87 -43 170 -2 57 2 107 10
136 l14 45 86 22 c174 44 283 105 393 219 45 46 89 82 100 83 11 0 49 -6 84
-14z m7466 -17 c87 -29 165 -80 228 -148 175 -189 168 -448 -18 -631 -30 -29
-55 -60 -55 -67 0 -7 -8 -15 -17 -19 -10 -3 -45 -17 -78 -30 -68 -28 -82 -30
-222 -39 -130 -8 -220 11 -323 68 -100 55 -167 125 -215 222 -35 70 -40 87
-43 170 -2 57 2 108 10 136 l14 45 84 21 c175 43 308 119 412 235 l63 69 50
-5 c27 -4 77 -15 110 -27z m-9562 -69 c21 -26 22 -77 2 -106 -20 -29 -75 -39
-112 -21 -55 26 -55 125 -1 148 34 14 91 4 111 -21z m13497 -67 c29 -24 30
-86 2 -114 -22 -22 -77 -27 -109 -9 -37 19 -36 110 0 133 22 14 85 8 107 -10z
m-1397 -240 c15 -15 20 -34 20 -68 0 -39 -4 -51 -27 -71 -46 -39 -132 -26
-155 24 -22 49 -7 112 33 132 32 16 105 7 129 -17z m-5888 -262 l0 -205 -305
0 -305 0 -3 195 c-1 107 0 200 3 207 3 11 67 13 307 11 l303 -3 0 -205z m6612
145 c192 -45 354 -192 398 -360 41 -159 -4 -311 -129 -436 l-61 -60 19 -32
c88 -154 102 -197 61 -197 -20 0 -61 44 -81 87 -26 53 -142 154 -230 200 -45
24 -83 41 -85 38 -3 -2 -40 5 -83 15 -43 11 -99 20 -125 20 -69 0 -181 -19
-213 -35 -16 -8 -35 -12 -42 -9 -18 7 -77 108 -98 168 -20 60 -23 190 -4 251
11 39 12 40 97 61 180 47 305 117 411 234 37 41 71 69 83 69 11 1 48 -6 82
-14z m-4472 -214 c22 -10 53 -32 69 -49 27 -29 28 -35 24 -97 -4 -73 -1 -68
-131 -183 -27 -24 -37 -40 -37 -62 l0 -30 -61 0 -61 0 4 57 c5 56 6 58 77 122
56 52 71 72 71 94 0 55 -84 66 -182 23 l-38 -16 -26 52 c-25 49 -25 52 -7 62
79 47 226 61 298 27z m-7390 -84 c109 -62 114 -204 10 -276 -64 -43 -95 -80
-95 -110 0 -33 -11 -38 -78 -32 l-44 3 4 55 c5 54 7 57 76 122 75 69 90 104
57 131 -22 18 -105 14 -159 -9 l-48 -21 -15 40 c-9 22 -20 40 -25 40 -4 0 -8
6 -8 14 0 12 68 47 115 59 11 2 54 5 95 6 61 0 83 -4 115 -22z m9046 -299 c79
-27 119 -79 119 -158 0 -69 -21 -105 -92 -158 -70 -52 -86 -71 -90 -107 -3
-29 -4 -30 -65 -33 l-63 -3 0 49 c0 53 18 85 75 132 65 54 85 79 85 106 0 65
-71 83 -172 44 -29 -11 -56 -20 -60 -20 -11 0 -61 101 -54 108 4 3 37 16 74
29 75 25 187 31 243 11z m-1741 -108 c26 -14 42 -65 30 -96 -6 -14 -7 -30 -4
-36 4 -6 2 -8 -4 -4 -6 3 -22 2 -36 -4 -45 -17 -86 -2 -103 37 -24 59 7 113
64 113 19 0 43 -4 53 -10z m-4196 -52 c24 -7 61 -32 88 -58 38 -37 47 -53 53
-93 14 -95 -15 -143 -163 -265 -30 -25 -52 -51 -52 -63 0 -17 -7 -19 -76 -19
l-77 0 6 40 c7 51 35 90 109 146 87 67 107 125 58 169 -29 26 -124 22 -200 -8
l-61 -25 -30 60 c-17 33 -29 61 -27 63 64 53 272 83 372 53z m1496 -59 c0 -61
-1 -63 -47 -108 -27 -26 -63 -58 -81 -72 -31 -24 -39 -40 -41 -81 -1 -15 -11
-18 -59 -18 -32 0 -61 2 -64 5 -3 3 -1 29 3 57 6 39 17 60 44 88 19 20 32 40
28 45 -5 4 -2 5 5 1 9 -5 24 2 43 20 31 30 37 75 11 96 -20 17 -107 11 -157
-11 -44 -19 -45 -19 -55 -1 -21 39 -15 40 180 40 l190 0 0 -61z m1310 21 l0
-40 -75 0 -75 0 0 40 0 40 75 0 75 0 0 -40z m-6000 2 c27 -22 30 -84 5 -112
-39 -43 -117 -29 -135 24 -11 35 -6 60 18 89 20 23 83 22 112 -1z m5975 -142
c33 -12 57 -67 49 -110 -12 -58 -84 -88 -147 -59 -54 24 -63 105 -18 150 31
31 68 37 116 19z m2145 -32 c76 -13 208 -61 244 -89 13 -11 32 -41 40 -67 9
-26 27 -64 41 -84 14 -20 25 -39 25 -42 0 -4 -257 -6 -571 -6 l-570 0 18 31
c20 33 115 119 132 119 6 0 11 3 11 8 0 4 20 18 44 31 l43 24 34 -25 c19 -13
57 -35 84 -49 28 -13 52 -27 53 -31 2 -5 10 -8 18 -8 8 0 14 -4 14 -10 0 -5 9
-10 21 -10 11 0 17 -4 14 -10 -9 -15 18 -12 40 3 20 16 16 55 -10 81 -8 8 -15
22 -15 30 0 9 -4 16 -10 16 -5 0 -10 7 -10 15 0 8 -5 15 -11 15 -5 0 -8 4 -4
9 3 6 -3 14 -12 20 -11 6 -13 11 -5 11 7 0 11 4 7 9 -9 15 128 30 220 23 28
-2 79 -8 115 -14z m3628 -4 c39 -19 56 -35 67 -61 23 -54 19 -125 -7 -159 -46
-59 -56 -63 -153 -63 l-90 0 60 54 c60 54 78 93 54 121 -17 20 -66 24 -121 8
-98 -28 -91 -29 -116 22 -26 55 -26 56 63 86 79 27 180 23 243 -8z m-13173
-44 c33 -12 57 -67 48 -110 -8 -41 -20 -45 -76 -21 -25 11 -62 23 -82 27 -38
7 -44 23 -24 68 19 41 78 57 134 36z m2167 -35 c30 -7 64 -18 76 -24 12 -6 22
-9 22 -6 0 3 13 -1 30 -10 16 -8 32 -15 35 -15 3 1 22 -9 43 -20 29 -16 42
-33 55 -69 9 -27 17 -51 17 -55 0 -3 -124 -6 -275 -6 -247 0 -275 2 -275 16 0
9 -18 49 -40 89 -44 80 -49 101 -22 108 36 10 282 4 334 -8z m9590 3 c81 -24
148 -107 148 -185 0 -22 -4 -23 -85 -23 -65 0 -85 3 -85 14 0 7 -9 25 -21 40
-18 23 -27 26 -87 26 -47 0 -84 -8 -125 -24 l-58 -24 -30 60 c-17 33 -29 61
-27 63 12 10 62 31 108 46 65 21 204 25 262 7z m-3547 -40 c77 -25 159 -76
210 -127 l39 -41 -309 0 -310 1 30 21 c17 12 64 56 105 99 l75 78 50 -5 c27
-3 77 -14 110 -26z m-6600 -48 c-3 -6 1 -7 9 -4 9 3 16 2 16 -3 0 -10 50 -38
63 -35 4 1 7 -2 7 -8 0 -5 7 -10 15 -10 8 0 15 -4 15 -10 0 -5 6 -10 13 -10 6
0 23 -9 37 -20 l25 -20 -192 0 c-150 0 -191 3 -187 13 5 12 88 77 100 77 3 0
17 9 31 20 27 21 59 28 48 10z m8888 -21 c12 -15 17 -35 15 -58 l-3 -36 -78
-3 c-64 -2 -78 0 -84 14 -11 29 10 88 37 102 34 17 91 8 113 -19z m-9683 -13
c36 -12 88 -37 115 -54 l50 -32 -218 0 -218 0 53 60 53 61 50 -6 c28 -3 79
-16 115 -29z m5128 -3 c12 -10 23 -31 24 -48 l3 -30 -80 0 -80 0 2 30 c3 38
35 65 78 65 18 0 42 -8 53 -17z m-2852 -54 c27 -22 13 -29 -62 -29 -56 0 -75
3 -72 13 12 34 99 45 134 16z m-4231 -299 c0 -53 -1 -55 -27 -58 -28 -3 -28
-3 -28 58 0 61 0 61 28 58 26 -3 27 -5 27 -58z m215 0 c0 -33 -4 -60 -10 -60
-6 0 -10 27 -10 60 0 33 4 60 10 60 6 0 10 -27 10 -60z m240 -1 c0 -57 -1 -60
-22 -57 -19 2 -24 10 -26 41 -3 32 0 39 17 44 12 3 21 12 21 19 0 8 2 14 5 14
3 0 5 -27 5 -61z m76 31 c10 0 14 -13 14 -45 0 -38 -3 -45 -20 -45 -18 0 -20
6 -19 63 1 34 3 54 6 45 2 -10 11 -18 19 -18z m-468 -28 c2 -15 -2 -22 -12
-22 -9 0 -16 -7 -16 -15 0 -18 16 -20 23 -2 3 7 6 5 6 -5 1 -12 -6 -18 -19
-18 -17 0 -20 7 -20 46 0 38 3 45 18 42 9 -2 18 -13 20 -26z m33 -4 l1 -33 14
35 14 35 -5 -34 c-3 -18 -5 -40 -5 -47 0 -25 -18 -15 -24 14 -4 15 -9 35 -12
45 -3 9 -1 17 5 17 6 0 11 -15 12 -32z m87 4 c3 -17 -2 -22 -17 -22 -21 0 -27
-11 -14 -23 3 -4 13 -1 21 6 13 10 14 9 10 -3 -2 -8 -13 -15 -24 -15 -20 0
-31 41 -20 72 9 22 40 11 44 -15z m87 -17 c0 -33 -3 -40 -20 -40 -15 0 -21 8
-23 28 -5 39 5 59 25 55 14 -2 18 -13 18 -43z m63 2 c2 -26 -1 -39 -12 -43 -9
-3 -16 -12 -16 -20 0 -8 -4 -14 -10 -14 -6 0 -10 27 -10 61 0 57 1 60 23 57
18 -2 23 -10 25 -41z m60 15 c2 -15 -2 -22 -12 -22 -9 0 -16 -7 -16 -15 0 -17
16 -20 23 -5 3 6 4 5 3 -2 -1 -7 -10 -14 -18 -16 -20 -4 -32 30 -24 64 8 31
40 29 44 -4z m182 2 c0 -30 19 -22 21 9 1 16 3 17 6 5 6 -22 -15 -98 -27 -98
-5 0 -7 6 -4 13 3 8 1 32 -5 55 -5 24 -5 42 0 42 5 0 9 -12 9 -26z m-572 -289
c4 -20 3 -20 -11 -1 -20 27 -37 11 -37 -34 0 -45 17 -61 37 -34 14 19 15 19
11 -1 -2 -14 -11 -20 -28 -20 -22 0 -25 5 -28 44 -2 24 -1 50 2 58 8 21 50 12
54 -12z m242 -35 c0 -53 -2 -60 -19 -60 -11 0 -23 9 -26 21 -9 29 2 69 20 69
8 0 15 7 15 15 0 8 2 15 5 15 3 0 5 -27 5 -60z m156 42 c1 -7 0 -8 -3 -2 -7
15 -33 12 -33 -3 0 -8 9 -22 20 -32 26 -23 23 -60 -4 -60 -11 0 -20 6 -22 13
-1 7 0 8 3 2 7 -15 33 -12 33 3 0 8 -9 22 -20 32 -20 18 -26 46 -13 59 11 10
36 3 39 -12z m384 14 c0 -2 3 -13 6 -23 5 -17 5 -17 -6 0 -22 35 -40 20 -40
-33 0 -38 4 -50 15 -50 21 0 31 30 14 41 -11 7 -11 9 4 9 12 0 17 -8 17 -29 0
-24 -4 -28 -27 -27 -26 1 -28 5 -31 45 -4 55 2 71 28 71 11 0 20 -2 20 -4z
m130 -46 c13 0 20 9 23 28 2 15 4 -2 4 -38 0 -36 -2 -50 -4 -32 -3 23 -9 32
-23 32 -14 0 -20 -9 -23 -32 -2 -18 -4 -4 -4 32 0 36 2 53 4 38 3 -19 10 -28
23 -28z m141 17 c17 -5 20 -12 17 -44 -2 -31 -7 -39 -25 -41 -22 -3 -23 0 -22
60 1 35 3 56 6 47 2 -10 13 -19 24 -22z m59 -24 c-7 -26 -17 -52 -23 -58 -7
-7 -8 -4 -3 9 3 10 11 38 17 63 7 24 14 41 17 39 2 -3 -1 -27 -8 -53z m58 -56
c12 -3 11 -5 -5 -6 -22 -1 -23 2 -21 62 l2 62 3 -57 c3 -43 8 -58 21 -61z
m147 65 c8 13 10 6 11 -30 1 -40 0 -43 -9 -22 l-10 25 -7 -25 c-6 -17 -8 -5
-8 40 1 49 2 57 7 30 5 -29 8 -32 16 -18z m135 -12 c0 -52 -2 -60 -19 -60 -21
0 -33 33 -25 67 4 13 12 23 20 23 8 0 14 7 14 15 0 8 2 15 5 15 3 0 5 -27 5
-60z m27 -32 c-2 -18 -4 -4 -4 32 0 36 2 50 4 33 2 -18 2 -48 0 -65z m-624 23
c2 -55 -10 -57 -13 -1 -3 48 -1 64 6 57 3 -3 7 -28 7 -56z m-795 -7 c3 -37 1
-41 -19 -40 -30 1 -35 22 -10 38 24 15 29 43 6 34 -8 -3 -15 -1 -15 5 0 6 8 9
18 7 12 -2 18 -15 20 -44z m29 -21 c-2 -16 -4 -5 -4 22 0 28 2 40 4 28 2 -13
2 -35 0 -50z m58 22 c0 -45 -28 -63 -40 -25 -10 33 3 72 23 68 13 -2 17 -13
17 -43z m153 17 c2 -15 -2 -22 -12 -22 -9 0 -16 -7 -16 -15 0 -18 16 -20 23
-2 3 7 6 5 6 -5 1 -12 -6 -18 -19 -18 -17 0 -20 7 -20 46 0 38 3 45 18 42 9
-2 18 -13 20 -26z m157 -17 c0 -45 -28 -63 -40 -25 -10 33 3 72 23 68 13 -2
17 -13 17 -43z m37 0 c2 -27 -1 -44 -7 -42 -13 5 -19 87 -7 87 6 0 12 -20 14
-45z m25 -22 c-2 -16 -4 -5 -4 22 0 28 2 40 4 28 2 -13 2 -35 0 -50z m58 57
c3 -6 -1 -7 -9 -4 -21 8 -20 -5 0 -27 9 -10 14 -25 11 -34 -7 -16 -37 -21 -37
-5 0 5 7 7 15 4 8 -4 15 -2 15 4 0 5 -7 15 -15 22 -19 16 -20 50 -1 50 8 0 18
-4 21 -10z m63 -35 c3 -35 0 -41 -17 -42 -28 -2 -36 15 -17 36 21 24 22 49 1
31 -15 -12 -22 0 -8 14 18 18 38 -1 41 -39z m179 -22 c-2 -16 -4 -5 -4 22 0
28 2 40 4 28 2 -13 2 -35 0 -50z m166 -10 c7 2 15 21 18 43 l6 39 2 -48 c1
-45 -1 -48 -21 -45 -20 3 -23 9 -24 46 l-1 42 4 -41 c3 -25 9 -39 16 -36z
m224 10 c-2 -16 -4 -5 -4 22 0 28 2 40 4 28 2 -13 2 -35 0 -50z m59 19 l1 -42
-4 41 c-5 51 -26 47 -34 -7 l-6 -39 -2 48 c-1 45 1 48 22 45 19 -3 22 -9 23
-46z m122 22 c2 -16 -3 -23 -22 -26 -28 -6 -29 -4 -20 30 8 28 38 25 42 -4z
m119 -41 c-2 -16 -4 -5 -4 22 0 28 2 40 4 28 2 -13 2 -35 0 -50z m39 43 c3
-13 4 -35 1 -47 -3 -17 -5 -14 -6 12 0 19 -6 40 -13 47 -9 9 -9 12 0 12 6 0
14 -11 18 -24z m-839 -22 c-3 -3 -12 -4 -19 -1 -8 3 -5 6 6 6 11 1 17 -2 13
-5z m678 -33 c-8 -14 -35 -14 -35 -1 0 5 7 7 15 4 8 -4 15 -1 15 7 0 7 3 10 6
6 3 -3 3 -10 -1 -16z m-392 -28 c-51 -2 -135 -2 -186 0 -50 1 -9 3 93 3 102 0
143 -2 93 -3z m455 0 c-60 -2 -156 -2 -215 0 -60 1 -11 3 107 3 118 0 167 -2
108 -3z m-1488 -137 c0 -44 4 -55 18 -59 10 -3 6 -5 -10 -6 -28 -1 -28 0 -28
59 0 33 4 60 10 60 6 0 10 -24 10 -54z m420 39 c9 -10 9 -15 1 -15 -6 0 -11 5
-11 10 0 6 -7 10 -15 10 -23 0 -18 -21 11 -51 17 -18 24 -34 20 -44 -7 -20
-48 -16 -54 5 -4 12 -2 13 9 3 34 -32 41 8 8 43 -23 24 -20 54 4 54 8 0 20 -7
27 -15z m200 0 c0 -8 -2 -15 -4 -15 -2 0 -6 7 -10 15 -3 8 -1 15 4 15 6 0 10
-7 10 -15z m64 -34 c3 -22 9 -46 12 -55 3 -9 1 -16 -5 -16 -6 0 -11 7 -11 15
0 8 -7 15 -15 15 -8 0 -15 -7 -15 -15 0 -8 -4 -15 -9 -15 -5 0 -7 10 -4 23 25
108 35 119 47 48z m336 45 c0 -2 3 -13 6 -23 5 -17 5 -17 -6 0 -22 35 -40 20
-40 -33 0 -38 4 -50 15 -50 21 0 31 30 14 41 -11 7 -11 9 4 9 12 0 17 -8 17
-29 0 -24 -4 -28 -27 -27 -26 1 -28 5 -31 45 -4 55 2 71 28 71 11 0 20 -2 20
-4z m130 -46 c13 0 20 9 23 28 2 15 4 -2 4 -38 0 -36 -2 -50 -4 -32 -3 23 -9
32 -23 32 -14 0 -20 -9 -23 -32 -2 -18 -4 -4 -4 32 0 36 2 53 4 38 3 -19 10
-28 23 -28z m141 17 c17 -5 20 -12 17 -44 -2 -31 -7 -39 -25 -41 -22 -3 -23 0
-22 60 1 35 3 56 6 47 2 -10 13 -19 24 -22z m59 -24 c-7 -26 -17 -52 -23 -58
-7 -7 -8 -4 -3 9 3 10 11 38 17 63 7 24 14 41 17 39 2 -3 -1 -27 -8 -53z m58
-56 c12 -3 11 -5 -5 -6 -22 -1 -23 2 -21 62 l2 62 3 -57 c3 -43 8 -58 21 -61z
m147 65 c8 13 10 6 11 -30 1 -40 0 -43 -9 -22 l-10 25 -7 -25 c-6 -17 -8 -5
-8 40 1 49 2 57 7 30 5 -29 8 -32 16 -18z m135 -12 c0 -52 -2 -60 -19 -60 -21
0 -33 33 -25 67 4 13 12 23 20 23 8 0 14 7 14 15 0 8 2 15 5 15 3 0 5 -27 5
-60z m27 -32 c-2 -18 -4 -4 -4 32 0 36 2 50 4 33 2 -18 2 -48 0 -65z m-1136
75 c7 -85 0 -126 -15 -87 -10 25 -7 94 4 94 6 0 10 -3 11 -7z m512 -52 c2 -55
-10 -57 -13 -1 -3 48 -1 64 6 57 3 -3 7 -28 7 -56z m-1013 -6 c0 -38 -3 -45
-20 -45 -24 0 -28 38 -5 46 8 4 15 12 15 20 0 17 -17 18 -23 2 -3 -8 -6 -6 -6
5 -1 11 6 17 19 17 17 0 20 -7 20 -45z m41 31 c-5 -6 -11 -27 -14 -46 -3 -31
-4 -30 -5 11 -2 34 2 46 13 46 9 0 11 -4 6 -11z m26 -53 c-2 -16 -4 -5 -4 22
0 28 2 40 4 28 2 -13 2 -35 0 -50z m63 57 c0 -5 -7 -7 -15 -4 -22 9 -18 -6 7
-33 16 -17 19 -26 11 -34 -14 -14 -43 -5 -42 13 0 10 2 10 6 1 2 -7 9 -13 14
-13 14 0 11 22 -7 41 -9 10 -13 23 -9 28 8 14 35 14 35 1z m55 0 c3 -6 -1 -7
-9 -4 -21 8 -20 -5 0 -27 9 -10 14 -25 11 -34 -7 -16 -37 -21 -37 -5 0 5 7 7
15 4 8 -4 15 -2 15 4 0 5 -7 15 -15 22 -19 16 -20 50 -1 50 8 0 18 -4 21 -10z
m59 -12 c13 -49 7 -68 -19 -68 -18 0 -25 5 -25 20 0 11 7 23 15 26 17 7 21 34
5 34 -5 0 -10 -5 -10 -12 0 -6 -3 -9 -6 -5 -9 8 5 27 20 27 8 0 16 -10 20 -22z
m160 0 c13 -49 7 -68 -19 -68 -18 0 -25 5 -25 20 0 11 7 23 15 26 17 7 21 34
5 34 -5 0 -10 -5 -10 -12 0 -6 -3 -9 -6 -5 -9 8 5 27 20 27 8 0 16 -10 20 -22z
m64 -25 c2 -26 -1 -43 -7 -43 -6 0 -11 18 -11 40 0 53 -18 51 -23 -2 l-4 -43
-1 48 c-2 45 0 48 21 45 18 -2 23 -10 25 -45z m210 0 c2 -26 -1 -43 -7 -43 -6
0 -11 18 -11 40 0 53 -18 51 -23 -2 l-4 -43 -1 48 c-2 45 0 48 21 45 18 -2 23
-10 25 -45z m60 0 c2 -26 -1 -43 -7 -43 -6 0 -11 18 -11 40 0 53 -18 51 -23
-2 l-4 -43 -1 48 c-2 45 0 48 21 45 18 -2 23 -10 25 -45z m60 2 c3 -35 0 -41
-17 -42 -28 -2 -36 15 -17 36 21 24 22 49 1 31 -15 -12 -22 0 -8 14 18 18 38
-1 41 -39z m179 -22 c-2 -16 -4 -5 -4 22 0 28 2 40 4 28 2 -13 2 -35 0 -50z
m166 -10 c7 2 15 21 18 43 l6 39 2 -48 c1 -45 -1 -48 -21 -45 -20 3 -23 9 -24
46 l-1 42 4 -41 c3 -25 9 -39 16 -36z m224 10 c-2 -16 -4 -5 -4 22 0 28 2 40
4 28 2 -13 2 -35 0 -50z m59 19 l1 -42 -4 41 c-5 51 -26 47 -34 -7 l-6 -39 -2
48 c-1 45 1 48 22 45 19 -3 22 -9 23 -46z m122 22 c2 -16 -3 -23 -22 -26 -28
-6 -29 -4 -20 30 8 28 38 25 42 -4z m119 -41 c-2 -16 -4 -5 -4 22 0 28 2 40 4
28 2 -13 2 -35 0 -50z m39 43 c3 -13 4 -35 1 -47 -3 -17 -5 -14 -6 12 0 19 -6
40 -13 47 -9 9 -9 12 0 12 6 0 14 -11 18 -24z m-839 -22 c-3 -3 -12 -4 -19 -1
-8 3 -5 6 6 6 11 1 17 -2 13 -5z m678 -33 c-8 -14 -35 -14 -35 -1 0 5 7 7 15
4 8 -4 15 -1 15 7 0 7 3 10 6 6 3 -3 3 -10 -1 -16z m-392 -28 c-51 -2 -135 -2
-185 0 -51 1 -10 3 92 3 102 0 143 -2 93 -3z m455 0 c-60 -2 -156 -2 -215 0
-60 1 -11 3 107 3 118 0 167 -2 108 -3z m-1683 -114 c4 -17 4 -33 1 -36 -3 -4
-7 0 -7 8 -1 8 -5 -4 -9 -26 -7 -37 -7 -35 -9 23 -1 65 13 84 24 31z m54 -31
c-2 -57 -2 -59 -9 -23 l-6 40 -8 -37 c-9 -40 -26 -52 -26 -18 0 11 4 20 9 20
5 0 12 18 16 40 10 62 25 47 24 -22z m105 30 c8 -5 7 -8 -1 -8 -8 0 -13 -14
-13 -34 0 -19 6 -37 13 -39 7 -4 6 -6 -4 -6 -13 -1 -18 10 -20 42 -5 51 1 91
9 67 3 -8 10 -18 16 -22z m254 25 c-20 -5 -25 -43 -5 -44 10 0 10 -2 0 -6 -7
-2 -13 -18 -13 -34 0 -16 -4 -29 -10 -29 -6 0 -10 27 -10 60 0 59 0 60 28 59
16 -1 20 -3 10 -6z m102 -25 c0 -28 2 -30 13 -15 10 15 12 11 13 -29 1 -43 0
-45 -12 -23 l-13 24 -1 -22 c0 -13 -4 -23 -10 -23 -6 0 -10 27 -10 60 0 33 4
60 10 60 6 0 10 -14 10 -32z m350 28 c0 -2 3 -13 6 -23 5 -17 5 -17 -6 0 -22
35 -40 20 -40 -33 0 -38 4 -50 15 -50 21 0 31 30 14 41 -11 7 -11 9 4 9 12 0
17 -8 17 -29 0 -24 -4 -28 -27 -27 -26 1 -28 5 -31 45 -4 55 2 71 28 71 11 0
20 -2 20 -4z m130 -46 c13 0 20 9 23 28 2 15 4 -2 4 -38 0 -36 -2 -50 -4 -32
-3 23 -9 32 -23 32 -14 0 -20 -9 -23 -32 -2 -18 -4 -4 -4 32 0 36 2 53 4 38 3
-19 10 -28 23 -28z m141 17 c17 -5 20 -12 17 -44 -2 -31 -7 -39 -25 -41 -22
-3 -23 0 -22 60 1 35 3 56 6 47 2 -10 13 -19 24 -22z m59 -24 c-7 -26 -17 -52
-23 -58 -7 -7 -8 -4 -3 9 3 10 11 38 17 63 7 24 14 41 17 39 2 -3 -1 -27 -8
-53z m58 -56 c12 -3 11 -5 -5 -6 -22 -1 -23 2 -21 62 l2 62 3 -57 c3 -43 8
-58 21 -61z m147 65 c8 13 10 6 11 -30 1 -40 0 -43 -9 -22 l-10 25 -7 -25 c-6
-17 -8 -5 -8 40 1 49 2 57 7 30 5 -29 8 -32 16 -18z m135 -12 c0 -52 -2 -60
-19 -60 -21 0 -33 33 -25 67 4 13 12 23 20 23 8 0 14 7 14 15 0 8 2 15 5 15 3
0 5 -27 5 -60z m27 -32 c-2 -18 -4 -4 -4 32 0 36 2 50 4 33 2 -18 2 -48 0 -65z
m-624 23 c2 -55 -10 -57 -13 -1 -3 48 -1 64 6 57 3 -3 7 -28 7 -56z m-823 -6
c0 -38 -3 -45 -20 -45 -24 0 -28 38 -5 46 8 4 15 12 15 20 0 17 -17 18 -23 2
-3 -8 -6 -6 -6 5 -1 11 6 17 19 17 17 0 20 -7 20 -45z m98 17 c2 -15 -2 -22
-12 -22 -9 0 -16 -7 -16 -15 0 -18 16 -20 23 -2 3 7 6 5 6 -5 1 -12 -6 -18
-19 -18 -17 0 -20 7 -20 46 0 38 3 45 18 42 9 -2 18 -13 20 -26z m42 -52 c5 0
11 19 13 43 l4 42 1 -47 c2 -42 -1 -48 -18 -48 -17 0 -20 6 -18 48 l1 47 4
-42 c2 -24 8 -43 13 -43z m75 70 c3 -6 -1 -7 -9 -4 -21 8 -20 -5 0 -27 9 -10
14 -25 11 -34 -7 -16 -37 -21 -37 -5 0 5 7 7 15 4 8 -4 15 -2 15 4 0 5 -7 15
-15 22 -19 16 -20 50 -1 50 8 0 18 -4 21 -10z m126 -70 c5 0 9 18 9 40 0 22 5
40 10 40 6 0 10 -20 10 -45 0 -41 -2 -45 -25 -45 -23 0 -25 3 -23 48 l1 47 4
-42 c2 -24 8 -43 14 -43z m124 9 c6 0 13 17 16 38 l6 38 2 -46 c1 -42 -1 -46
-21 -45 -20 1 -23 7 -24 46 -2 44 -2 45 5 7 3 -21 11 -38 16 -38z m56 33 c0
-26 1 -26 15 8 l14 35 -6 -40 c-7 -48 -20 -75 -37 -75 -9 0 -8 3 1 9 12 7 11
25 -5 85 -3 12 -1 16 6 12 6 -4 11 -19 12 -34z m87 -7 c3 -35 0 -41 -17 -42
-28 -2 -36 15 -17 36 21 24 22 49 1 31 -15 -12 -22 0 -8 14 18 18 38 -1 41
-39z m179 -22 c-2 -16 -4 -5 -4 22 0 28 2 40 4 28 2 -13 2 -35 0 -50z m166
-10 c7 2 15 21 18 43 l6 39 2 -48 c1 -45 -1 -48 -21 -45 -20 3 -23 9 -24 46
l-1 42 4 -41 c3 -25 9 -39 16 -36z m224 10 c-2 -16 -4 -5 -4 22 0 28 2 40 4
28 2 -13 2 -35 0 -50z m59 19 l1 -42 -4 41 c-5 51 -26 47 -34 -7 l-6 -39 -2
48 c-1 45 1 48 22 45 19 -3 22 -9 23 -46z m122 22 c2 -16 -3 -23 -22 -26 -28
-6 -29 -4 -20 30 8 28 38 25 42 -4z m119 -41 c-2 -16 -4 -5 -4 22 0 28 2 40 4
28 2 -13 2 -35 0 -50z m39 43 c3 -13 4 -35 1 -47 -3 -17 -5 -14 -6 12 0 19 -6
40 -13 47 -9 9 -9 12 0 12 6 0 14 -11 18 -24z m-839 -22 c-3 -3 -12 -4 -19 -1
-8 3 -5 6 6 6 11 1 17 -2 13 -5z m678 -33 c-8 -14 -35 -14 -35 -1 0 5 7 7 15
4 8 -4 15 -1 15 7 0 7 3 10 6 6 3 -3 3 -10 -1 -16z m-392 -28 c-51 -2 -135 -2
-186 0 -50 1 -9 3 93 3 102 0 143 -2 93 -3z m455 0 c-60 -2 -156 -2 -215 0
-60 1 -11 3 107 3 118 0 167 -2 108 -3z m-1527 -153 c4 0 10 16 14 36 3 20 9
34 12 31 7 -7 -18 -117 -27 -117 -7 0 -31 94 -29 113 1 7 6 -5 12 -25 6 -21
14 -38 18 -38z m103 38 c8 -5 7 -8 -1 -8 -8 0 -13 -14 -13 -34 0 -19 6 -37 13
-39 7 -4 6 -6 -4 -6 -13 -1 -18 10 -20 42 -5 51 1 91 9 67 3 -8 10 -18 16 -22z
m177 -38 c4 0 10 16 14 36 3 20 9 34 12 31 7 -7 -18 -117 -27 -117 -7 0 -31
94 -29 113 1 7 6 -5 12 -25 6 -21 14 -38 18 -38z m396 45 c1 -16 1 -16 -3 -2
-8 25 -33 21 -40 -8 -9 -35 3 -75 22 -75 12 0 15 7 12 25 -3 14 -1 25 3 25 5
0 9 -11 9 -25 0 -30 -24 -43 -45 -25 -18 15 -20 81 -3 98 18 18 42 10 45 -13z
m133 -25 c13 0 20 9 23 28 2 15 4 -2 4 -38 0 -36 -2 -50 -4 -32 -3 23 -9 32
-23 32 -14 0 -20 -9 -23 -32 -2 -18 -4 -4 -4 32 0 36 2 53 4 38 3 -19 10 -28
23 -28z m135 20 c7 0 15 -10 19 -23 8 -34 -4 -67 -25 -67 -17 0 -19 8 -18 63
1 34 3 54 6 45 2 -10 10 -18 18 -18z m58 -33 c-9 -32 -18 -55 -20 -53 -3 3 3
30 12 61 9 32 18 55 20 53 3 -2 -3 -30 -12 -61z m65 -50 c12 -3 11 -5 -5 -6
-22 -1 -23 2 -21 62 l2 62 3 -57 c3 -43 8 -58 21 -61z m143 63 c15 18 18 19
11 5 -5 -11 -6 -29 -1 -40 13 -33 9 -42 -6 -15 l-14 25 -10 -25 c-8 -20 -10
-13 -9 40 1 44 3 52 5 25 l4 -40 20 25z m139 -11 c0 -57 -1 -60 -22 -57 -19 2
-24 10 -26 41 -3 32 0 39 17 44 12 3 21 12 21 19 0 8 2 14 5 14 3 0 5 -27 5
-61z m27 -31 c-2 -18 -4 -4 -4 32 0 36 2 50 4 33 2 -18 2 -48 0 -65z m-624 23
c1 -28 -1 -51 -4 -51 -8 0 -16 84 -11 100 8 22 14 1 15 -49z m-693 -6 c0 -25
-4 -45 -10 -45 -5 0 -10 20 -10 45 0 25 5 45 10 45 6 0 10 -20 10 -45z m95 0
c0 -45 -28 -63 -40 -25 -10 33 3 72 23 68 13 -2 17 -13 17 -43z m48 37 c-6 -4
-13 -25 -16 -47 -4 -40 -4 -40 -5 8 -2 39 1 47 16 47 11 0 13 -3 5 -8z m134
-59 c-2 -16 -4 -5 -4 22 0 28 2 40 4 28 2 -13 2 -35 0 -50z m61 39 c2 -15 -2
-22 -12 -22 -9 0 -16 -7 -16 -15 0 -17 16 -20 23 -5 3 6 4 5 3 -2 -1 -7 -10
-14 -18 -16 -20 -4 -32 30 -24 64 8 31 40 29 44 -4z m29 -39 c-2 -16 -4 -5 -4
22 0 28 2 40 4 28 2 -13 2 -35 0 -50z m46 59 c-6 -4 -13 -25 -16 -47 -4 -40
-4 -40 -5 8 -2 39 1 47 16 47 11 0 13 -3 5 -8z m61 -14 c13 -49 7 -68 -19 -68
-18 0 -25 5 -25 20 0 11 7 23 15 26 17 7 21 34 5 34 -5 0 -10 -5 -10 -12 0 -6
-3 -9 -6 -5 -9 8 5 27 20 27 8 0 16 -10 20 -22z m183 -45 c-2 -16 -4 -5 -4 22
0 28 2 40 4 28 2 -13 2 -35 0 -50z m155 15 c2 -21 0 -38 -4 -38 -4 0 -8 21 -7
48 1 52 6 48 11 -10z m25 -15 c-2 -16 -4 -5 -4 22 0 28 2 40 4 28 2 -13 2 -35
0 -50z m200 0 c-2 -16 -4 -5 -4 22 0 28 2 40 4 28 2 -13 2 -35 0 -50z m30 0
c-2 -16 -4 -5 -4 22 0 28 2 40 4 28 2 -13 2 -35 0 -50z m39 43 c3 -13 4 -35 1
-47 -3 -17 -5 -14 -6 12 0 19 -6 40 -13 47 -9 9 -9 12 0 12 6 0 14 -11 18 -24z
m102 17 c-10 -2 -18 -11 -18 -19 0 -17 26 -19 33 -1 3 7 6 5 6 -5 1 -12 -6
-18 -19 -18 -11 0 -20 -7 -20 -15 0 -17 26 -21 33 -5 3 6 4 5 3 -2 -2 -7 -11
-13 -22 -13 -13 0 -20 8 -22 28 -5 39 4 57 25 56 17 -1 17 -2 1 -6z m170 -40
l-1 -48 -4 43 c-2 23 -8 42 -13 42 -5 0 -11 -19 -13 -42 l-4 -43 -1 48 c-2 41
1 47 18 47 17 0 20 -6 18 -47z m-831 1 c-3 -3 -12 -4 -19 -1 -8 3 -5 6 6 6 11
1 17 -2 13 -5z m275 -61 c-51 -2 -132 -2 -180 0 -48 1 -6 3 93 3 99 0 138 -2
87 -3z m466 0 c-60 -2 -156 -2 -215 0 -60 1 -11 3 107 3 118 0 167 -2 108 -3z
m5456 -256 c19 -26 19 -30 6 -54 -8 -14 -22 -31 -31 -36 -21 -13 -65 -1 -73
20 -6 16 -6 16 12 0 27 -24 59 -21 78 8 14 22 15 30 4 53 -11 25 -13 25 -19 8
-7 -17 -8 -18 -14 -3 -12 31 -27 18 -27 -23 0 -42 12 -51 30 -23 10 16 10 16
8 -2 -2 -12 -11 -20 -23 -20 -16 0 -21 8 -23 43 -3 37 -6 42 -18 31 -19 -16
-18 -4 2 16 23 23 63 15 88 -18z m104 -5 c2 -12 -6 -35 -17 -51 l-21 -30 22
-4 c17 -3 14 -5 -10 -6 -35 -1 -35 0 0 51 22 32 23 58 3 58 -8 0 -15 -7 -15
-17 0 -9 -3 -14 -6 -10 -4 3 -4 13 0 22 9 23 40 14 44 -13z m77 -32 c0 -52 -1
-55 -25 -55 -22 0 -25 5 -28 44 -4 57 3 73 30 69 21 -3 23 -9 23 -58z m79 44
c4 -9 -3 -32 -14 -51 -24 -41 -24 -40 -2 -46 10 -3 6 -5 -10 -6 -33 -1 -34 4
-8 44 21 32 26 65 10 65 -5 0 -14 -8 -19 -17 -9 -15 -10 -16 -11 -2 0 9 3 19
7 22 12 13 41 7 47 -9z m74 -6 c2 -10 -6 -31 -17 -47 -26 -36 -26 -39 2 -44
16 -3 13 -5 -10 -6 -38 -1 -40 5 -13 39 20 26 27 70 10 70 -5 0 -14 -8 -19
-17 -9 -15 -10 -16 -11 -2 0 9 3 19 7 23 13 12 48 1 51 -16z m99 -3 c1 -16 1
-16 -3 -2 -3 9 -12 17 -20 17 -10 0 -14 -13 -14 -50 0 -37 4 -50 14 -50 8 0
16 6 19 12 2 8 3 7 3 -2 -2 -19 -36 -26 -47 -8 -10 15 -12 69 -3 93 9 23 48
15 51 -10z m350 -67 c-2 -18 -4 -4 -4 32 0 36 2 50 4 33 2 -18 2 -48 0 -65z
m196 84 c-6 -4 -13 -32 -16 -62 l-3 -55 -2 57 c-2 44 -6 58 -19 61 -10 3 -2 5
17 6 19 0 30 -3 23 -7z m295 -20 c3 -17 -2 -25 -17 -29 -15 -4 -21 -13 -21
-34 0 -16 -4 -29 -10 -29 -6 0 -10 27 -10 61 0 60 0 60 28 57 19 -2 28 -9 30
-26z m29 -64 c-2 -18 -4 -4 -4 32 0 36 2 50 4 33 2 -18 2 -48 0 -65z m211 85
c-14 -3 -18 -17 -20 -61 l-2 -57 -3 55 c-3 30 -10 58 -16 62 -7 4 4 7 23 7 19
-1 27 -3 18 -6z m-657 -10 c5 -59 2 -102 -6 -100 -11 4 -24 76 -17 96 4 12 22
15 23 4z m-361 -58 c0 -38 -3 -45 -20 -45 -17 0 -20 7 -20 45 0 38 3 45 20 45
17 0 20 -7 20 -45z m101 1 c5 -6 9 1 9 17 0 15 4 27 9 27 12 0 -11 -102 -24
-107 -6 -1 -11 22 -11 55 -1 31 1 48 3 37 3 -11 9 -24 14 -29z m60 30 c-5 -6
-11 -27 -14 -46 -3 -31 -4 -30 -5 11 -2 34 2 46 13 46 9 0 11 -4 6 -11z m39
-31 c0 -25 -4 -45 -10 -45 -5 0 -10 20 -10 45 0 25 5 45 10 45 6 0 10 -20 10
-45z m60 15 c-7 -29 -37 -39 -46 -16 -10 26 3 46 29 44 21 -2 23 -6 17 -28z
m64 14 c9 -24 7 -74 -3 -74 -5 0 -11 20 -13 45 -3 45 4 59 16 29z m209 9 c-8
-2 -13 -22 -13 -44 0 -21 -4 -39 -10 -39 -5 0 -10 20 -10 45 0 40 2 45 23 44
12 0 16 -3 10 -6z m24 -60 c-2 -16 -4 -5 -4 22 0 28 2 40 4 28 2 -13 2 -35 0
-50z m34 40 l1 -28 14 30 15 30 -6 -34 c-3 -18 -5 -40 -5 -47 0 -25 -19 -15
-26 14 -3 15 -8 35 -11 45 -2 9 0 17 6 17 6 0 11 -12 12 -27z m59 -18 c0 -25
-4 -45 -10 -45 -5 0 -10 20 -10 45 0 25 5 45 10 45 6 0 10 -20 10 -45z m58 -3
c3 -40 2 -43 -20 -40 -23 3 -40 38 -18 38 6 0 9 -4 5 -9 -3 -5 -1 -12 4 -15 5
-3 9 10 9 29 0 30 -2 34 -14 24 -14 -11 -20 1 -7 15 19 19 38 -1 41 -42z m160
2 c3 -37 1 -41 -19 -40 -30 1 -35 22 -10 38 24 15 29 43 6 34 -8 -3 -15 -1
-15 5 0 6 8 9 18 7 12 -2 18 -15 20 -44z m33 8 c1 -25 2 -24 12 8 6 20 12 28
14 19 6 -24 -20 -92 -37 -96 -12 -4 -12 -3 -2 5 11 7 11 18 3 48 -14 48 -14
57 -1 49 6 -3 10 -18 11 -33z m177 10 c3 -17 -2 -22 -17 -22 -21 0 -27 -11
-14 -23 3 -4 13 -1 21 6 13 10 14 9 10 -3 -2 -8 -13 -15 -24 -15 -20 0 -31 41
-20 72 9 22 40 11 44 -15z m60 -20 c3 -40 2 -43 -20 -40 -23 3 -40 38 -18 38
6 0 9 -4 5 -9 -3 -5 -1 -12 4 -15 5 -3 9 10 9 29 0 30 -2 34 -14 24 -14 -11
-20 1 -7 15 19 19 38 -1 41 -42z m96 32 c10 -25 7 -74 -4 -74 -5 0 -10 18 -10
40 0 54 -20 51 -22 -2 l-1 -43 -4 43 c-5 54 -26 51 -34 -4 l-6 -39 -2 48 -1
47 39 0 c26 0 41 -5 45 -16z m-1837 -16 c-3 -8 -6 -5 -6 6 -1 11 2 17 5 13 3
-3 4 -12 1 -19z m1003 18 c0 -3 -4 -8 -10 -11 -5 -3 -10 -1 -10 4 0 6 5 11 10
11 6 0 10 -2 10 -4z m-5 -56 c3 -5 1 -10 -4 -10 -6 0 -11 5 -11 10 0 6 2 10 4
10 3 0 8 -4 11 -10z"/>
<path d="M6965 7578 c-7 -21 -35 -158 -35 -174 0 -12 11 -14 48 -12 l47 3 11
55 c6 30 14 74 17 98 l7 42 -45 0 c-27 0 -47 -5 -50 -12z"/>
<path d="M9343 7328 l32 -123 49 -3 c43 -3 48 -1 41 15 -4 10 -25 66 -47 126
-41 106 -42 107 -74 107 l-32 0 31 -122z"/>
<path d="M14709 4943 c-13 -16 -12 -17 4 -4 9 7 17 15 17 17 0 8 -8 3 -21 -13z"/>
<path d="M6970 5036 c0 -2 7 -7 16 -10 8 -3 12 -2 9 4 -6 10 -25 14 -25 6z"/>
<path d="M7083 4985 c0 -33 2 -45 4 -27 2 18 2 45 0 60 -2 15 -4 0 -4 -33z"/>
<path d="M7120 4982 l5 -57 3 49 c2 27 0 52 -5 57 -4 4 -6 -18 -3 -49z"/>
<path d="M7193 4980 c0 -25 2 -35 4 -22 2 12 2 32 0 45 -2 12 -4 2 -4 -23z"/>
<path d="M6905 4990 c10 -11 20 -20 23 -20 3 0 -3 9 -13 20 -10 11 -20 20 -23
20 -3 0 3 -9 13 -20z"/>
<path d="M6951 4984 c0 -11 3 -14 6 -6 3 7 2 16 -1 19 -3 4 -6 -2 -5 -13z"/>
<path d="M7150 4956 c0 -8 4 -17 9 -20 5 -4 7 3 4 14 -6 23 -13 26 -13 6z"/>
<path d="M6808 4373 c6 -2 18 -2 25 0 6 3 1 5 -13 5 -14 0 -19 -2 -12 -5z"/>
<path d="M7093 4305 c0 -44 2 -61 4 -37 2 23 2 59 0 80 -2 20 -4 1 -4 -43z"/>
<path d="M6808 4303 c7 -3 16 -2 19 1 4 3 -2 6 -13 5 -11 0 -14 -3 -6 -6z"/>
<path d="M7023 4270 c0 -25 2 -35 4 -22 2 12 2 32 0 45 -2 12 -4 2 -4 -23z"/>
<path d="M6808 4233 c6 -2 18 -2 25 0 6 3 1 5 -13 5 -14 0 -19 -2 -12 -5z"/>
<path d="M5465 2889 c-4 -6 -5 -12 -2 -15 2 -3 7 2 10 11 7 17 1 20 -8 4z"/>
<path d="M7757 2856 c-4 -9 5 -28 18 -45 28 -33 32 -51 10 -51 -8 0 -15 5 -15
10 0 6 -5 10 -12 10 -8 0 -6 -6 4 -16 20 -20 48 -12 48 14 0 10 -9 27 -20 37
-20 18 -27 45 -12 45 4 0 14 -6 21 -12 11 -11 13 -10 9 2 -6 20 -44 25 -51 6z"/>
<path d="M7888 2849 c-8 -25 7 -92 22 -96 12 -4 12 -2 2 5 -8 5 -12 25 -11 50
3 41 -5 65 -13 41z"/>
<path d="M7928 2849 c-8 -25 7 -92 22 -96 12 -4 12 -2 2 5 -8 5 -12 25 -11 50
3 41 -5 65 -13 41z"/>
<path d="M7824 2816 c-8 -34 4 -68 24 -64 8 2 17 9 18 16 1 7 0 8 -3 2 -7 -15
-23 -12 -23 5 0 8 7 15 16 15 21 0 14 44 -8 48 -12 2 -19 -5 -24 -22z m36 -1
c0 -8 -4 -15 -10 -15 -5 0 -10 7 -10 15 0 8 5 15 10 15 6 0 10 -7 10 -15z"/>
<path d="M7973 2795 c0 -27 2 -38 4 -22 2 15 2 37 0 50 -2 12 -4 0 -4 -28z"/>
<path d="M8003 2795 c0 -27 2 -38 4 -22 2 15 2 37 0 50 -2 12 -4 0 -4 -28z"/>
<path d="M8028 2803 c5 -59 10 -63 11 -10 1 26 -3 47 -7 47 -4 0 -6 -17 -4
-37z"/>
<path d="M8066 2831 c-2 -3 -4 -30 -5 -59 -1 -50 1 -53 22 -50 30 4 33 32 5
46 -18 8 -19 11 -6 11 10 1 20 12 24 26 l6 24 24 -28 c30 -36 30 -44 2 -36
-18 6 -20 5 -11 -5 12 -14 43 -7 43 9 0 5 -7 16 -15 25 -17 16 -21 41 -5 31 6
-3 10 -2 10 3 0 10 -88 13 -94 3z m29 -21 c0 -7 -6 -15 -12 -17 -8 -3 -13 4
-13 17 0 13 5 20 13 18 6 -3 12 -11 12 -18z m5 -70 c0 -5 -7 -10 -15 -10 -8 0
-15 5 -15 10 0 6 7 10 15 10 8 0 15 -4 15 -10z"/>
<path d="M330 1440 c0 -37 4 -50 13 -47 7 2 12 21 12 47 0 26 -5 45 -12 48 -9
2 -13 -11 -13 -48z"/>
<path d="M784 1447 c-7 -20 -2 -47 11 -50 14 -3 19 43 6 56 -7 7 -12 6 -17 -6z"/>
<path d="M880 1425 c0 -19 5 -35 10 -35 6 0 10 16 10 35 0 19 -4 35 -10 35 -5
0 -10 -16 -10 -35z"/>
<path d="M400 1445 c0 -8 5 -15 10 -15 6 0 10 7 10 15 0 8 -4 15 -10 15 -5 0
-10 -7 -10 -15z"/>
<path d="M516 1453 c-11 -11 -6 -23 9 -23 8 0 15 4 15 9 0 13 -16 22 -24 14z"/>
<path d="M604 1447 c-7 -20 -2 -47 11 -50 14 -3 19 43 6 56 -7 7 -12 6 -17 -6z"/>
<path d="M670 1425 c0 -19 5 -35 10 -35 6 0 10 16 10 35 0 19 -4 35 -10 35 -5
0 -10 -16 -10 -35z"/>
<path d="M730 1445 c0 -8 5 -15 10 -15 6 0 10 7 10 15 0 8 -4 15 -10 15 -5 0
-10 -7 -10 -15z"/>
<path d="M580 1105 c0 -19 5 -35 10 -35 6 0 10 16 10 35 0 19 -4 35 -10 35 -5
0 -10 -16 -10 -35z"/>
<path d="M1404 1126 c-8 -21 -1 -49 14 -54 8 -2 12 8 12 32 0 36 -16 49 -26
22z"/>
<path d="M1785 1121 c-6 -21 3 -51 16 -51 5 0 9 16 9 35 0 37 -15 47 -25 16z"/>
<path d="M400 1084 c0 -8 5 -12 10 -9 6 3 10 10 10 16 0 5 -4 9 -10 9 -5 0
-10 -7 -10 -16z"/>
<path d="M490 1105 c0 -19 5 -35 10 -35 6 0 10 16 10 35 0 19 -4 35 -10 35 -5
0 -10 -16 -10 -35z"/>
<path d="M640 1125 c0 -8 5 -15 10 -15 6 0 10 7 10 15 0 8 -4 15 -10 15 -5 0
-10 -7 -10 -15z"/>
<path d="M800 1105 c0 -19 5 -35 10 -35 6 0 10 16 10 35 0 19 -4 35 -10 35 -5
0 -10 -16 -10 -35z"/>
<path d="M975 1089 c-4 -6 -5 -13 -2 -16 7 -7 27 6 27 18 0 12 -17 12 -25 -2z"/>
<path d="M1726 1125 c-3 -9 0 -15 9 -15 8 0 15 7 15 15 0 8 -4 15 -9 15 -5 0
-11 -7 -15 -15z"/>
<path d="M988 905 c-3 -16 -1 -25 7 -25 8 0 10 9 7 25 -2 14 -6 25 -7 25 -1 0
-5 -11 -7 -25z"/>
<path d="M1604 906 c-8 -21 -1 -49 14 -54 8 -2 12 8 12 32 0 36 -16 49 -26 22z"/>
<path d="M1985 901 c-6 -21 3 -51 16 -51 5 0 9 16 9 35 0 37 -15 47 -25 16z"/>
<path d="M380 865 c0 -8 5 -15 10 -15 6 0 10 7 10 15 0 8 -4 15 -10 15 -5 0
-10 -7 -10 -15z"/>
<path d="M626 871 c-4 -7 -5 -15 -2 -18 9 -9 19 4 14 18 -4 11 -6 11 -12 0z"/>
<path d="M786 871 c-4 -7 -5 -15 -2 -18 9 -9 19 4 14 18 -4 11 -6 11 -12 0z"/>
<path d="M1175 869 c-4 -6 -5 -13 -2 -16 7 -7 27 6 27 18 0 12 -17 12 -25 -2z"/>
<path d="M1926 905 c-3 -9 0 -15 9 -15 8 0 15 7 15 15 0 8 -4 15 -9 15 -5 0
-11 -7 -15 -15z"/>
<path d="M1454 686 c-8 -21 -1 -49 14 -54 8 -2 12 8 12 32 0 36 -16 49 -26 22z"/>
<path d="M1835 681 c-6 -21 3 -51 16 -51 5 0 9 16 9 35 0 37 -15 47 -25 16z"/>
<path d="M420 645 c0 -8 5 -15 10 -15 6 0 10 7 10 15 0 8 -4 15 -10 15 -5 0
-10 -7 -10 -15z"/>
<path d="M520 685 c0 -8 5 -15 10 -15 6 0 10 7 10 15 0 8 -4 15 -10 15 -5 0
-10 -7 -10 -15z"/>
<path d="M1025 649 c-4 -6 -5 -13 -2 -16 7 -7 27 6 27 18 0 12 -17 12 -25 -2z"/>
<path d="M1776 685 c-3 -9 0 -15 9 -15 8 0 15 7 15 15 0 8 -4 15 -9 15 -5 0
-11 -7 -15 -15z"/>
<path d="M1270 445 c0 -19 4 -35 9 -35 13 0 23 34 15 54 -11 28 -24 18 -24
-19z"/>
<path d="M1650 445 c0 -25 4 -35 13 -32 6 2 12 16 12 32 0 16 -6 30 -12 33 -9
2 -13 -8 -13 -33z"/>
<path d="M470 445 c0 -19 5 -35 10 -35 6 0 10 16 10 35 0 19 -4 35 -10 35 -5
0 -10 -16 -10 -35z"/>
<path d="M710 465 c0 -8 5 -15 10 -15 6 0 10 7 10 15 0 8 -4 15 -10 15 -5 0
-10 -7 -10 -15z"/>
<path d="M846 431 c-4 -7 -5 -15 -2 -18 9 -9 19 4 14 18 -4 11 -6 11 -12 0z"/>
<path d="M7284 116 c-8 -34 3 -79 19 -73 7 2 12 22 12 47 0 49 -21 66 -31 26z"/>
<path d="M8380 120 c0 -11 7 -20 15 -20 8 0 15 9 15 20 0 11 -7 20 -15 20 -8
0 -15 -9 -15 -20z"/>
<path d="M7610 75 c0 -19 5 -35 10 -35 6 0 10 16 10 35 0 19 -4 35 -10 35 -5
0 -10 -16 -10 -35z"/>
<path d="M7865 100 c-7 -12 2 -30 16 -30 5 0 9 9 9 20 0 21 -15 27 -25 10z"/>
<path d="M8480 54 c0 -8 5 -12 10 -9 6 3 10 10 10 16 0 5 -4 9 -10 9 -5 0 -10
-7 -10 -16z"/>
<path d="M8686 103 c-11 -11 -6 -23 9 -23 8 0 15 4 15 9 0 13 -16 22 -24 14z"/>
<path d="M15820 7086 c0 -2 8 -10 18 -17 15 -13 16 -12 3 4 -13 16 -21 21 -21
13z"/>
<path d="M7670 75 c0 -19 5 -35 10 -35 6 0 10 16 10 35 0 19 -4 35 -10 35 -5
0 -10 -16 -10 -35z"/>
<path d="M7860 20 c0 -5 7 -10 15 -10 8 0 15 5 15 10 0 6 -7 10 -15 10 -8 0
-15 -4 -15 -10z"/>
</g>
</svg>
